v -0.359400958 -0.042546369 0.075751707
v -0.348790824 -0.026501041 0.108415768
v -0.355915219 -0.042952187 0.092083737
v -0.353028148 -0.043288305 0.097527668
v -0.352536023 -0.026903318 0.102971718
v -0.342850029 -0.022550158 0.115855262
v -0.238732904 0.165606409 0.064863726
v -0.242756769 0.168585390 0.168299720
v -0.233930469 0.159779504 0.048531696
v -0.232905924 0.168579757 0.070307657
v -0.267395556 -0.086142495 0.190075800
v -0.235140443 0.167698681 0.070307657
v -0.229144752 0.153809443 0.037643716
v -0.223765716 0.152935743 0.032199666
v -0.211813107 0.192386732 0.200963780
v -0.234639838 -0.175851017 0.086639687
v -0.228715360 -0.124963015 0.026755614
v -0.229324386 -0.177271366 0.081195757
v -0.218736425 -0.086326726 0.254688770
v -0.231412560 -0.172543287 0.173743770
v -0.222731203 -0.085861646 0.249959812
v -0.180592462 0.194232732 0.249277756
v -0.198556140 0.009977829 0.320731848
v -0.199278593 0.015542698 0.320731848
v -0.197754592 0.020846030 0.320731848
v -0.207808897 -0.180772066 0.193715557
v -0.201840118 -0.176580727 0.217295811
v -0.201771826 -0.175994128 0.218199298
v -0.170592234 -0.190639421 0.239071772
v -0.165118039 -0.190695778 0.222739801
v -0.168670490 -0.190809399 0.244515821
v -0.167417496 -0.169032201 0.255403787
v -0.159665644 -0.190939486 0.222739801
v -0.105517231 0.180011570 -0.000747519
v -0.106269248 0.180099115 -0.000464396
v -0.093106873 0.192456245 -0.000464396
v -0.092813641 0.194974929 0.000515742
v -0.113413177 -0.170270950 0.004979653
v -0.116285689 -0.169504240 0.004979653
v -0.056591433 0.223642483 0.007594986
v -0.050747599 0.228442907 0.010423703
v -0.041628126 0.210938916 -0.003845649
v -0.028834987 0.226670980 -0.000464396
v -0.031158639 0.226162314 -0.000464396
v 0.021001935 0.231051266 -0.001826720
v -0.021757938 -0.183309108 -0.000464396
v 0.016133588 -0.187379777 -0.000464396
v 0.081085049 0.229287282 -0.005908327
v 0.086521260 0.228904128 -0.006158667
v 0.092262797 0.231144011 -0.005908327
v 0.108889565 0.232728675 -0.000464396
v 0.066116273 -0.181747451 -0.005908327
v 0.112670638 0.171052054 0.291609079
v 0.117840402 0.197854042 0.288067847
v 0.081643477 -0.189607486 -0.005908327
v 0.133929491 0.212423250 0.279611140
v 0.110075407 -0.133700222 0.293511838
v 0.110861413 -0.174026102 0.292317778
v 0.111490965 -0.168618575 0.292531520
v 0.108996361 -0.157366633 0.293511838
v 0.109567948 -0.151952416 0.293511838
v 0.110089086 -0.135570750 0.293511838
v 0.123511724 -0.112443581 0.288067847
v 0.168892547 0.230275825 0.256585032
v 0.119640239 -0.192774221 0.288067847
v 0.125187740 -0.192200974 -0.005908327
v 0.130142599 -0.196718141 0.282623798
v 0.180082157 0.232234985 0.249959812
v 0.191152021 0.233165160 0.242971703
v 0.152431294 -0.193577960 -0.005908327
v 0.163313657 -0.194258392 0.266291827
v 0.160087809 -0.190718651 0.271735817
v 0.179501861 -0.196440697 0.249959812
v 0.240190417 0.183609813 0.049752280
v 0.201891124 -0.192436665 0.244515821
v 0.235427245 0.140318155 0.217295811
v 0.256412864 0.181721166 0.199598953
v 0.260138512 0.181287423 0.195519790
v 0.261163056 0.142802700 0.200963780
v 0.278672338 0.184610441 0.109373376
v 0.283450276 0.178573415 0.108335540
v 0.280932069 0.156943485 0.180867538
v 0.240011364 -0.194542751 0.206745848
v 0.284450889 0.140091479 0.184831426
v 0.284655154 0.140067711 0.184631750
v 0.264009356 -0.176720500 0.059419677
v 0.270196497 -0.170653105 0.037969276
v 0.276516378 -0.163445473 0.043087646
v 0.275161535 -0.171231136 0.184631750
v 0.282421291 -0.159802884 0.053975746
v 0.280730814 -0.174323082 0.108415768
v 0.312488973 0.098461859 0.154876634
v 0.278264433 -0.166111559 0.184631750
v 0.281244040 -0.160977691 0.179187760
v 0.317071378 0.090745613 0.146523759
v 0.316637337 0.087017313 0.149563834
v 0.317066044 0.090699673 0.032199666
v 0.286298662 -0.172527745 0.113859698
v 0.315495253 0.092631042 0.151967689
v 0.314490199 0.021497985 0.155332372
v 0.317008406 0.043127913 0.153057143
v 0.317358315 0.086933374 0.081195757
v 0.317556441 0.086910315 0.141079709
v 0.318009019 0.004646037 0.149254724
v 0.314231724 -0.027798884 0.028998060
v 0.318077415 0.043003459 0.146523759
v 0.317598671 0.043059193 0.151967689
v 0.315232366 -0.066280760 0.153721973
v 0.315861911 -0.060873292 0.153109953
v 0.318461716 0.004593335 0.146523759
v 0.318550736 -0.061186332 0.141079709
v 0.317930520 -0.061114125 0.146523759
v 0.316787541 -0.066461816 0.151967689
v 0.318120956 -0.055655535 0.146523759
v 0.318271250 -0.050192211 0.146523759
v 0.319464028 -0.061292659 0.032199666
v 0.319859028 -0.055857886 0.032199666
f 54 53 25
f 54 22 25
f 80 51 69
f 80 51 74
f 31 33 67
f 31 33 30
f 7 5 1
f 52 49 42
f 14 17 1
f 18 47 30
f 18 17 39
f 18 16 1
f 18 17 1
f 57 53 25
f 65 72 67
f 65 31 67
f 6 5 25
f 56 72 53
f 56 54 53
f 56 54 22
f 79 84 69
f 75 79 72
f 75 79 84
f 78 80 81
f 78 80 69
f 97 80 81
f 97 80 74
f 97 51 74
f 97 105 117
f 97 51 50
f 111 110 117
f 20 16 1
f 8 7 5
f 8 6 5
f 8 22 25
f 8 6 25
f 10 7 41
f 48 49 50
f 48 49 42
f 34 52 39
f 34 52 42
f 34 17 39
f 34 14 17
f 46 52 39
f 46 18 47
f 9 7 1
f 9 7 41
f 29 31 30
f 29 18 30
f 29 18 16
f 63 72 53
f 23 19 31
f 23 61 25
f 23 61 60
f 64 56 22
f 76 56 72
f 76 79 72
f 76 56 69
f 76 79 69
f 82 78 81
f 71 72 67
f 71 75 72
f 73 75 83
f 73 71 67
f 73 71 75
f 70 73 83
f 70 73 67
f 70 33 67
f 70 33 30
f 70 49 50
f 70 49 66
f 70 97 50
f 70 97 105
f 70 47 66
f 70 47 30
f 98 111 113
f 77 84 69
f 77 78 69
f 115 111 110
f 28 19 31
f 15 8 7
f 15 8 22
f 15 10 41
f 15 41 22
f 38 18 39
f 38 46 39
f 38 46 18
f 55 46 52
f 55 49 66
f 55 52 49
f 55 47 66
f 55 46 47
f 13 14 1
f 13 9 1
f 13 9 14
f 36 34 42
f 36 44 42
f 36 44 37
f 36 37 14
f 40 37 14
f 40 9 41
f 40 9 14
f 40 44 41
f 40 44 37
f 26 20 31
f 26 29 31
f 26 20 16
f 26 29 16
f 62 57 25
f 62 61 25
f 62 63 72
f 62 57 53
f 62 63 53
f 59 61 60
f 59 65 72
f 59 62 72
f 59 62 61
f 32 65 31
f 32 23 31
f 32 23 65
f 24 5 25
f 24 23 25
f 2 24 5
f 2 24 23
f 68 56 69
f 68 64 56
f 68 41 69
f 68 41 22
f 68 64 22
f 92 99 81
f 92 82 81
f 102 97 117
f 102 103 117
f 102 103 97
f 86 70 83
f 86 70 87
f 86 98 87
f 90 98 87
f 45 41 69
f 45 51 69
f 45 51 50
f 45 48 50
f 112 111 113
f 27 20 31
f 27 28 31
f 27 28 20
f 4 28 20
f 4 2 5
f 4 2 23
f 12 10 7
f 12 15 7
f 12 15 10
f 35 34 14
f 35 36 14
f 35 36 34
f 58 23 60
f 58 59 60
f 58 23 65
f 58 59 65
f 106 107 110
f 106 110 117
f 106 103 117
f 95 103 97
f 95 106 103
f 95 106 107
f 95 99 81
f 95 97 81
f 104 115 110
f 104 107 110
f 104 115 113
f 104 107 113
f 85 92 99
f 85 92 82
f 85 82 78
f 85 77 84
f 85 77 78
f 101 85 84
f 101 107 113
f 101 107 99
f 101 85 99
f 93 108 113
f 93 108 84
f 93 75 84
f 93 75 83
f 91 98 83
f 91 86 83
f 91 86 98
f 116 70 87
f 116 90 98
f 116 105 117
f 116 70 105
f 116 111 117
f 116 98 111
f 43 44 41
f 43 45 41
f 43 45 48
f 43 48 42
f 43 44 42
f 114 115 111
f 114 112 111
f 114 115 113
f 114 112 113
f 3 20 1
f 3 4 20
f 3 5 1
f 3 4 5
f 11 4 28
f 96 107 99
f 96 95 99
f 96 95 107
f 100 108 84
f 100 101 84
f 100 101 108
f 109 108 113
f 109 101 113
f 109 101 108
f 94 98 113
f 94 93 113
f 94 93 98
f 89 98 83
f 89 93 83
f 89 93 98
f 88 90 87
f 88 116 87
f 88 116 90
f 21 28 19
f 21 11 28
f 21 11 4
f 21 23 19
f 21 4 23
