v -0.035581462 0.098525919 -0.058366973
v -0.034951914 0.103933387 -0.055989522
v -0.033063263 0.120155849 -0.042661805
v -0.033130832 0.119575463 0.040694159
v -0.036142681 0.120514363 0.002586110
v -0.036371447 0.120540991 0.008030100
v -0.031947963 0.082658961 -0.073629931
v -0.027655795 0.119526304 -0.053874332
v -0.027493514 0.120920219 -0.051853914
v -0.027655795 0.119526304 0.046892326
v -0.027787054 0.118398868 0.051582139
v -0.027641356 0.119650334 0.046138149
v -0.037366591 0.049406789 -0.062741950
v -0.035165332 0.092996716 -0.062741950
v -0.028330138 0.119604811 0.046138149
v -0.028719084 0.063316025 -0.079073921
v -0.036165617 0.038305387 -0.068185940
v -0.026165280 0.113872014 0.062470119
v -0.025132839 0.108270995 0.067914173
v -0.023360949 0.062262751 -0.084517971
v -0.040763680 -0.087217078 -0.054612894
v -0.041674051 -0.070668750 -0.057297964
v -0.020568471 0.102258839 0.078802153
v -0.015268872 0.084692508 -0.089961961
v -0.013951533 0.096007727 -0.087171510
v -0.013321985 0.101415187 -0.085497573
v -0.038862098 -0.117960244 -0.019189911
v -0.038823690 -0.117630355 0.008030100
v -0.037244856 -0.104069032 -0.056067783
v -0.038650703 -0.116144493 0.024362130
v -0.032701470 -0.065043852 -0.073629931
v -0.019069038 0.091122754 0.084246144
v -0.017468374 0.079974823 0.089690194
v -0.017004473 0.085401632 0.089690194
v -0.032466941 -0.110106103 -0.055351991
v -0.033251561 -0.116845556 -0.046409924
v -0.033364039 -0.117811665 0.046138149
v -0.012957186 0.057471912 0.095134184
v -0.017357755 0.019673461 -0.092077151
v -0.020505501 -0.007363934 -0.089426473
v -0.028245842 -0.120926395 0.057026129
v -0.022339417 -0.070193477 -0.084517971
v -0.029547164 -0.115926787 -0.051853914
v -0.022560921 -0.119172774 -0.035521943
v -0.022601906 -0.119524807 -0.030077891
v -0.022637224 -0.119828172 -0.024633901
v -0.016914856 -0.070676200 -0.089961961
v -0.018483184 -0.045964818 -0.089961961
v -0.023199763 -0.116665766 0.062470119
v -0.021631256 -0.105886795 0.073358163
v -0.016874030 -0.117402218 -0.048057694
v -0.016999595 -0.118480749 -0.046409924
v -0.017093439 -0.119286828 -0.040965933
v -0.017164765 -0.119899474 -0.035521943
v -0.017221471 -0.120386556 -0.024633901
v -0.014030977 -0.092981972 0.089690194
v -0.012467182 -0.079549834 0.093093976
v 0.000123800 0.028599745 0.109933957
v 0.001076541 0.036783263 0.106022164
v -0.012922704 -0.117862239 -0.046409924
v -0.011758856 -0.117997736 -0.040965933
v -0.007868979 -0.052681305 0.100578174
v 0.002593847 -0.031976305 0.111466154
v 0.002138408 -0.026442522 0.111466154
v 0.001200451 -0.020852562 0.111466154
v 0.027063757 0.071691774 -0.133514002
v 0.044052158 0.076382130 -0.149845973
v 0.049975134 0.080180511 -0.155290022
v 0.072777674 0.087734401 -0.171621993
v 0.083928652 0.089361779 -0.177066043
v 0.094861694 0.089116611 -0.182510033
v 0.122997023 0.095399536 -0.193398014
v 0.150709167 0.098047525 -0.198842004
v 0.152606905 0.098539770 -0.198842004
v 0.189902574 0.105159260 -0.201922670
v 0.206754521 0.108678140 -0.203409567
v 0.235051081 0.116345324 -0.199575379
v 0.258279890 0.127561212 -0.193398014
v 0.270014077 0.134197965 -0.188814715
v 0.277912080 0.138759226 -0.182510033
v 0.285956770 0.129906252 -0.166178003
v 0.287495643 0.143124253 -0.175498441
v 0.297462434 0.134580240 -0.160734013
v 0.297225654 0.147472277 -0.166178003
v 0.302993000 0.135007486 -0.155290022
v 0.303718090 0.141235590 -0.157820180
v 0.304347634 0.146643117 -0.158398464
v 0.304977208 0.152050585 -0.158747867
v 0.298561513 0.136355177 -0.160734013
v 0.302840263 0.152299374 -0.160734013
v 0.310384721 0.151421040 -0.152228668
v 0.303394884 0.135792464 -0.155290022
v 0.305883557 0.140983492 -0.155290022
v 0.306974560 0.146337286 -0.155290022
v 0.315575570 0.148931399 -0.144401982
v 0.316246122 0.154690951 -0.144401982
v 0.315162569 0.145384029 -0.142671719
v 0.316421688 0.156198964 -0.142645195
v 0.312276721 0.140239179 -0.144401982
v 0.314380139 0.145475119 -0.144401982
v 0.315485656 0.156307936 -0.144401982
v 0.315984428 0.150769100 -0.144401982
v 0.318565756 0.150468588 -0.138957992
v 0.318573654 0.155948430 -0.138957992
f 61 54 60
f 103 99 56
f 103 63 104
f 103 56 63
f 49 56 41
f 49 99 56
f 49 61 41
f 49 61 99
f 18 23 104
f 34 23 104
f 34 59 104
f 50 56 41
f 50 33 56
f 46 27 41
f 53 54 60
f 55 61 41
f 55 61 54
f 55 46 41
f 55 46 54
f 101 90 9
f 85 61 60
f 85 61 99
f 76 77 60
f 26 25 68
f 21 29 27
f 36 29 27
f 36 29 35
f 36 53 54
f 11 18 104
f 19 18 23
f 5 9 3
f 5 101 9
f 5 101 6
f 30 6 22
f 65 62 63
f 57 33 56
f 57 62 33
f 57 56 63
f 57 62 63
f 45 46 27
f 45 46 54
f 98 12 104
f 98 101 104
f 98 101 12
f 4 101 6
f 4 11 18
f 4 30 6
f 4 19 18
f 96 101 104
f 96 103 104
f 81 77 60
f 81 85 60
f 78 76 77
f 78 81 77
f 78 81 85
f 1 5 6
f 8 9 3
f 52 53 60
f 52 36 53
f 69 26 68
f 69 8 26
f 10 12 104
f 10 11 104
f 32 34 23
f 32 19 23
f 32 34 33
f 32 19 33
f 28 27 41
f 28 30 41
f 28 30 22
f 28 21 22
f 28 21 27
f 37 30 41
f 37 19 33
f 37 4 19
f 37 4 30
f 37 50 41
f 37 50 33
f 38 62 33
f 38 65 62
f 64 65 63
f 44 36 54
f 44 45 54
f 44 36 27
f 44 45 27
f 15 101 12
f 15 4 101
f 15 10 12
f 15 4 11
f 15 10 11
f 97 103 99
f 97 95 103
f 102 96 91
f 102 95 103
f 102 96 103
f 79 76 72
f 79 78 76
f 79 9 72
f 88 94 91
f 88 96 91
f 88 101 90
f 88 96 101
f 93 94 91
f 93 102 91
f 93 102 95
f 2 5 3
f 2 1 5
f 2 8 3
f 2 8 26
f 2 1 14
f 39 16 40
f 51 52 60
f 51 76 60
f 31 17 22
f 31 16 40
f 31 17 16
f 31 21 22
f 31 21 29
f 43 36 35
f 43 52 36
f 43 51 52
f 74 76 72
f 74 73 72
f 74 73 76
f 58 34 33
f 58 38 33
f 58 34 59
f 58 38 65
f 58 59 104
f 58 64 65
f 58 63 104
f 58 64 63
f 100 97 99
f 100 97 95
f 100 93 99
f 100 93 95
f 80 90 9
f 80 79 9
f 83 78 85
f 83 79 78
f 92 85 99
f 92 93 99
f 7 17 14
f 7 17 16
f 7 26 25
f 7 2 14
f 7 2 26
f 67 40 68
f 67 39 40
f 13 17 22
f 13 17 14
f 13 1 14
f 13 6 22
f 13 1 6
f 70 71 72
f 70 71 69
f 70 9 72
f 70 8 9
f 70 69 8
f 47 69 68
f 47 71 69
f 47 29 35
f 47 71 72
f 47 43 35
f 47 73 72
f 47 51 76
f 47 43 51
f 82 88 90
f 82 80 90
f 82 80 79
f 24 7 25
f 24 25 68
f 24 7 68
f 20 39 16
f 20 7 16
f 48 31 40
f 48 40 68
f 48 47 68
f 75 73 76
f 75 47 76
f 75 47 73
f 87 88 94
f 87 93 94
f 86 92 93
f 86 87 93
f 66 67 39
f 66 20 39
f 66 67 68
f 66 7 68
f 66 20 7
f 42 48 31
f 42 48 47
f 42 31 29
f 42 47 29
f 84 82 88
f 84 87 88
f 84 86 82
f 84 86 87
f 89 86 92
f 89 92 85
f 89 82 79
f 89 86 82
f 89 83 85
f 89 83 79
