v -0.067585200 0.090053849 0.112988330
v -0.067556359 0.089877889 0.113240480
v -0.063248344 0.090165898 0.106584430
v -0.062208302 0.083840877 0.115665346
v -0.059009071 0.089423865 0.100199647
v -0.050920401 0.076936483 0.109702334
v -0.066749454 -0.019122368 0.012944640
v -0.050756689 -0.086938761 0.134862959
v -0.069973119 0.005322824 -0.003066215
v -0.070629470 0.005525684 0.002612080
v -0.070180602 -0.000008341 0.002523571
v -0.065880604 -0.021710824 -0.009421939
v -0.065688424 -0.022678526 -0.007864962
v -0.045279164 -0.090299957 0.136334121
v -0.062702075 0.025988795 -0.022007663
v -0.066967890 -0.017081860 -0.009207545
v -0.062890261 0.026030524 -0.021109330
v -0.062265821 -0.007085613 -0.028221771
v -0.039900009 -0.090283044 0.135273442
v -0.058137655 0.030766714 -0.030065402
v -0.057350524 0.033553246 -0.027750421
v -0.054317296 0.041667849 -0.017250890
v -0.059429985 0.030975701 -0.027340388
v -0.058973595 -0.029345095 -0.026460651
v -0.058719922 -0.034733143 -0.021931646
v -0.058525745 -0.013122695 -0.033951994
v -0.057914969 -0.002307701 -0.037362900
v -0.058718529 -0.034752622 -0.021912845
v -0.058045089 -0.038045589 -0.016515836
v -0.060930151 -0.029009791 -0.021495828
v -0.060992729 -0.018165819 -0.027032243
v -0.059266582 -0.013014864 -0.032921486
v -0.060945593 -0.007334806 -0.032590412
v -0.060631208 -0.001891353 -0.032652404
v -0.062093209 -0.012554471 -0.026815249
v -0.060397040 -0.034428898 -0.016052075
v -0.053965680 -0.008344716 -0.042031839
v -0.053472493 -0.002937249 -0.042784851
v -0.048269425 0.001840670 -0.047603693
v -0.048156884 -0.045629352 -0.018465614
v -0.046255618 0.018063130 -0.047153402
v -0.045855038 0.020625038 -0.046663627
v -0.050658222 -0.041190278 -0.023521269
v -0.050875235 -0.003298980 -0.045673735
v -0.050035693 0.002082157 -0.045839276
v -0.046995725 0.018163765 -0.046438705
v -0.045401759 -0.020418804 -0.047995392
v -0.045481659 -0.023182780 -0.046737250
v -0.043187108 -0.049196463 -0.019445565
v -0.046914291 -0.020211341 -0.046454761
v -0.046241917 -0.047070116 -0.018843209
v -0.040880214 -0.026455820 -0.049762156
v -0.040859759 -0.029795501 -0.047648609
v -0.040627006 -0.021048352 -0.051732223
v -0.040490441 -0.035782702 -0.042172555
v -0.038010668 -0.053493213 -0.018938344
v -0.037470657 -0.055447090 -0.015023870
v -0.038201869 -0.052628230 -0.020428563
v -0.043579694 -0.026087796 -0.047112286
v -0.040967386 -0.053051796 -0.014334378
v -0.035142139 -0.045256678 -0.037678391
v -0.034642991 -0.048715301 -0.033065591
v -0.035958141 -0.032492843 -0.049497969
v -0.035924796 -0.033667937 -0.048621692
v -0.035885915 -0.024107018 -0.054178234
v -0.036000289 -0.027085373 -0.052965909
v -0.035702568 -0.037900366 -0.044947591
v -0.032008469 -0.059530236 -0.013196346
v -0.035588279 -0.048584264 -0.032041546
v -0.038052574 -0.032224424 -0.048202135
v -0.038684670 -0.037505262 -0.042528622
v -0.030543663 -0.043937381 -0.043482009
v -0.030128032 -0.048435699 -0.038667083
v -0.030780565 -0.038529914 -0.047937650
v -0.030584684 -0.043213308 -0.044125792
v -0.026403308 -0.061928466 -0.011657399
v -0.025570670 -0.063859373 -0.006272705
v -0.019724062 -0.051504035 -0.040718559
v -0.019120971 -0.055444583 -0.035288602
v -0.019782200 -0.005910920 -0.068451226
v -0.013804171 -0.056640968 -0.035935648
v -0.013057881 -0.058660738 -0.030935381
v -0.013850332 -0.056378216 -0.036327876
v -0.007708774 -0.058906876 -0.031990130
v -0.003643520 -0.069418564 -0.005047470
v -0.002722189 -0.070572756 0.000319613
v -0.005429205 -0.009232740 -0.078653798
v -0.006147467 -0.014587195 -0.076688506
v -0.000977754 -0.036899682 -0.067759201
v -0.000921846 -0.038319413 -0.066621274
v 0.035463873 0.011138084 0.059812952
v 0.040618118 0.015916005 0.054746512
v 0.040795524 0.020685658 0.052775841
v 0.036237366 0.011036458 0.059223503
v 0.045747440 0.031508915 0.043045245
v 0.045029204 0.042323850 0.032894328
v 0.043901909 0.015482740 0.052163318
v 0.048139576 -0.006973018 0.050004542
v 0.050205544 0.036286835 0.034448333
v 0.048649557 0.047101770 0.020048827
v 0.049055520 0.044949323 0.023402985
v 0.050199624 0.036524959 0.034275018
v 0.048412465 0.041851465 0.029078538
v 0.028183341 -0.055773869 -0.050165039
v 0.052666228 -0.007602566 0.045009483
v 0.054023139 0.008619894 0.042128358
v 0.054395691 0.014027361 0.040763546
v 0.054785285 0.029594958 0.033370808
v 0.052031234 0.014393110 0.045011487
v 0.058961354 0.024212740 0.029457619
v 0.058798701 0.026875060 0.027030559
v 0.036907602 0.065732628 -0.107373573
v 0.034210198 0.062335502 -0.106841691
v 0.055678606 -0.008087774 0.038743537
v 0.052775338 -0.007618289 0.044864763
v 0.057017207 0.024513029 0.032930713
v 0.059444789 -0.019676603 0.029991204
v 0.061849587 0.007360791 0.025915988
v 0.055685189 -0.030261606 0.027644487
v 0.055040829 -0.024579408 0.033320419
v 0.062612690 0.023599101 0.020729756
v 0.064818077 -0.004083749 0.019527227
v 0.065597989 0.006731244 0.016974088
v 0.064277664 0.006959248 0.020401454
v 0.073741712 0.021694543 -0.007391839
v 0.072893322 0.043324471 -0.024711261
v 0.073740982 0.027134527 -0.009208675
v 0.061395109 -0.056691993 -0.051164925
v 0.076751031 0.037287455 -0.029844640
v 0.053302780 -0.032853309 -0.099508777
v 0.068817995 -0.055367760 -0.047079835
v 0.083609283 -0.040305905 -0.033359747
v 0.078525752 -0.050789006 -0.037896279
v 0.084141448 0.019794678 -0.039003592
v 0.084481724 0.025110144 -0.044619564
v 0.086965695 0.043409955 -0.095048748
v 0.085169323 0.035928879 -0.127987549
v 0.087768883 0.040246800 -0.117402501
v 0.079404101 -0.041306369 -0.099106610
v 0.087921143 0.012943966 -0.128530160
v 0.087778047 0.039411630 -0.122953184
v 0.089902461 -0.021194175 -0.126268387
v 0.089982815 -0.025303459 -0.123387925
v 0.091351978 -0.004096372 -0.129206657
v 0.092846766 0.011281325 -0.129501402
v 0.094726332 0.000096768 -0.129872009
v 0.094957769 0.005550065 -0.129917651
f 11 2 10
f 1 112 3
f 1 22 112
f 1 2 10
f 5 112 3
f 101 1 3
f 101 1 2
f 19 91 6
f 21 1 22
f 21 23 1
f 21 22 112
f 138 141 112
f 138 141 147
f 136 5 112
f 136 5 126
f 136 138 112
f 136 138 147
f 92 91 6
f 100 5 3
f 100 101 3
f 100 5 126
f 100 101 126
f 4 101 2
f 4 19 6
f 4 19 14
f 8 4 14
f 8 4 2
f 8 11 2
f 132 134 147
f 132 143 133
f 132 19 133
f 125 132 134
f 139 143 133
f 86 85 128
f 86 19 128
f 86 85 14
f 86 19 14
f 98 19 109
f 137 141 112
f 137 113 112
f 137 113 140
f 137 141 147
f 142 88 87
f 80 113 87
f 15 23 1
f 39 80 44
f 39 80 113
f 20 15 23
f 20 15 34
f 20 113 112
f 20 21 112
f 20 21 23
f 135 134 147
f 135 136 147
f 94 92 91
f 94 19 91
f 95 93 6
f 95 93 109
f 103 4 101
f 58 62 69
f 60 8 57
f 29 60 40
f 29 60 8
f 77 85 14
f 146 132 147
f 146 132 143
f 146 142 143
f 119 19 120
f 119 132 19
f 131 139 128
f 131 139 133
f 131 19 128
f 131 19 133
f 104 85 128
f 104 139 128
f 130 139 143
f 130 142 143
f 54 80 87
f 54 80 44
f 145 137 147
f 145 137 140
f 144 113 87
f 144 142 87
f 144 113 140
f 144 146 142
f 144 146 147
f 144 145 147
f 144 145 140
f 33 16 18
f 33 15 34
f 17 15 1
f 45 39 44
f 45 39 46
f 41 46 113
f 41 39 113
f 41 39 46
f 42 46 113
f 42 20 113
f 42 20 46
f 129 136 126
f 129 135 136
f 97 92 6
f 97 93 6
f 97 94 92
f 97 93 109
f 97 19 109
f 97 94 19
f 108 95 109
f 108 95 99
f 102 4 6
f 102 103 101
f 102 95 6
f 102 95 99
f 102 101 126
f 102 108 99
f 102 108 126
f 7 8 11
f 7 16 11
f 51 60 40
f 61 71 28
f 61 62 69
f 61 62 73
f 36 29 8
f 36 29 28
f 36 30 28
f 68 77 14
f 68 79 73
f 68 8 14
f 68 8 57
f 68 62 73
f 76 77 85
f 76 68 79
f 76 68 77
f 81 104 139
f 78 130 139
f 78 79 73
f 89 142 88
f 89 130 142
f 65 54 52
f 65 88 87
f 65 54 87
f 47 54 44
f 47 54 52
f 47 48 52
f 47 48 50
f 35 33 31
f 35 33 16
f 35 30 31
f 35 30 16
f 9 33 18
f 9 33 15
f 9 17 15
f 9 16 18
f 9 1 10
f 9 17 1
f 9 11 10
f 9 16 11
f 27 33 34
f 27 20 34
f 27 20 46
f 37 27 33
f 37 47 44
f 37 47 50
f 127 135 134
f 127 129 135
f 127 125 134
f 127 129 126
f 96 103 4
f 96 102 4
f 96 102 103
f 56 51 60
f 56 60 57
f 56 68 57
f 56 58 62
f 56 68 62
f 49 56 58
f 49 56 51
f 43 61 28
f 43 29 28
f 43 61 69
f 43 29 40
f 43 51 40
f 43 58 69
f 43 49 51
f 43 49 58
f 55 53 71
f 59 48 52
f 59 53 52
f 12 30 16
f 12 36 30
f 123 125 132
f 123 122 132
f 117 122 132
f 117 119 132
f 117 119 120
f 117 19 120
f 84 81 104
f 84 104 85
f 83 81 139
f 83 78 139
f 83 81 79
f 83 78 79
f 90 78 130
f 90 89 130
f 90 78 73
f 66 65 52
f 66 89 88
f 66 65 88
f 38 37 44
f 38 37 27
f 38 45 44
f 38 45 46
f 38 27 46
f 111 108 126
f 111 127 126
f 13 12 36
f 13 36 8
f 13 7 8
f 13 7 16
f 13 12 16
f 115 117 19
f 115 106 109
f 124 123 122
f 124 123 125
f 82 84 85
f 82 84 81
f 82 76 85
f 82 76 79
f 82 81 79
f 26 37 33
f 26 37 50
f 24 30 31
f 24 33 31
f 24 59 48
f 24 48 50
f 24 59 53
f 24 26 50
f 110 111 127
f 110 111 108
f 114 117 122
f 114 115 117
f 118 115 106
f 118 124 122
f 118 114 122
f 118 114 115
f 118 110 124
f 105 98 109
f 105 115 109
f 105 98 19
f 105 115 19
f 70 53 71
f 70 53 52
f 70 66 52
f 72 61 73
f 72 61 71
f 72 90 73
f 25 30 28
f 25 24 30
f 25 24 53
f 25 55 53
f 25 71 28
f 25 55 71
f 32 26 33
f 32 24 33
f 32 24 26
f 121 127 125
f 121 110 127
f 121 124 125
f 121 110 124
f 116 108 109
f 116 110 109
f 116 110 108
f 107 118 106
f 107 118 110
f 107 106 109
f 107 110 109
f 63 70 66
f 63 70 64
f 63 66 89
f 63 64 89
f 74 90 89
f 74 64 89
f 67 70 64
f 67 70 71
f 67 72 71
f 75 74 64
f 75 67 64
f 75 67 72
f 75 72 90
f 75 74 90
