v -0.182199270 0.004128359 0.052210029
v -0.183710173 0.004304261 0.057654019
v -0.174467355 0.019670475 0.061193641
v -0.180702135 0.009434820 0.057654019
v -0.177513644 0.014544369 0.057654019
v -0.178521544 0.014661711 0.063098013
v -0.174849346 0.019714946 0.063098013
v -0.177540392 0.014547485 0.068542063
v -0.182070285 -0.001367418 0.052210029
v -0.164017498 0.015275480 0.019545969
v -0.170343161 0.002748048 0.024990018
v -0.168933406 0.008064683 0.024990018
v -0.162651792 -0.020070497 0.019576248
v -0.153129414 0.014644725 0.008657988
v -0.147607371 0.014998858 0.003213998
v -0.152724817 -0.076033935 0.055530127
v -0.136184365 0.066039495 0.084874094
v -0.142420426 0.012475172 -0.002229992
v -0.149132743 -0.092256717 0.079430044
v -0.153041601 -0.081477873 0.068542063
v -0.151572153 -0.087129712 0.079430044
v -0.147847369 -0.093044117 0.090318024
v -0.116986334 0.089709304 0.211938381
v -0.116936542 0.090137005 0.210086167
v -0.129480049 -0.017604832 -0.013117973
v -0.117243223 0.089739211 0.210086167
v -0.139441207 -0.099503540 0.095762074
v -0.129206255 -0.062329732 -0.012161259
v -0.133812547 -0.101895265 0.101206064
v -0.120223202 0.014829704 -0.018562023
v -0.111578867 0.089079760 0.216145217
v -0.115060851 0.084004320 0.215530157
v -0.114220463 0.089387298 0.215530157
v -0.130525008 -0.067656964 -0.007674042
v -0.115614645 0.007337969 -0.021751706
v -0.128222853 -0.073405743 -0.002229992
v -0.112406246 0.001483680 -0.024006013
v -0.098054230 0.064018846 0.242750168
v -0.092351221 0.065927282 0.248194158
v -0.087059669 0.064302087 0.252926409
v -0.103158146 -0.073974900 -0.029450003
v -0.082812235 0.100785248 -0.018562023
v -0.087095141 0.102671593 0.008657988
v -0.094134979 -0.043547582 -0.034894053
v -0.095313631 -0.022429375 -0.034894053
v -0.078077964 0.112583376 0.019545969
v -0.079637222 0.052476369 0.259082198
v -0.087835044 -0.083588526 0.249968231
v -0.066792153 0.116750225 0.035877999
v -0.083057128 -0.089625604 0.253053308
v -0.059034914 0.116711937 0.052210029
v -0.088870257 -0.099910349 0.003213998
v -0.064429127 0.023301953 0.260863900
v -0.082955427 -0.106079720 0.008657988
v -0.072581887 -0.093802489 0.259082198
v -0.076469161 -0.112315685 0.014102038
v -0.042336289 0.118913807 0.057654019
v -0.054016013 0.060455080 0.259082198
v -0.062236782 -0.099097639 0.259082198
v -0.038520362 0.104613282 -0.024006013
v -0.036907814 0.118464179 0.014102038
v -0.045688465 0.043043230 0.261205554
v -0.058821011 -0.116834752 0.014102038
v -0.033456333 0.101033799 -0.029450003
v -0.033309527 0.118332870 0.008657988
v -0.045834348 -0.099439912 0.260207951
v -0.051416021 -0.142636284 0.242750168
v -0.025068786 0.084488846 -0.040338043
v -0.025367094 0.090004340 -0.040338043
v -0.045596536 -0.144474462 0.242750168
v -0.024464713 0.073456943 -0.040338043
v -0.040275320 -0.145844832 0.242750168
v -0.011579122 0.100639626 -0.029450003
v -0.034876138 -0.146545544 0.237306178
v -0.028982341 -0.095921092 0.261239707
v 0.001607098 0.119748570 0.054709312
v -0.006577043 0.049451321 0.261819959
v -0.027607944 -0.118004203 0.014102038
v 0.007014624 0.119119018 0.021247920
v -0.012483420 -0.095435098 -0.034894053
v 0.010278354 0.100075960 -0.029450003
v 0.010274972 0.052970197 0.259337008
v 0.017829558 0.117859922 0.053253707
v -0.003833589 -0.115291238 0.006661710
v 0.022607477 0.111822903 -0.017035190
v 0.023237025 0.117230371 -0.004051987
v 0.021530092 0.117429100 0.014102038
v 0.025090531 0.086074255 -0.040338043
v 0.026053933 0.094349369 -0.034894053
v 0.028644493 0.116600826 0.052034017
v 0.024334090 0.117102653 -0.002229992
v 0.027672054 0.116714038 0.052210029
v 0.008870047 -0.100327939 0.262696862
v 0.034052018 0.115971275 0.051018652
v 0.024350306 -0.014437781 0.262620986
v 0.024350306 -0.014437781 -0.042416159
v 0.039459486 0.115341723 0.050331231
v 0.025922960 -0.048006251 -0.040338043
v 0.028498678 -0.025882263 0.262702525
v 0.044237405 0.109304711 0.017566975
v 0.044866953 0.114712179 0.048244055
v 0.023979239 -0.047279201 -0.040338043
v 0.046747465 0.083788022 0.231862128
v 0.046497125 0.081637770 0.234667659
v 0.046142645 0.078592986 0.237306178
v 0.040201634 0.027562978 0.258892536
v 0.049470183 0.107174672 0.024990018
v 0.039660860 0.027625937 0.259082198
v 0.047138106 0.114447765 0.046766039
v 0.028611330 -0.119068541 0.019047376
v 0.052398000 0.085245796 0.226418138
v 0.052070703 0.082434513 0.231862128
v 0.051904652 0.081008211 0.233192861
v 0.044979613 0.021525957 0.256217122
v 0.030928185 -0.099168040 0.259082198
v 0.040955603 -0.013038079 -0.040338043
v 0.050500706 0.075690903 0.237306178
v 0.057312120 0.080378667 0.228986502
v 0.057649586 0.083277330 0.226418138
v 0.047239330 -0.006141044 0.257925928
v 0.048498429 0.004673949 0.256722510
v 0.034287352 -0.117391355 0.019545969
v 0.037166543 -0.092660695 0.259321749
v 0.037796091 -0.087253228 0.259571850
v 0.059602428 0.100051165 0.035877999
v 0.059830315 0.102008589 0.038506325
v 0.054083981 0.080754489 0.231862128
v 0.033227094 -0.097682819 0.259082198
v 0.056025699 0.102451533 0.030434009
v 0.051387701 -0.017585525 0.255544186
v 0.042574011 -0.093290240 -0.029514853
v 0.042364597 -0.095089003 -0.029450003
v 0.042867050 -0.090773210 -0.029450003
v 0.040055811 -0.114920169 0.018173452
v 0.049499050 -0.033807985 0.257593393
v 0.059954073 0.080071084 0.220974147
v 0.059239235 0.080154307 0.226418138
v 0.063090660 0.035859715 0.211483061
v 0.046956439 -0.102724306 -0.018562023
v 0.045463279 -0.115549713 0.042596992
v 0.068484023 0.084558770 0.095762074
v 0.052151356 -0.105179556 -0.007674042
v 0.051722027 -0.108867235 0.008657988
v 0.063832864 -0.051919036 0.211540282
v 0.058690362 -0.084205016 0.220974147
v 0.057703007 -0.084090069 0.226418138
v 0.059627488 -0.078833297 0.220974147
v 0.058546823 -0.078707486 0.226418138
v 0.070240952 -0.091030523 0.030309971
v 0.070321314 -0.090340249 0.030434009
v 0.068289600 -0.096284099 0.030434009
v 0.071491174 -0.080214493 0.101206064
f 110 74 140
f 145 151 152
f 145 151 140
f 27 19 56
f 22 27 19
f 22 27 67
f 36 19 56
f 70 56 67
f 57 33 76
f 50 22 67
f 149 150 152
f 149 151 152
f 138 144 152
f 83 79 76
f 147 144 152
f 147 145 152
f 88 89 69
f 88 96 69
f 80 139 132
f 80 41 56
f 80 63 56
f 131 139 132
f 141 150 152
f 141 126 119
f 141 138 152
f 29 56 67
f 29 27 67
f 29 27 56
f 21 22 2
f 21 22 19
f 52 36 41
f 78 110 74
f 78 63 74
f 78 80 63
f 72 63 74
f 72 70 56
f 72 63 56
f 24 17 46
f 24 23 33
f 24 57 33
f 43 17 46
f 55 50 67
f 55 75 53
f 55 75 66
f 48 22 2
f 48 50 22
f 32 23 2
f 32 48 2
f 142 149 151
f 142 149 133
f 142 139 110
f 142 131 133
f 142 131 139
f 137 138 144
f 111 83 76
f 111 33 76
f 94 83 79
f 130 137 144
f 130 137 121
f 42 45 69
f 42 45 35
f 42 43 46
f 25 45 41
f 73 89 69
f 116 88 96
f 116 131 133
f 116 131 132
f 116 149 150
f 116 149 133
f 125 88 89
f 125 116 88
f 125 116 150
f 125 141 150
f 125 141 126
f 98 80 132
f 98 116 132
f 98 116 96
f 54 41 56
f 54 52 41
f 54 36 56
f 54 52 36
f 84 139 110
f 84 78 110
f 84 80 139
f 84 78 80
f 128 74 140
f 128 145 140
f 93 75 66
f 93 72 66
f 93 128 123
f 93 75 53
f 49 24 46
f 26 24 23
f 7 43 17
f 7 24 17
f 7 42 43
f 7 26 24
f 65 86 79
f 65 86 60
f 65 42 60
f 65 49 46
f 65 42 46
f 59 55 67
f 59 55 66
f 59 70 67
f 59 72 66
f 59 72 70
f 47 55 53
f 47 55 50
f 47 48 50
f 143 151 140
f 143 142 151
f 136 141 119
f 136 137 119
f 136 141 138
f 136 137 138
f 92 111 83
f 87 94 79
f 148 147 144
f 148 130 144
f 135 120 121
f 135 130 121
f 135 120 99
f 135 148 130
f 28 25 41
f 28 11 13
f 16 36 19
f 68 45 69
f 68 45 71
f 68 96 69
f 68 71 96
f 44 71 96
f 44 45 71
f 44 80 41
f 44 45 41
f 64 42 69
f 64 42 60
f 64 73 69
f 30 42 35
f 37 45 35
f 37 25 45
f 37 30 35
f 37 30 25
f 81 73 89
f 129 100 89
f 129 125 89
f 129 125 126
f 85 100 89
f 85 100 86
f 85 81 89
f 85 81 73
f 85 64 73
f 85 86 60
f 85 64 60
f 107 129 126
f 107 129 100
f 109 107 100
f 109 107 126
f 109 126 119
f 109 111 119
f 115 93 72
f 115 93 128
f 115 72 74
f 115 128 74
f 51 24 57
f 51 49 57
f 51 49 24
f 6 7 26
f 6 26 23
f 6 4 2
f 6 5 4
f 6 5 7
f 61 79 76
f 61 65 79
f 61 57 76
f 61 49 57
f 61 65 49
f 106 120 121
f 77 82 58
f 77 47 58
f 38 32 48
f 38 23 33
f 38 32 23
f 134 143 140
f 122 142 110
f 122 143 142
f 122 134 143
f 122 110 140
f 122 134 140
f 90 94 83
f 90 92 83
f 146 147 145
f 146 148 147
f 146 128 123
f 146 128 145
f 146 135 123
f 146 135 148
f 124 135 99
f 124 135 123
f 124 93 99
f 124 93 123
f 10 5 42
f 9 11 13
f 9 16 13
f 9 21 2
f 20 21 19
f 20 16 19
f 20 9 21
f 20 9 16
f 34 28 13
f 34 16 13
f 34 16 36
f 34 36 41
f 34 28 41
f 102 98 96
f 102 44 96
f 102 98 80
f 102 44 80
f 18 30 25
f 18 30 42
f 18 10 14
f 18 10 11
f 18 28 25
f 18 28 11
f 91 100 86
f 91 109 100
f 91 86 79
f 91 87 79
f 91 87 94
f 97 90 94
f 97 92 111
f 97 90 92
f 3 7 42
f 3 5 42
f 3 5 7
f 8 23 2
f 8 6 2
f 8 6 23
f 62 47 53
f 62 77 47
f 62 93 53
f 95 93 99
f 95 62 93
f 95 62 77
f 40 47 48
f 40 47 58
f 40 31 33
f 12 10 11
f 1 9 11
f 1 12 11
f 1 9 2
f 1 12 10
f 1 4 2
f 1 5 4
f 1 10 5
f 15 18 14
f 15 18 42
f 15 10 14
f 15 10 42
f 101 91 94
f 101 91 109
f 101 97 94
f 101 109 111
f 101 97 111
f 108 117 82
f 108 117 106
f 108 77 82
f 108 95 77
f 108 95 99
f 108 120 99
f 108 106 120
f 118 137 119
f 118 137 121
f 118 117 121
f 127 118 119
f 127 118 117
f 105 82 58
f 105 117 82
f 114 106 121
f 114 117 121
f 114 117 106
f 39 38 48
f 39 40 48
f 39 38 33
f 39 40 33
f 103 40 58
f 103 40 31
f 103 31 33
f 103 111 33
f 113 127 117
f 113 105 117
f 104 105 58
f 104 103 58
f 104 113 105
f 112 104 103
f 112 104 113
f 112 103 111
f 112 111 119
f 112 127 119
f 112 113 127
