v -0.007657161 -0.022874918 -0.022382105
v 0.001337920 -0.021784116 -0.018216567
v 0.003928808 -0.021519108 -0.021208916
v 0.002130631 -0.021784130 -0.026045064
v -0.003665677 -0.022846481 -0.021977928
v 0.001727848 -0.022334075 -0.021431781
v -0.027580328 -0.019661348 -0.018927693
v -0.030513329 -0.020154055 -0.031967007
v -0.025017323 -0.019524479 -0.032567754
v 0.006823088 -0.015507016 -0.004500306
v -0.008813578 -0.017635766 -0.031564351
v 0.010384406 -0.015347030 -0.026027065
v -0.026341954 -0.020116264 -0.018802296
v -0.025593573 -0.021842269 -0.024198340
v -0.030507160 -0.021763710 -0.030167717
v -0.024965933 -0.022525918 -0.029606614
v -0.015882140 -0.021001268 -0.012271248
v -0.010318031 -0.021961521 -0.011707827
v -0.000413800 -0.018049575 -0.005233106
v -0.004907453 -0.021595819 -0.011159954
v 0.000374109 -0.020116836 -0.010625147
v -0.009121839 -0.022818649 -0.022530416
v 0.004874208 -0.016626244 -0.004697647
v 0.006876498 -0.019707646 -0.020910436
v -0.008561982 -0.022917118 -0.027945554
v 0.002104983 -0.020855092 -0.026865426
v -0.035869043 -0.015150544 -0.019767016
v -0.030886287 -0.014746596 -0.034533020
v 0.015457871 -0.009080399 -0.009132899
v 0.018611236 -0.008775167 -0.014250373
v 0.020675333 -0.008597814 -0.019513194
v -0.032096669 -0.017511014 -0.019385021
v 0.016260380 -0.011304021 -0.014488416
v 0.017031536 -0.013226646 -0.019882154
v 0.019864943 -0.003083501 -0.008651545
v 0.020264730 -0.003043357 -0.009177088
v -0.014746138 -0.007450423 -0.039150182
v -0.013501704 -0.007309082 -0.039389499
v 0.022481620 -0.002841485 -0.013858471
v 0.024393335 -0.002681964 -0.019136721
v 0.023232762 -0.002881968 -0.024726069
v -0.042043827 -0.010392366 -0.020392282
v -0.038001779 -0.013606864 -0.019982979
v 0.015451870 -0.009058966 -0.009098400
v 0.021016821 -0.005291134 -0.014006792
v -0.018651154 -0.002430917 -0.039910939
v 0.023318822 0.002801441 -0.008301818
v 0.025470458 0.002993663 -0.013161510
v 0.027041415 0.003108682 -0.018868588
v -0.027375389 -0.002681545 0.024867777
v -0.044424325 -0.005190782 -0.020685222
v -0.037466947 -0.004561240 -0.035718452
v -0.004261824 0.000023245 0.027208244
v -0.027294032 -0.002700468 0.024876015
v -0.016144754 -0.004802791 0.026004992
v -0.010713973 -0.004611506 0.026554910
v 0.020159999 -0.002628982 -0.008621669
v 0.026328539 0.000661814 -0.018940769
v 0.022555025 0.008257074 -0.002907342
v 0.024028109 0.008401202 -0.005166717
v 0.028534565 0.008828427 -0.013245574
v 0.028661150 0.008779049 -0.018704586
v -0.045003057 0.000216741 -0.021219155
v -0.038065232 0.000846282 -0.036059301
v -0.021366978 0.002734993 -0.039938886
v -0.032996800 -0.000543154 0.024298551
v -0.000852742 0.004405944 0.027553437
v 0.024668457 0.005523728 -0.008165160
v -0.039170869 0.006883430 0.022285370
v -0.045522828 0.005624203 -0.022335310
v 0.023238195 0.013808670 -0.003615021
v 0.025884325 0.014063247 -0.008042058
v 0.028907554 0.014352838 -0.013207817
v 0.029142875 0.014316184 -0.018655816
v 0.023957727 0.013452644 -0.041068237
v 0.022093629 0.009086802 -0.041256987
v -0.039781190 0.012290894 0.022063481
v -0.045602504 0.009670424 -0.026224500
v -0.001889637 0.013357522 0.027448425
v 0.026522627 0.017925518 -0.040808525
v -0.004269673 0.021945437 0.027207406
v 0.026543723 0.024973553 -0.018919026
v -0.035636231 0.023735460 0.022306683
v -0.041029271 0.022611056 -0.020289611
v -0.023968033 0.024364911 -0.039248731
v 0.020132663 0.029832525 -0.008624501
v 0.022351962 0.030031102 -0.013610579
v 0.024550200 0.030221090 -0.019120900
v 0.027480887 0.030435661 -0.029767798
v -0.023756588 0.030626630 0.025234152
v -0.015052887 0.031645153 0.026115483
v 0.019203007 0.035140306 -0.014190536
v 0.020051399 0.035047013 -0.030520115
v 0.022352194 0.030255014 -0.013871641
v 0.022565192 0.033151004 -0.019321907
v -0.034020372 0.034328584 -0.025051745
v 0.011983938 0.045128662 -0.025865214
v -0.029017881 0.045994818 -0.014375229
v -0.033651568 0.042988047 -0.019542588
v 0.002448693 0.055179778 -0.009324990
v 0.003707825 0.055314336 -0.010287723
v 0.005405844 0.055448849 -0.015587672
v -0.008797301 0.059328098 -0.011863308
v -0.003191227 0.057737909 -0.010986323
v 0.002435240 0.056239307 -0.010416586
f 99 96 78
f 85 96 78
f 85 97 80
f 85 99 96
f 85 97 103
f 85 99 103
f 77 99 83
f 102 97 103
f 90 77 83
f 90 83 103
f 81 86 101
f 61 60 68
f 98 83 103
f 98 99 103
f 98 99 83
f 38 76 46
f 41 12 34
f 41 12 76
f 41 58 80
f 41 76 80
f 64 85 78
f 75 76 80
f 75 85 80
f 75 85 76
f 84 99 78
f 84 77 78
f 84 77 99
f 105 102 103
f 105 102 101
f 105 100 101
f 66 77 69
f 66 90 77
f 66 42 69
f 91 100 101
f 91 81 101
f 91 81 90
f 91 105 100
f 91 90 103
f 71 81 86
f 10 53 67
f 10 44 67
f 10 3 23
f 62 61 74
f 62 80 74
f 48 61 58
f 4 12 34
f 4 12 76
f 51 42 69
f 51 77 69
f 9 38 25
f 9 38 8
f 9 16 25
f 9 16 8
f 37 38 46
f 28 37 46
f 28 38 8
f 28 37 38
f 65 64 85
f 65 76 46
f 65 85 76
f 92 88 101
f 95 102 101
f 95 88 101
f 55 53 90
f 55 66 90
f 104 105 103
f 104 91 103
f 104 91 105
f 79 71 67
f 79 71 81
f 79 53 67
f 79 81 90
f 79 53 90
f 59 71 67
f 59 71 60
f 59 60 68
f 73 61 60
f 73 61 74
f 73 82 88
f 33 10 34
f 49 61 58
f 49 62 61
f 49 58 80
f 49 62 80
f 39 48 58
f 39 36 45
f 24 4 34
f 24 4 3
f 24 10 34
f 24 10 3
f 21 20 23
f 1 5 25
f 1 16 25
f 1 16 22
f 6 5 20
f 6 4 3
f 6 4 25
f 6 5 25
f 70 77 78
f 70 51 78
f 52 64 78
f 52 51 78
f 52 28 8
f 52 42 8
f 52 51 42
f 52 28 46
f 52 65 46
f 52 65 64
f 40 41 58
f 40 39 58
f 40 39 45
f 89 95 88
f 89 82 88
f 89 80 74
f 89 102 97
f 89 95 102
f 89 73 74
f 89 73 82
f 56 55 53
f 56 10 23
f 56 10 53
f 72 71 60
f 72 73 60
f 72 71 86
f 72 73 86
f 87 73 86
f 87 73 88
f 29 10 44
f 29 36 44
f 47 59 67
f 47 59 68
f 47 39 36
f 47 39 48
f 47 61 68
f 47 48 61
f 35 44 67
f 35 36 44
f 27 32 66
f 26 4 76
f 26 38 76
f 26 4 25
f 18 17 55
f 18 56 20
f 18 56 55
f 18 1 22
f 18 14 17
f 18 5 20
f 18 1 5
f 18 16 22
f 18 14 16
f 2 21 20
f 2 6 20
f 2 6 3
f 2 3 23
f 2 21 23
f 63 51 77
f 63 70 77
f 63 70 51
f 31 40 45
f 31 40 41
f 31 41 34
f 93 97 80
f 93 89 80
f 93 89 97
f 19 20 23
f 19 56 23
f 19 56 20
f 94 92 88
f 94 87 88
f 94 87 86
f 94 86 101
f 94 92 101
f 30 33 34
f 30 36 45
f 30 29 36
f 30 33 10
f 30 29 10
f 30 31 34
f 30 31 45
f 57 47 67
f 57 47 36
f 57 35 67
f 57 35 36
f 43 66 42
f 43 27 66
f 15 27 32
f 15 43 27
f 15 16 8
f 15 14 16
f 15 42 8
f 15 43 42
f 11 38 25
f 11 26 25
f 11 26 38
f 13 14 17
f 13 15 14
f 50 13 17
f 7 32 66
f 7 50 66
f 7 50 13
f 7 15 32
f 7 13 15
f 54 55 66
f 54 50 66
f 54 17 55
f 54 50 17
