v -0.007870221 -0.083101645 -0.097006142
v 0.005912662 -0.063659199 -0.097256951
v 0.023366079 -0.078576088 -0.094583973
v 0.026018456 -0.076742247 -0.094487943
v 0.029917689 -0.072179973 -0.094487943
v 0.030862361 -0.070660047 -0.094519302
v 0.033086423 -0.065399483 -0.094720379
v -0.006558017 -0.081646577 -0.097454086
v -0.002991205 -0.077533543 -0.097790547
v 0.027570920 -0.075008355 -0.094948672
v -0.012736415 -0.105011694 -0.093349718
v -0.009061881 -0.100990802 -0.094903782
v -0.010243298 -0.085658282 -0.095778584
v 0.037783198 -0.062252272 -0.090443604
v -0.020925794 -0.105173968 -0.087859392
v 0.041564375 -0.065483920 -0.086090967
v 0.041954137 -0.072978444 -0.083383329
v 0.027654253 -0.089402460 -0.081667401
v -0.043005098 -0.150756240 -0.062113635
v -0.045177981 -0.145908430 -0.062672630
v -0.042565912 -0.151131600 -0.061800163
v -0.039760213 -0.060431100 -0.057697076
v -0.041827202 -0.065825909 -0.061333049
v -0.056907184 -0.124551684 -0.043403015
v 0.019080203 -0.132204369 -0.030618351
v 0.019183394 -0.132292554 -0.030325135
v -0.064205855 -0.132636607 -0.026995078
v -0.041560709 -0.051730871 -0.031490795
v -0.064439319 -0.132437080 -0.021550072
v -0.044084124 -0.149834022 -0.012951924
v 0.035463639 -0.131883979 -0.007269515
v -0.042431008 -0.151246890 -0.016247759
v -0.044846009 -0.051631711 -0.009485804
v -0.042759430 -0.147127807 0.008883716
v 0.033123627 -0.043947000 0.013275750
v -0.062867917 -0.119457230 0.012141784
v -0.061506364 -0.120620906 0.021661926
v 0.016178908 -0.144047603 0.035790004
v -0.059107553 -0.119796179 0.032773364
v -0.014841272 0.006903935 0.027107421
v 0.012210151 0.002572695 0.029829148
v 0.017246433 -0.001731657 0.030600451
v 0.015182712 0.000418535 0.030255167
v 0.015676482 -0.143618196 0.041193817
v -0.055781838 -0.118352078 0.038439285
v -0.024696153 0.005469759 0.031824544
v -0.019276707 0.007999249 0.032112848
v -0.013191759 0.009960113 0.032503057
v -0.013041473 0.009978763 0.032514948
v -0.006276007 0.009571717 0.033144496
v 0.000023635 0.008619546 0.033774048
v 0.011089919 0.004921709 0.035033144
v 0.015546337 0.001812975 0.035662692
v -0.013095872 0.009878162 0.032308739
v 0.010761138 0.003811121 0.030982178
v -0.050889488 -0.115372017 0.044127617
v -0.033944741 -0.000948642 0.036972273
v -0.031033695 0.003724779 0.036876407
v -0.025896542 0.006495694 0.037121464
v -0.014934297 0.011449406 0.037716947
v -0.012362695 0.011741935 0.037922416
v 0.003372888 0.010125628 0.039437305
v 0.006585479 0.008943226 0.039811064
v 0.019358436 -0.001080667 0.041699708
v 0.025481975 -0.023093117 0.043906678
v 0.021015063 -0.004952588 0.042139195
v 0.025776425 -0.018540243 0.043588359
v 0.006233237 0.007680978 0.035066929
v -0.033399403 -0.015737524 0.043619927
v -0.038157064 -0.025994180 0.042834360
v -0.038572036 -0.018478038 0.040411975
v -0.032103416 -0.002522365 0.040140498
v -0.028623339 0.001664723 0.040783640
v -0.013846095 0.010519354 0.040785614
v -0.009858181 0.007111009 0.042802271
v 0.005524838 0.008286424 0.043071233
v 0.017902441 -0.002292327 0.044444915
v 0.023123687 -0.021077564 0.046749774
v -0.018339677 -0.159772664 0.061328337
v -0.011705930 -0.163183779 0.062173456
v -0.005532314 -0.161298782 0.062577255
v -0.012179730 -0.159919217 0.067365408
v -0.007310367 -0.159779131 0.067785762
v -0.013311993 -0.161811128 0.064200565
v -0.015596758 -0.154625371 0.072143331
v -0.011480425 -0.156215116 0.072627880
v -0.009699170 -0.156047881 0.072772875
v -0.005423240 -0.154230595 0.073013850
v -0.010439188 -0.157105029 0.071705356
v -0.018586379 -0.148831367 0.076921239
v -0.007230714 -0.152685806 0.075417377
v -0.017272927 -0.146325588 0.082328707
v -0.010412113 -0.146621168 0.082958266
v -0.007405752 -0.145374805 0.083130062
v -0.014794767 -0.142457068 0.087736174
v -0.011639539 -0.141756326 0.087962419
v -0.006346078 -0.139118999 0.088231415
v -0.001394930 -0.136189193 0.088447988
v -0.016371652 -0.144873336 0.084548295
v -0.008673329 -0.144291446 0.084606051
v -0.007919513 -0.130612835 0.092929572
v -0.003747816 -0.128562659 0.093143702
v -0.002772811 -0.127850160 0.093176097
v 0.001899372 -0.113632269 0.092514157
v -0.000554297 -0.108261973 0.091890790
v 0.000694064 -0.123651788 0.093165360
v 0.000879032 -0.123149052 0.093143702
v 0.002191221 -0.117769882 0.092852958
v -0.014125353 -0.132470295 0.092020862
v -0.013255512 -0.140375197 0.089303620
v -0.009893768 -0.136086896 0.091284260
v -0.006463769 -0.131857008 0.092493221
v -0.001983284 -0.135686338 0.088944755
v 0.001482399 -0.131486952 0.089750528
v 0.003662412 -0.111865863 0.090859912
v 0.004275500 -0.119551249 0.091044188
v -0.010718176 -0.128220901 0.093487717
v -0.011471051 -0.120416045 0.094882913
v -0.007273023 -0.124003969 0.094525456
v -0.002994046 -0.127661079 0.093253352
v -0.008507272 -0.108626209 0.094248571
v -0.007972363 -0.116244860 0.095315762
v -0.003735435 -0.119866028 0.094518773
v -0.004362768 -0.112168387 0.094495893
v -0.000109629 -0.115803413 0.093515724
v -0.004742761 -0.104682222 0.091677845
v -0.000595375 -0.108226866 0.091892600
v 0.000546114 -0.123525336 0.093217589
f 79 39 29
f 35 31 17
f 35 31 67
f 27 24 23
f 22 2 23
f 20 24 23
f 20 15 23
f 20 27 24
f 121 77 76
f 121 75 76
f 45 56 70
f 45 99 39
f 80 79 32
f 90 79 39
f 30 32 29
f 30 79 32
f 7 14 2
f 7 10 6
f 7 6 17
f 64 77 76
f 41 14 43
f 65 31 67
f 65 116 67
f 65 116 31
f 78 77 67
f 44 116 31
f 54 14 2
f 54 40 2
f 57 22 23
f 13 15 23
f 13 1 23
f 74 121 75
f 74 75 76
f 37 39 29
f 37 36 29
f 83 80 81
f 82 83 80
f 92 99 39
f 92 90 39
f 92 90 79
f 34 79 29
f 34 30 29
f 34 30 79
f 8 2 23
f 8 1 23
f 5 6 17
f 5 10 17
f 5 10 6
f 66 77 67
f 66 64 77
f 16 64 42
f 16 66 64
f 16 7 17
f 16 7 14
f 16 66 67
f 16 35 17
f 16 35 67
f 53 64 42
f 53 14 43
f 53 41 43
f 53 16 14
f 53 16 42
f 55 68 14
f 55 41 14
f 38 31 81
f 38 44 81
f 38 44 31
f 4 10 3
f 50 54 14
f 48 40 47
f 48 54 40
f 58 57 22
f 72 58 57
f 33 27 23
f 33 27 29
f 33 36 29
f 11 20 15
f 11 13 15
f 11 13 1
f 115 78 77
f 115 104 77
f 115 78 67
f 115 116 67
f 108 115 116
f 108 115 104
f 124 121 122
f 95 45 99
f 95 109 45
f 118 45 56
f 118 109 45
f 118 56 70
f 118 121 122
f 118 119 122
f 86 95 99
f 86 92 99
f 86 92 82
f 84 92 82
f 84 80 79
f 84 82 80
f 9 8 2
f 9 7 2
f 9 7 10
f 63 64 76
f 63 53 64
f 123 119 122
f 123 124 122
f 117 109 111
f 117 118 109
f 117 118 119
f 114 44 116
f 114 106 116
f 51 68 14
f 51 50 14
f 49 50 54
f 49 48 54
f 49 50 61
f 46 58 22
f 46 22 2
f 46 40 2
f 46 40 47
f 60 48 47
f 60 74 61
f 60 49 61
f 60 49 48
f 69 72 121
f 71 72 57
f 71 69 72
f 71 69 121
f 71 37 39
f 71 37 36
f 71 33 36
f 71 33 57
f 71 118 70
f 71 118 121
f 71 45 39
f 71 45 70
f 73 74 121
f 73 72 121
f 73 58 74
f 73 72 58
f 28 57 23
f 28 33 23
f 28 33 57
f 21 26 31
f 21 80 32
f 21 31 81
f 21 32 29
f 21 27 29
f 21 80 81
f 12 8 1
f 12 11 1
f 12 9 10
f 12 9 8
f 12 10 3
f 126 121 77
f 126 127 77
f 126 124 121
f 126 124 127
f 105 124 104
f 105 124 127
f 105 104 77
f 105 127 77
f 93 95 96
f 110 96 111
f 110 95 96
f 110 109 111
f 110 95 109
f 89 86 95
f 89 93 87
f 89 93 95
f 89 83 87
f 89 82 83
f 89 86 82
f 85 92 79
f 85 84 79
f 85 84 92
f 62 63 76
f 62 74 61
f 62 74 76
f 62 50 61
f 62 51 50
f 62 63 68
f 62 51 68
f 52 55 41
f 52 53 41
f 52 63 53
f 52 55 68
f 52 63 68
f 125 123 108
f 125 123 124
f 125 108 104
f 125 124 104
f 88 44 81
f 88 114 44
f 88 83 81
f 88 114 98
f 59 58 74
f 59 60 74
f 59 46 58
f 59 46 47
f 59 60 47
f 19 11 20
f 19 21 11
f 19 20 27
f 19 21 27
f 25 21 26
f 25 26 31
f 18 21 11
f 18 12 11
f 18 25 21
f 18 12 3
f 18 25 31
f 18 4 3
f 18 4 10
f 18 31 17
f 18 10 17
f 94 88 98
f 120 102 119
f 120 123 119
f 120 128 123
f 107 123 108
f 107 128 123
f 107 128 106
f 107 106 116
f 107 108 116
f 113 98 111
f 113 112 111
f 113 114 98
f 101 117 119
f 101 102 119
f 101 112 102
f 101 117 111
f 101 112 111
f 97 94 98
f 97 98 111
f 97 96 111
f 91 94 88
f 91 83 87
f 91 88 83
f 91 93 87
f 91 94 93
f 103 120 102
f 103 113 114
f 103 114 106
f 103 112 102
f 103 113 112
f 103 128 106
f 103 120 128
f 100 97 96
f 100 97 94
f 100 93 96
f 100 94 93
