v -0.127784923 0.008603172 -0.038786735
v -0.127155378 0.014010639 -0.038395967
v -0.126525834 0.019418165 -0.037766483
v -0.125266731 0.030233100 -0.034587886
v -0.124637187 0.035640568 -0.034607377
v -0.124007627 0.041048091 -0.034428801
v -0.128414482 0.003195705 -0.038947847
v -0.118452556 0.041686416 -0.026452150
v -0.119760633 -0.036177233 -0.031896200
v -0.106155001 0.006084974 -0.004139569
v -0.105525456 0.011492441 -0.003083434
v -0.111304112 -0.038143054 -0.021008160
v -0.115701616 -0.036649793 -0.026452150
v -0.111549765 -0.037133157 -0.021008160
v -0.106610201 0.011618730 -0.004676189
v -0.105977550 0.022506656 -0.004676189
v -0.102053650 0.043972928 -0.004676189
v -0.106110208 0.000598999 -0.004676189
v -0.104153760 -0.070878834 -0.036681857
v -0.085720278 0.040377360 0.022543821
v -0.099117585 -0.074698105 -0.037340190
v -0.098890439 -0.072747074 -0.031896200
v -0.093707770 -0.075307526 -0.042784180
v -0.074710757 0.040789615 0.035159979
v -0.083153374 -0.078804500 -0.038925137
v -0.082713425 -0.075025581 -0.010120120
v -0.077745907 -0.079434052 -0.040007915
v -0.058859430 0.082790375 -0.008829799
v -0.060235053 0.082950525 -0.021008160
v -0.060683709 0.083002761 -0.015564170
v -0.059330583 0.082845226 -0.010120120
v -0.073130414 -0.025163673 0.033431862
v -0.074259602 -0.019551450 0.033431862
v -0.071708836 -0.074656136 0.007982884
v -0.073060483 -0.074498773 0.006211851
v -0.037487920 0.030975301 0.073407091
v -0.039635047 -0.034544028 0.073608436
v -0.046014983 -0.066685885 -0.059116211
v -0.031377204 0.074110024 -0.070004188
v -0.036745779 -0.056803502 0.058048401
v -0.034227580 -0.035173576 0.074906744
v -0.038634427 -0.073025964 -0.054163899
v -0.041411173 -0.056260347 0.055207882
v -0.028019771 -0.028928621 -0.075448237
v -0.023412647 -0.036432672 0.076053001
v -0.006673233 0.060272418 0.099048711
v -0.006488356 0.061860409 0.098759927
v -0.022239048 -0.053011645 -0.075448237
v -0.001895314 0.054235402 0.100927271
v -0.000952829 0.062330823 0.098759927
v -0.011223451 -0.037851762 0.076983906
v -0.007448662 -0.087618187 -0.037741151
v -0.001153171 -0.033543400 0.080546536
v 0.004254355 -0.034172956 0.080456056
v 0.005513458 -0.023357963 0.085894145
v 0.015586242 0.063161686 0.099065341
v 0.009661823 -0.034802504 0.080021121
v 0.009994590 -0.031944215 0.082427897
v 0.010291370 -0.029395036 0.084183075
v 0.010920924 -0.023987511 0.086866893
v 0.020364162 0.057124671 0.102147497
v 0.015659204 -0.030365013 0.082427897
v 0.025771629 0.056495123 0.102473415
v 0.014810813 -0.084728919 -0.041051175
v 0.030291131 0.001161233 -0.077673040
v 0.036586620 0.055236023 0.100811161
v 0.018515574 -0.079679474 -0.048228230
v 0.035698596 0.000531685 -0.077344500
v 0.041994087 0.054606475 0.099419393
v 0.041106064 -0.000097862 -0.075718723
v 0.040696628 -0.003614685 -0.075448237
v 0.041308820 0.001643705 -0.075448237
v 0.042071540 -0.085958377 -0.037340190
v 0.047987755 -0.082218558 -0.042784180
v 0.060217794 -0.024245987 0.075187720
v 0.063365541 0.002791407 -0.065455280
v 0.051902473 -0.078085624 -0.048228230
v 0.059959318 -0.073542856 -0.050625291
v 0.066826209 -0.003092251 -0.064560197
v 0.065376192 0.002557323 -0.064560197
v 0.088401690 0.076607473 -0.038949694
v 0.071403861 -0.069394492 0.045637045
v 0.069889255 -0.074698918 -0.048228230
v 0.076583438 -0.071981467 0.038875852
v 0.073864646 -0.069680981 0.044319902
v 0.100475721 0.086163372 0.013500068
v 0.105883189 0.085533820 0.010386143
v 0.104166612 0.085733667 0.011655841
v 0.084833547 -0.076438762 -0.042784180
v 0.111752309 0.088869572 -0.004676189
v 0.111628726 0.087808087 -0.015564170
v 0.111747146 0.088825226 -0.010120120
v 0.116081610 0.078978673 -0.026452150
v 0.112836137 0.084724344 -0.026452150
v 0.117722906 0.073193841 -0.026452150
v 0.116128430 0.078860231 -0.026452150
v 0.122076772 -0.057833508 -0.026452150
v 0.124218494 -0.070062511 0.006211851
v 0.130576253 -0.059841115 -0.021008160
v 0.137770355 -0.064264402 -0.015564170
v 0.141329974 -0.033689223 0.018613551
v 0.142712250 -0.068892933 -0.004676189
v 0.142609552 -0.069775082 -0.010120120
v 0.143167689 -0.033903174 0.017099891
v 0.150583208 -0.048363060 -0.004676189
v 0.144089356 -0.066895157 -0.004676189
v 0.158181980 -0.030170407 0.003142331
v 0.160070628 -0.013947947 0.004309092
v 0.169255391 0.017867366 -0.003206518
v 0.172403142 0.044904761 -0.001241174
v 0.172663778 0.047143470 0.000767861
v 0.167996302 0.007052433 -0.001938131
f 44 48 7
f 73 84 52
f 89 73 103
f 101 104 111
f 97 89 79
f 97 109 79
f 65 48 68
f 65 44 48
f 98 73 103
f 98 73 84
f 102 98 103
f 102 101 104
f 102 98 84
f 102 85 101
f 102 85 84
f 80 76 79
f 64 73 52
f 64 67 52
f 78 83 48
f 77 83 89
f 77 78 83
f 77 67 48
f 77 78 48
f 72 76 79
f 72 70 79
f 72 70 68
f 71 83 89
f 71 89 79
f 71 70 79
f 71 70 68
f 71 48 68
f 71 83 48
f 100 109 103
f 100 89 103
f 28 8 17
f 56 61 63
f 56 28 86
f 56 28 50
f 20 37 24
f 20 37 33
f 20 8 17
f 15 4 7
f 15 10 7
f 18 10 33
f 18 10 7
f 36 46 24
f 36 37 24
f 36 37 46
f 49 37 46
f 49 60 63
f 49 61 63
f 32 37 33
f 110 80 79
f 110 109 79
f 6 28 8
f 6 20 8
f 21 25 26
f 27 25 52
f 34 84 52
f 34 25 52
f 34 25 26
f 69 101 111
f 69 56 86
f 106 102 103
f 106 102 104
f 74 77 67
f 74 64 73
f 74 64 67
f 74 89 73
f 74 77 89
f 99 97 109
f 99 100 109
f 99 97 89
f 99 100 89
f 47 28 50
f 47 28 17
f 47 49 46
f 47 49 61
f 47 56 61
f 47 56 50
f 47 20 17
f 47 46 24
f 47 20 24
f 90 28 86
f 90 92 30
f 90 92 111
f 90 87 111
f 11 10 33
f 11 20 33
f 11 15 10
f 16 15 4
f 16 6 4
f 16 6 20
f 16 11 20
f 16 11 15
f 41 49 37
f 41 45 60
f 41 37 40
f 41 45 40
f 5 4 7
f 5 3 7
f 5 6 4
f 5 6 3
f 31 6 30
f 31 6 28
f 31 90 30
f 31 90 28
f 22 26 19
f 22 21 19
f 22 21 26
f 23 21 25
f 23 27 25
f 23 21 19
f 23 48 7
f 23 19 7
f 42 27 52
f 42 67 52
f 42 67 48
f 42 23 27
f 43 37 40
f 43 34 40
f 43 34 37
f 82 85 84
f 82 34 84
f 82 34 40
f 35 26 19
f 35 34 26
f 51 45 40
f 51 82 40
f 51 82 57
f 75 85 101
f 75 69 101
f 75 82 85
f 75 69 60
f 88 87 111
f 88 69 111
f 88 69 86
f 88 90 86
f 88 90 87
f 66 56 63
f 66 69 56
f 66 60 63
f 66 69 60
f 107 106 104
f 107 106 103
f 55 49 60
f 55 41 60
f 55 41 49
f 12 34 37
f 12 32 37
f 12 35 34
f 12 35 19
f 29 92 30
f 29 6 30
f 81 72 68
f 2 3 7
f 38 23 48
f 38 42 48
f 38 42 23
f 59 45 60
f 108 104 111
f 108 107 104
f 112 110 111
f 112 110 109
f 112 108 111
f 112 108 107
f 112 109 103
f 14 32 33
f 14 12 32
f 94 110 111
f 39 81 68
f 39 65 68
f 39 94 81
f 39 65 44
f 39 29 6
f 39 44 7
f 39 2 3
f 39 6 3
f 58 82 57
f 58 59 82
f 58 59 51
f 62 75 82
f 62 59 82
f 62 75 60
f 62 59 60
f 53 51 45
f 53 59 45
f 53 59 51
f 105 107 103
f 105 112 103
f 105 112 107
f 9 18 7
f 9 19 7
f 9 12 19
f 13 18 33
f 13 14 33
f 13 9 18
f 13 14 12
f 13 9 12
f 95 110 80
f 93 81 72
f 93 94 81
f 93 72 76
f 93 80 76
f 93 94 110
f 91 39 94
f 91 92 111
f 91 94 111
f 91 29 92
f 91 39 29
f 1 2 7
f 1 39 7
f 1 39 2
f 54 51 57
f 54 58 57
f 54 58 51
f 96 95 80
f 96 93 80
f 96 95 110
f 96 93 110
