v 0.034569412 0.024382697 0.017113728
v 0.034757569 0.025288412 0.016567675
v 0.035290927 0.029790165 0.014562928
v 0.022619538 0.012938150 0.029791249
v 0.032848522 0.034717444 0.009229279
v 0.014698503 0.023195595 0.030231556
v 0.016470442 0.028531069 0.025843574
v 0.016794886 0.028991031 0.025162227
v 0.014737218 0.023127807 0.030253490
v 0.020193387 0.023498815 0.027087528
v 0.017229371 0.028582972 0.025408370
v 0.028883887 0.021515451 -0.005530600
v 0.027538698 0.034795199 -0.006292670
v 0.029041246 0.022494048 -0.006039502
v 0.028481355 0.027901515 -0.006328396
v 0.012369192 -0.004543405 0.029775677
v 0.009292777 0.029483881 0.027169133
v 0.029362321 0.022571329 -0.005259561
v 0.028717412 0.027965797 -0.005624912
v 0.025389366 0.027271960 -0.011841040
v 0.005450638 -0.006154338 0.031249397
v 0.004213852 0.032545980 0.024291847
v 0.011272166 -0.004737644 0.009519738
v 0.022750309 0.021234952 -0.016875751
v 0.022067405 0.026642419 -0.016947504
v 0.020032736 0.037457354 -0.015910348
v 0.022284834 0.018998848 -0.015525955
v 0.024337251 0.021539887 -0.014363230
v 0.023608582 0.026923146 -0.014776031
v 0.006708588 -0.006763069 0.006934404
v -0.010696116 0.032602828 0.028358914
v 0.009096312 -0.006432056 0.002641461
v 0.009346097 -0.006309916 0.002171699
v 0.017686281 0.017318705 -0.018131103
v 0.018538889 0.020605398 -0.020412399
v 0.017865680 0.026012864 -0.020501265
v 0.015706472 0.036863439 -0.019252695
v -0.010616177 -0.006432056 0.037437528
v -0.014492183 -0.007061596 0.033309054
v 0.010806779 0.036198258 -0.021565761
v 0.004578375 -0.006318991 -0.000529287
v 0.006281445 -0.001654070 -0.004637327
v -0.033907227 -0.002283625 0.055332303
v 0.001165211 -0.002283625 -0.006576818
v 0.007346242 0.019346302 -0.022596253
v 0.006747012 0.024753770 -0.022815706
v 0.005194790 0.035568703 -0.022630155
v -0.033576198 0.008933114 0.059195396
v -0.032828480 0.019635687 0.053362098
v -0.032252967 0.003629410 0.059945025
v -0.021173295 0.029531682 0.014220868
v -0.004484267 -0.002913180 -0.007575036
v 0.001194162 0.018716747 -0.022707291
v 0.000785872 0.024124214 -0.023263786
v -0.000830516 0.034939148 -0.022964971
v -0.034533307 -0.005760159 0.046139326
v -0.036164626 -0.003542721 0.037376147
v -0.006481514 0.018087206 -0.020128667
v -0.000625244 0.018558808 -0.022247963
v -0.001682668 0.023898078 -0.022847008
v -0.007745614 -0.003239868 -0.007511009
v -0.037025679 0.004163696 0.025956610
v -0.018872764 -0.009579801 -0.002840429
v -0.034075540 0.007435808 0.008857230
v -0.031425793 0.007768125 0.004101459
v -0.022389639 -0.009962031 -0.003293213
v -0.030005863 -0.005141255 -0.001351092
v -0.033824820 0.000187565 0.002742373
f 64 68 62
f 57 68 62
f 48 57 62
f 23 33 16
f 5 26 31
f 55 26 31
f 55 58 68
f 67 58 66
f 67 58 68
f 67 57 68
f 67 56 66
f 67 57 56
f 39 56 66
f 39 21 66
f 30 21 66
f 32 33 16
f 32 21 16
f 32 30 21
f 43 57 56
f 43 48 57
f 43 21 16
f 49 64 62
f 49 48 62
f 61 52 66
f 60 55 54
f 60 55 58
f 65 64 68
f 65 55 68
f 65 55 64
f 13 5 26
f 53 60 54
f 53 61 52
f 53 61 66
f 63 30 66
f 63 32 30
f 63 32 33
f 63 52 66
f 38 43 56
f 38 43 21
f 38 39 56
f 38 39 21
f 51 55 64
f 51 49 64
f 51 55 31
f 51 49 31
f 1 4 3
f 1 4 16
f 1 23 16
f 1 23 33
f 1 12 33
f 9 49 48
f 9 4 48
f 34 42 44
f 34 42 33
f 41 44 52
f 41 63 52
f 41 63 33
f 41 42 33
f 41 42 44
f 37 55 26
f 47 40 46
f 47 55 54
f 47 46 54
f 47 37 55
f 47 37 40
f 36 46 35
f 36 40 46
f 36 37 40
f 36 37 26
f 59 60 58
f 59 53 60
f 59 58 66
f 59 53 66
f 45 46 35
f 45 34 35
f 45 46 54
f 45 53 54
f 45 53 52
f 45 44 52
f 45 34 44
f 50 4 48
f 50 43 48
f 50 4 16
f 50 43 16
f 22 49 31
f 22 17 49
f 22 5 31
f 2 1 3
f 7 17 49
f 10 4 3
f 10 9 4
f 29 13 26
f 27 34 35
f 27 12 33
f 27 34 33
f 6 9 49
f 6 7 49
f 6 10 9
f 8 22 17
f 8 7 17
f 8 22 5
f 8 5 3
f 25 36 26
f 25 29 26
f 11 6 7
f 11 6 10
f 11 10 3
f 11 8 3
f 11 8 7
f 20 15 14
f 20 29 13
f 20 15 13
f 18 15 14
f 18 2 3
f 18 14 12
f 18 1 12
f 18 2 1
f 19 13 5
f 19 15 13
f 19 5 3
f 19 18 3
f 19 18 15
f 24 27 35
f 24 25 29
f 24 36 35
f 24 25 36
f 28 27 12
f 28 24 27
f 28 14 12
f 28 20 14
f 28 20 29
f 28 24 29
