v -0.221600309 0.017787939 -0.037876945
v -0.215563223 0.022565911 -0.043299060
v -0.219978288 0.012118341 -0.036140304
v -0.199539080 0.018973762 -0.008920293
v -0.196307659 0.031285662 -0.052472334
v -0.187576130 0.027575575 -0.079692341
v -0.171939403 0.020655705 -0.085136272
v -0.169327915 0.043086968 -0.052472334
v -0.175392345 0.023369901 -0.085136272
v -0.169867977 0.044649843 -0.047028285
v -0.141515449 -0.047556702 -0.014364224
v -0.142635182 -0.057174575 0.012080450
v -0.147301316 -0.051150572 -0.003476243
v -0.145046175 -0.056893881 0.007411737
v -0.137227714 -0.057804123 0.020634074
v -0.142229512 -0.057221804 0.012855787
v -0.110561393 -0.017062465 0.120107494
v -0.110249177 -0.014380726 0.121735834
v -0.119062282 -0.048957456 -0.019808274
v -0.104897223 -0.015487649 0.127179876
v -0.106217362 -0.017568206 -0.079692341
v -0.095429070 -0.028314821 -0.068804242
v -0.089948393 -0.028315555 0.132623807
v -0.084486790 -0.028480051 0.138067856
v -0.075263180 0.003668401 0.170731857
v -0.077761546 0.017484294 0.165287867
v -0.077641346 0.006508781 0.170731857
v -0.065168776 0.043297086 -0.139576301
v -0.070096858 0.000967575 0.170731857
v -0.065347604 0.043442901 -0.139576301
v -0.077388048 -0.026405390 0.148955837
v -0.059897099 0.041501146 -0.139576301
v -0.067659020 -0.025169456 0.159843817
v -0.062613510 0.018168665 0.165287867
v -0.054316290 0.042360537 0.132623807
v -0.048645508 0.043992192 0.132623807
v -0.055856995 -0.017950496 0.165199056
v -0.053412512 -0.044030454 0.132623807
v -0.050078690 -0.015394769 0.165287867
v -0.044041440 -0.057691526 0.011858005
v -0.039507534 0.007549929 0.170731857
v 0.016438829 0.077767365 0.067295812
v 0.017335249 0.077663004 0.072739802
v 0.019090906 0.077458605 0.078183793
v 0.026550412 0.077884935 0.089071773
v 0.026401687 0.076607473 0.098350309
v 0.022833547 -0.076438762 0.094515823
v 0.044358667 0.042541195 -0.145020351
v 0.039388400 0.042210914 -0.145020351
v 0.060782183 0.042379487 -0.145020351
v 0.066340066 0.043041967 -0.145020351
v 0.065254644 0.033718754 -0.136035666
v 0.065397911 -0.059204593 0.116291843
v 0.099199705 0.042826839 -0.139576301
v 0.104424372 0.040627182 -0.139576301
v 0.107255392 0.017867366 0.134093478
v 0.110403143 0.044904761 0.136058822
v 0.109680243 0.017585061 0.132623807
v 0.118699938 0.022015732 0.129351690
v 0.121218130 0.043645658 0.130547300
v 0.126884937 0.045243692 0.127179876
v 0.134327397 0.047600213 0.121735834
v 0.149004981 0.046935245 0.110847853
v 0.154292539 0.045275833 0.106585048
v 0.142960653 -0.052058812 0.008036155
v 0.195768207 -0.008879807 -0.090580322
v 0.193465248 -0.014092451 -0.079692341
v 0.226219967 0.004017282 -0.096690632
v 0.226391181 0.005487987 -0.096024252
v 0.236034274 0.041240122 -0.066571213
v 0.236441806 0.046673436 -0.057916265
v 0.239943698 -0.019334100 -0.052472334
v 0.245742038 -0.016606206 -0.047028285
v 0.251998276 -0.009945397 -0.039399486
v 0.259923995 0.011054975 -0.039657813
v 0.258035332 -0.005167485 -0.039114457
v 0.264072359 -0.000389566 -0.040626626
v 0.264701903 0.005017901 -0.041376930
f 75 71 78
f 34 46 57
f 10 46 35
f 18 27 1
f 18 17 27
f 15 17 23
f 20 17 27
f 26 34 46
f 26 4 35
f 26 34 27
f 26 27 1
f 26 4 1
f 38 15 47
f 70 71 78
f 66 68 72
f 40 14 47
f 65 40 47
f 2 6 1
f 2 10 35
f 2 4 1
f 2 4 35
f 44 46 45
f 44 10 46
f 3 6 1
f 3 7 6
f 3 18 1
f 3 18 17
f 3 11 7
f 64 75 78
f 64 75 71
f 77 64 78
f 77 64 59
f 77 68 78
f 77 68 72
f 33 38 47
f 53 77 59
f 53 33 37
f 53 33 47
f 53 65 47
f 41 34 27
f 41 34 57
f 36 46 35
f 36 26 35
f 36 26 46
f 73 65 72
f 73 77 72
f 73 53 74
f 73 53 65
f 67 66 22
f 67 65 22
f 67 66 72
f 67 65 72
f 19 65 22
f 19 65 40
f 19 40 14
f 19 11 22
f 19 11 14
f 5 10 6
f 5 2 6
f 5 2 10
f 43 44 45
f 43 44 10
f 8 10 6
f 21 11 22
f 21 11 7
f 16 15 17
f 16 3 17
f 16 14 47
f 16 15 47
f 13 11 14
f 13 3 14
f 13 3 11
f 29 33 37
f 29 41 37
f 24 15 23
f 24 38 15
f 76 53 74
f 76 53 77
f 76 73 74
f 76 73 77
f 56 59 57
f 56 41 57
f 39 53 37
f 39 41 37
f 39 56 53
f 39 56 41
f 55 66 68
f 9 7 6
f 52 66 22
f 42 43 10
f 42 71 45
f 42 43 45
f 28 21 7
f 28 9 7
f 12 3 14
f 12 16 14
f 12 16 3
f 60 59 57
f 60 61 57
f 60 61 59
f 63 64 59
f 63 61 59
f 63 46 45
f 63 71 45
f 63 64 71
f 62 46 57
f 62 61 57
f 62 63 46
f 62 63 61
f 25 33 27
f 25 29 33
f 31 33 38
f 31 24 38
f 31 24 23
f 31 17 23
f 31 20 17
f 31 20 27
f 31 33 27
f 58 53 59
f 58 56 59
f 58 56 53
f 69 55 68
f 69 55 70
f 69 68 78
f 69 70 78
f 54 70 71
f 54 55 70
f 54 55 51
f 54 42 71
f 54 42 51
f 49 21 22
f 49 52 22
f 30 9 6
f 30 28 9
f 30 8 6
f 30 8 10
f 30 42 10
f 30 42 51
f 30 49 28
f 32 28 21
f 32 49 21
f 32 49 28
f 50 49 52
f 50 52 66
f 50 55 66
f 50 55 51
f 48 30 51
f 48 30 49
f 25 29 41
f 25 41 27
f 48 50 49
f 48 50 51
