v -0.139510438 0.047728669 -0.090464398
v -0.134841338 0.040756389 -0.075769112
v -0.122711048 0.050795518 -0.090464398
v -0.125285506 0.028682360 -0.079945728
v -0.115466908 0.018864736 -0.068688318
v -0.110322148 0.015978716 -0.075527474
v -0.105061568 0.015366269 -0.079576299
v -0.094970390 0.053688433 -0.095908329
v -0.101981618 0.015007696 0.029303746
v -0.100716099 -0.007062739 0.029303746
v -0.099945545 -0.007152448 0.034747675
v -0.083284751 0.012830971 -0.087979242
v -0.077877283 0.012201423 -0.088499948
v -0.065487050 0.032682028 0.127295807
v -0.058369335 0.038533315 0.143627837
v -0.057877529 0.042757634 0.148918942
v -0.057247978 0.048165161 0.152971700
v -0.053419311 0.033974584 0.143627837
v -0.048321690 0.030683605 0.143157378
v 0.001233653 0.079721995 0.006113725
v 0.006641120 0.079092450 0.005021529
v -0.008468060 -0.050687052 0.093899980
v 0.003428611 0.051498767 -0.090464398
v 0.008835647 0.050865009 -0.090464398
v 0.012048647 0.078462899 0.001360731
v 0.011453521 0.078532182 0.002083736
v 0.001087831 -0.062761150 0.088310435
v 0.014308368 0.050795954 0.106414929
v 0.036029018 -0.045096371 0.094631746
v 0.041502394 0.042149212 -0.090464398
v 0.052160695 0.046389114 0.084760442
v 0.049642500 0.024759185 0.086256698
v 0.036255147 -0.044932295 0.094631746
v 0.058197770 0.051167026 -0.073236629
v 0.052548848 0.007978542 0.083743766
v 0.052385673 0.046362922 -0.085020348
v 0.061537094 0.050778255 0.078299716
v 0.077939056 0.032426424 -0.056416079
v 0.079198152 0.043241359 -0.053371713
v 0.079827696 0.048648827 -0.050487086
v 0.063459411 -0.091945671 0.065550759
v 0.069125362 -0.043278348 0.065777019
v 0.067433760 -0.043081410 0.067411736
v 0.078471437 0.048806727 -0.052356288
v 0.068671390 -0.094254382 0.056523755
v 0.085439846 0.049777366 0.051079705
v 0.068666041 -0.094300330 -0.057800338
v 0.067253768 -0.097868174 -0.025136275
v 0.067095235 -0.092368960 0.061967686
v 0.065930776 -0.097714148 0.029303746
v 0.066615418 -0.097793862 0.034747675
v 0.083717592 -0.012092524 -0.050501034
v 0.084347136 -0.006685057 -0.050626680
v 0.090734489 0.048178755 0.045635775
v 0.068958327 -0.098066628 -0.008804245
v 0.082512654 -0.011952243 -0.052356288
v 0.069156431 -0.098089688 0.051079705
v 0.086471170 -0.006932341 -0.046912357
v 0.086481377 -0.001452769 -0.046912357
v 0.092079148 0.052703310 -0.030580325
v 0.086278148 -0.023352209 0.040191725
v 0.087264463 -0.017986218 0.040191725
v 0.087987497 -0.012589634 0.040191725
v 0.087322265 -0.001550666 0.045635775
v 0.089088030 0.020166861 0.045635775
v 0.095299587 0.052328378 0.029303746
v 0.099684589 0.051817868 0.002083736
v 0.106865093 0.045501083 -0.005751772
v 0.098435692 -0.019286795 -0.008804245
v 0.101787917 -0.008715546 -0.008804245
v 0.101459883 -0.003196596 -0.014248295
v 0.102355860 0.002179913 -0.014248295
v 0.107063025 0.034516517 -0.008804245
f 20 17 1
f 9 17 1
f 9 11 1
f 9 11 17
f 13 30 47
f 8 13 1
f 8 13 30
f 55 48 47
f 10 6 47
f 10 48 47
f 10 27 11
f 50 10 27
f 50 10 48
f 63 70 73
f 7 6 47
f 7 4 6
f 7 4 1
f 36 30 47
f 3 20 1
f 3 8 1
f 3 8 20
f 69 70 47
f 69 55 47
f 69 70 57
f 69 55 57
f 16 11 17
f 22 27 11
f 22 15 11
f 22 16 27
f 5 4 6
f 5 10 6
f 5 10 4
f 2 4 1
f 2 10 4
f 2 11 1
f 2 10 11
f 51 27 57
f 51 50 27
f 51 55 57
f 51 55 48
f 51 50 48
f 37 32 33
f 41 27 57
f 41 49 57
f 64 65 73
f 64 63 73
f 12 13 47
f 12 7 47
f 12 13 1
f 12 7 1
f 56 53 47
f 56 36 47
f 56 36 53
f 24 8 30
f 24 36 30
f 72 58 47
f 72 70 73
f 72 58 73
f 52 53 47
f 52 58 47
f 52 58 53
f 14 15 11
f 14 16 11
f 14 16 15
f 19 16 17
f 19 16 27
f 18 16 15
f 18 22 15
f 18 22 16
f 62 63 70
f 62 61 70
f 62 64 63
f 62 64 49
f 45 49 57
f 45 70 57
f 45 61 70
f 45 62 49
f 45 62 61
f 31 37 17
f 31 37 32
f 31 33 17
f 31 32 33
f 42 64 65
f 42 64 49
f 42 54 65
f 42 54 37
f 42 41 49
f 21 37 20
f 28 20 17
f 28 37 17
f 28 37 20
f 29 41 27
f 29 41 33
f 29 19 27
f 29 33 17
f 29 19 17
f 68 60 73
f 68 60 67
f 68 65 73
f 68 54 65
f 39 60 73
f 23 24 8
f 71 70 47
f 71 72 47
f 71 72 70
f 66 68 54
f 66 68 67
f 35 37 33
f 34 24 36
f 34 23 24
f 38 36 53
f 38 39 36
f 44 39 36
f 44 34 36
f 44 34 60
f 59 39 73
f 59 58 73
f 59 58 53
f 59 38 53
f 59 38 39
f 46 54 37
f 46 66 37
f 46 66 54
f 25 66 67
f 25 60 67
f 25 34 60
f 25 34 23
f 25 21 20
f 25 8 20
f 25 23 8
f 43 42 37
f 43 35 37
f 43 35 33
f 43 41 33
f 43 42 41
f 40 39 60
f 40 44 60
f 40 44 39
f 26 25 21
f 26 25 66
f 26 21 37
f 26 66 37
