v -0.042707447 -0.062042996 0.022440957
v -0.043005098 -0.062113553 0.021856464
v 0.007754148 -0.038007051 0.136242792
v 0.005054586 -0.037832629 0.141707048
v 0.007737131 -0.037963506 0.136838332
v -0.000444400 -0.032652337 0.144168615
v 0.018108513 -0.031977773 0.131379604
v 0.026404785 -0.032599665 0.113451727
v 0.014407292 -0.036656559 0.128216311
v 0.019080203 -0.030618340 0.003304477
v 0.017132424 -0.031228403 -0.002481588
v 0.007068874 -0.034671992 -0.006961215
v 0.011236449 -0.034685336 -0.003399319
v 0.015358678 -0.034186322 0.000123820
v -0.046664521 -0.022747006 0.111827165
v 0.027745139 -0.014488488 0.133945271
v 0.022526758 -0.025151385 -0.000911281
v -0.046126518 -0.023269663 0.112286985
v -0.041682083 -0.026411267 0.116085514
v -0.029649545 -0.021138620 0.126369327
v -0.016236711 -0.032464851 -0.005395500
v -0.008568170 -0.032071117 -0.006002838
v 0.022281097 -0.025361530 -0.001121237
v -0.048828222 -0.017894812 0.106049106
v 0.019674808 -0.008731360 0.147040993
v 0.033780742 -0.009821297 0.116128407
v 0.035064612 -0.010166390 0.110064216
v -0.037474032 -0.024190659 0.009534664
v -0.050213672 -0.012487343 0.106701151
v 0.013602945 -0.006233098 0.149012953
v -0.050457098 -0.006885570 0.108585708
v 0.029122526 -0.008240662 -0.002435545
v 0.033760186 -0.007709818 -0.000843883
v 0.035463639 -0.007269504 0.002984002
v 0.032934707 -0.011619814 0.000822619
v -0.045439459 -0.007968174 0.015947577
v 0.033064283 -0.002302293 -0.000998646
v 0.034207661 -0.001981040 0.001910539
v 0.021649793 0.012410784 0.134406060
v 0.024567490 0.012315917 0.129738256
v -0.045331843 -0.002560711 0.014852670
v 0.027804952 -0.000734643 -0.003561663
v 0.031655777 0.002830999 -0.000270495
v -0.045200411 0.002846752 0.013729896
v -0.044982642 0.005471948 0.013004672
v -0.040986750 0.013843007 0.009258327
v 0.023429548 0.018698083 -0.001924500
v -0.038662020 0.013984790 0.004083800
v -0.035278644 0.015720539 -0.000185941
v -0.003000617 0.038206231 0.141983643
v 0.016406048 0.028883461 -0.003967618
v 0.017804436 0.025220932 -0.004947485
v -0.048940443 0.037439104 0.113136426
v -0.049251031 0.037145343 0.109616339
v -0.018499963 0.041846029 0.135780364
v -0.007660605 0.043105144 0.139743805
v 0.005447678 0.043897439 0.134881318
v 0.010306518 0.044099867 0.131872609
v 0.013060219 0.043979891 0.127064705
v 0.017420307 0.035550077 0.010522535
v 0.017341580 0.035426408 0.008979768
v -0.028766096 0.029176023 -0.001781320
v -0.048170388 0.042846564 0.111266434
v -0.048182726 0.042789716 0.110529363
v -0.046771079 0.043476138 0.117952123
v -0.022127697 0.046780113 0.132797763
v 0.010994623 0.049144298 0.125299290
v 0.011129715 0.049142107 0.125112250
v 0.015979223 0.048824266 0.115236595
v 0.017493218 0.048514426 0.109369159
v 0.003991371 0.048181128 0.133636639
v 0.007445411 0.049118441 0.129427284
v -0.045132998 0.048883654 0.115066491
v -0.045250975 0.048719544 0.113035016
v -0.044803914 0.048246291 0.106255628
v -0.042974748 0.049513221 0.120864175
v -0.038730118 0.050142780 0.124220714
v -0.044180620 0.047624491 0.097306296
v 0.004008615 0.054096911 0.126489952
v 0.007779375 0.054132696 0.122551300
v -0.023266712 0.047971435 0.131824285
v 0.010977251 0.049176682 0.125284448
v 0.017479096 0.048530202 0.109357089
v -0.047878250 0.043600120 0.110789590
v -0.044251788 0.049700912 0.113888986
v -0.044757918 0.048308481 0.106294945
v -0.040221505 0.051238850 0.117333539
v -0.036102746 0.051777057 0.120853715
v -0.004923420 0.054757278 0.126017421
v -0.001611687 0.057302535 0.121686444
v 0.002682957 0.055853419 0.125356942
v 0.006193833 0.056148537 0.121196181
v -0.018339677 0.061328452 0.030872442
v -0.013311993 0.064200684 0.032910891
f 15 24 2
f 27 8 34
f 51 62 94
f 21 12 2
f 93 62 94
f 46 78 45
f 46 93 62
f 46 93 78
f 29 24 2
f 29 36 31
f 29 36 2
f 29 15 31
f 29 15 24
f 18 19 2
f 18 15 2
f 6 4 30
f 6 4 19
f 6 50 30
f 61 51 47
f 61 43 47
f 61 51 94
f 56 50 71
f 88 90 94
f 88 90 77
f 22 21 62
f 22 21 12
f 49 21 62
f 10 14 8
f 1 14 2
f 1 14 8
f 1 9 8
f 1 19 2
f 1 4 19
f 44 45 2
f 65 15 31
f 65 53 31
f 65 18 15
f 65 18 19
f 64 78 45
f 25 4 30
f 25 50 30
f 20 6 77
f 20 6 19
f 20 65 77
f 20 65 19
f 7 9 4
f 7 9 8
f 33 11 12
f 52 51 47
f 52 43 47
f 52 51 62
f 52 22 62
f 52 22 12
f 91 56 71
f 55 6 77
f 55 6 50
f 55 56 50
f 57 50 71
f 57 25 50
f 83 61 94
f 83 61 60
f 28 21 2
f 28 49 2
f 28 49 21
f 48 46 62
f 48 49 62
f 48 46 45
f 48 45 2
f 48 49 2
f 13 11 12
f 13 11 14
f 13 12 2
f 13 14 2
f 5 9 4
f 5 1 4
f 41 36 2
f 41 44 2
f 41 36 31
f 41 44 31
f 54 44 45
f 54 64 45
f 54 53 31
f 54 44 31
f 63 65 53
f 63 54 53
f 63 54 64
f 63 73 65
f 16 7 8
f 16 25 4
f 16 7 4
f 40 25 39
f 40 16 25
f 37 33 34
f 37 52 43
f 42 52 12
f 42 37 33
f 42 37 52
f 79 91 71
f 89 81 56
f 89 91 56
f 89 81 77
f 89 90 77
f 89 91 90
f 66 81 56
f 66 55 56
f 66 81 77
f 66 55 77
f 58 40 39
f 58 57 71
f 58 25 39
f 58 57 25
f 38 61 60
f 38 61 43
f 38 37 34
f 38 37 43
f 38 27 34
f 35 33 34
f 35 8 34
f 35 10 8
f 3 1 9
f 3 5 9
f 3 5 1
f 76 65 77
f 76 73 65
f 84 64 78
f 84 63 64
f 84 63 73
f 74 84 73
f 26 40 16
f 26 40 27
f 26 27 8
f 26 16 8
f 32 33 12
f 32 42 12
f 32 42 33
f 59 40 69
f 59 58 40
f 68 59 69
f 68 59 58
f 92 83 69
f 92 83 94
f 92 90 94
f 92 91 90
f 70 83 60
f 70 38 60
f 70 38 27
f 70 40 27
f 70 83 69
f 70 40 69
f 23 33 11
f 23 35 33
f 87 88 77
f 87 76 77
f 87 88 94
f 86 93 78
f 72 79 71
f 72 58 71
f 80 68 69
f 80 92 69
f 80 72 79
f 80 79 91
f 80 92 91
f 17 35 10
f 17 23 35
f 17 23 11
f 17 10 14
f 17 11 14
f 85 87 94
f 85 93 94
f 85 76 73
f 85 87 76
f 85 74 73
f 85 86 93
f 85 86 74
f 75 86 78
f 75 86 74
f 75 84 78
f 75 74 84
f 82 80 72
f 82 72 58
f 82 80 68
f 67 68 58
f 67 82 58
f 67 82 68
