v 0.278663844 -0.003537795 0.047814727
v 0.289153546 -0.005813804 0.044884790
v 0.294361740 -0.005873838 0.043299787
v 0.369309485 0.027161237 0.016364230
v 0.283605218 0.016510390 0.045357108
v 0.290316015 0.006147974 0.048687052
v 0.289125979 0.016635686 0.044794638
v 0.279559284 0.000530031 0.050743546
v 0.285014957 0.000629410 0.049968194
v 0.289302558 -0.005217096 0.045372237
v 0.290292174 0.000657725 0.048609111
v 0.353057116 -0.000505713 0.018970041
v 0.364857823 0.031939149 0.011412321
v 0.250893921 0.015716748 0.048229523
v 0.287650853 -0.008744766 0.039969772
v 0.292857558 -0.008760159 0.038379800
v 0.325454146 0.031309608 0.017804755
v 0.358805329 0.015087207 0.009583212
v 0.364158213 0.020898078 0.010911698
v 0.349207610 -0.006239868 0.017870985
v 0.337918848 -0.012579801 0.013605822
v 0.355970770 0.031241314 0.002751944
v 0.188830718 0.000146009 0.051906254
v 0.333975047 -0.013209342 0.009157082
v 0.335677922 -0.012962031 0.010857787
v 0.065798759 0.014037693 0.040509947
v 0.042191662 0.013709801 0.037774991
v 0.094792143 -0.041134767 0.028370269
v 0.048141807 0.013225943 0.038617149
v 0.086479597 -0.029865744 0.033673104
v 0.091682181 -0.035347886 0.032070097
v 0.013281690 0.004146758 0.036315441
v 0.014381451 0.006273511 0.035720296
v 0.019160707 0.001089489 0.036924943
v -0.000610314 0.012224016 0.028116945
v 0.037815265 -0.046025477 0.023460446
v 0.000099349 0.010680043 0.030438149
v 0.031408574 -0.044282518 0.019475728
v 0.042688157 -0.049234234 0.020779073
v 0.118339665 -0.058693271 -0.011078511
v 0.036251530 -0.049724244 0.018345708
v 0.135426655 -0.058245201 -0.039281946
v -0.011893868 0.014180681 -0.008789896
v 0.150508955 -0.058874741 -0.049547549
v 0.142376989 -0.058553558 -0.044176541
v 0.148834288 -0.054096829 -0.055348471
v 0.152113423 -0.032466900 -0.058984261
v 0.151897430 -0.021651907 -0.060234856
v -0.025369793 0.010030313 -0.015627054
v -0.025272662 0.010203887 -0.015309356
v 0.149442285 -0.043443985 -0.058307417
v -0.021656722 0.006818669 -0.022102449
v -0.016609594 0.011491109 -0.024214342
v -0.000991716 0.011503068 -0.028990662
v -0.008634226 -0.001910630 -0.030752357
v -0.007254258 -0.004536184 -0.030854616
v -0.007608408 0.005868224 -0.032012992
v -0.002390603 0.005523060 -0.033566214
v 0.003185542 -0.005346223 -0.033947770
v -0.012573267 0.009041545 -0.029632008
v -0.007456432 0.009005971 -0.031515900
v -0.001856907 0.009162650 -0.031820573
v -0.021743475 0.004055355 -0.022386208
v -0.016507542 -0.001413554 -0.023880547
v -0.016996281 0.009353352 -0.025479138
v -0.007447971 -0.001952180 -0.031488225
v -0.002374508 -0.002004978 -0.033513568
v -0.007625698 0.003457810 -0.032069542
v -0.002490231 0.003429702 -0.033892080
v 0.002980389 -0.001945756 -0.034618795
f 40 21 44
f 26 14 23
f 38 36 41
f 38 36 37
f 38 37 49
f 34 30 36
f 34 30 23
f 42 40 41
f 50 37 49
f 50 53 49
f 35 37 27
f 35 50 37
f 61 53 54
f 17 26 14
f 17 26 27
f 17 5 14
f 17 35 27
f 8 14 23
f 39 36 41
f 39 28 36
f 39 40 41
f 39 28 40
f 31 30 23
f 31 8 23
f 31 8 28
f 31 30 36
f 31 28 36
f 32 36 37
f 32 34 36
f 32 26 23
f 32 34 23
f 46 24 44
f 46 24 18
f 46 22 18
f 45 42 41
f 45 40 44
f 45 42 40
f 19 22 18
f 19 12 4
f 62 61 48
f 62 61 54
f 62 22 48
f 62 22 54
f 63 38 41
f 63 64 41
f 63 38 49
f 13 17 22
f 13 19 4
f 13 19 22
f 43 17 22
f 43 53 54
f 43 22 54
f 43 17 35
f 43 50 53
f 43 35 50
f 6 5 14
f 6 8 14
f 33 32 27
f 33 37 27
f 33 32 37
f 29 26 27
f 29 32 27
f 29 32 26
f 51 46 59
f 51 46 22
f 56 45 41
f 56 64 41
f 56 45 44
f 56 63 64
f 56 46 44
f 56 46 59
f 52 63 49
f 25 21 44
f 25 24 44
f 7 6 4
f 7 6 5
f 7 13 4
f 7 17 5
f 7 13 17
f 1 8 28
f 1 2 28
f 16 40 21
f 20 19 12
f 20 19 18
f 20 25 21
f 20 24 18
f 20 25 24
f 11 12 4
f 11 6 4
f 11 20 12
f 47 22 48
f 47 51 48
f 47 51 22
f 67 56 59
f 67 51 59
f 60 52 63
f 60 61 53
f 10 1 8
f 10 1 2
f 3 16 21
f 3 20 21
f 3 10 2
f 3 11 20
f 3 10 11
f 15 28 40
f 15 16 40
f 15 2 28
f 15 3 2
f 15 3 16
f 70 51 48
f 70 67 51
f 55 56 63
f 55 60 63
f 55 60 68
f 57 60 61
f 57 60 68
f 58 57 61
f 58 61 48
f 65 60 53
f 65 60 52
f 65 53 49
f 65 52 49
f 9 10 8
f 9 10 11
f 9 6 8
f 9 11 6
f 69 70 48
f 69 58 48
f 69 70 67
f 69 68 67
f 69 57 68
f 69 58 57
f 66 68 67
f 66 55 68
f 66 67 56
f 66 55 56
