v -0.090926699 0.041182730 -0.025136275
v -0.093036182 0.042453844 -0.014248295
v -0.092468917 -0.019141328 -0.014248295
v -0.092756398 -0.021610580 -0.008804245
v -0.085496895 0.040744528 -0.036024258
v -0.087919571 0.019935058 0.038811281
v -0.087290026 0.025342526 0.039142683
v -0.086660467 0.030750053 0.036241606
v -0.092580758 -0.017887658 -0.014248295
v -0.093347810 -0.017798355 -0.008804245
v -0.094467334 0.004255082 -0.003360314
v -0.094358847 0.009723212 -0.003360314
v -0.087924086 0.041858684 0.007527666
v -0.089578338 0.014647415 0.034747675
v -0.089874253 0.025643386 0.034747675
v -0.087220430 0.030815244 0.034747675
v -0.086918943 -0.018546818 0.031681374
v -0.086289398 -0.013139350 0.036080077
v -0.083988957 0.006620180 -0.052356288
v -0.081882559 0.024712978 -0.051803634
v -0.080286264 0.038424268 -0.046912357
v -0.088746473 -0.029295633 -0.019692345
v -0.089194298 -0.029243497 -0.014248295
v -0.089213245 -0.029241290 -0.008804245
v -0.092111945 -0.023423059 -0.008804245
v -0.083400130 -0.035398826 0.012116032
v -0.075845532 0.029490957 -0.057672188
v -0.082802720 -0.030267430 0.029303746
v -0.082770579 -0.029991359 0.030017810
v -0.082496405 -0.027636310 0.034747675
v -0.082141034 -0.024583891 0.039172009
v -0.083060153 -0.029957645 0.029303746
v -0.086347647 -0.024094148 0.029303746
v -0.084819868 -0.024272015 0.034747675
v -0.086403571 -0.018606817 0.034747675
v -0.075474404 -0.014398452 -0.061731383
v -0.076527223 -0.023441566 -0.052356288
v -0.078244798 -0.019556679 -0.057800338
v -0.070696488 -0.020435467 -0.062670991
v -0.071120188 -0.024074843 -0.057800338
v -0.059623074 0.027602307 -0.080263302
v -0.060166031 0.022938630 -0.079576299
v -0.059255328 0.030761058 -0.079576299
v -0.058993530 0.033009775 -0.078169510
v -0.060332231 0.027684867 -0.079576299
v -0.058861636 0.054917518 0.067411736
v -0.061332729 -0.034159355 0.061967686
v -0.054845162 0.021565232 0.082355514
v -0.052956514 0.037787694 -0.076492712
v -0.052768603 0.039401732 -0.074132368
v -0.054519538 0.059892762 0.056523755
v -0.057474062 0.027352115 0.078299716
v -0.056035541 0.032665398 0.078299716
v -0.055553529 0.038090043 -0.074132368
v -0.053661637 -0.015345645 0.083743766
v -0.057732590 -0.032906327 0.067411736
v -0.058156773 -0.016414603 0.078299716
v -0.054799665 -0.011324685 0.083743766
v -0.055681378 -0.005741274 0.083743766
v -0.048171289 -0.015263795 -0.085020348
v -0.038364220 0.068973511 0.003309445
v -0.042809673 0.030789517 -0.090464398
v -0.042138658 0.036553159 -0.085020348
v -0.042206232 0.036536124 -0.085020348
v -0.036911707 0.034373101 -0.090464398
v -0.052107375 -0.060965087 -0.008804245
v -0.042587176 0.031099714 -0.090464398
v -0.051559471 -0.055548117 0.045635775
v -0.037793156 -0.020274755 -0.085020348
v -0.031326585 0.035269495 -0.091704890
v -0.026828885 0.073902257 -0.014248295
v -0.026709931 0.074924015 -0.008804245
v -0.033634860 0.035538230 -0.090464398
v -0.028454352 0.012863185 0.105519786
v -0.032799806 -0.024461865 -0.079576299
v -0.025919059 0.034639940 -0.092230842
v -0.021311922 0.074212700 -0.019692345
v -0.028497349 0.013017009 0.105519786
v -0.030956402 -0.008619804 0.100075796
v -0.016071912 0.072145313 -0.030580325
v -0.027162069 0.007380793 0.105519786
v -0.010341696 0.074287489 -0.030580325
v -0.010067730 0.076640703 -0.024889393
v -0.009753826 0.076604158 -0.025136275
v -0.001770994 0.053751677 0.082917467
v 0.006162147 0.074815750 -0.030580325
v 0.011562138 0.074122511 -0.028934760
v 0.009673487 0.057900049 0.057592228
v 0.016969664 0.073492952 -0.026351852
v 0.010725438 0.057777580 0.056523755
v 0.022377132 0.072863407 -0.018484039
v 0.018474057 0.073317811 -0.025136275
v 0.022029422 0.072903886 -0.019692345
v 0.026525503 0.061418924 0.025439339
v 0.063118786 0.046197083 -0.089360639
v 0.063748337 0.051604550 -0.087268397
v 0.058404654 0.005705289 0.056523755
v 0.050264012 -0.056441020 0.051079705
v 0.068526253 0.045567535 -0.089026377
v 0.054153826 -0.056893881 0.067411736
v 0.069806077 0.009483808 0.045635775
v 0.065660350 -0.014387293 -0.085020348
v 0.065194741 0.007589955 0.051079705
v 0.091493122 0.007456240 -0.090464398
v 0.097193882 0.009345374 -0.089545652
v 0.093565002 -0.012155245 -0.041468307
v 0.112910099 0.050185602 -0.079576299
v 0.123230591 0.044679511 -0.083499476
v 0.128638119 0.044049956 -0.082434818
v 0.133416042 0.038012940 -0.082964823
v 0.133852392 0.043442901 -0.079576299
f 101 100 111
f 68 100 66
f 79 68 100
f 98 100 66
f 102 98 66
f 85 101 111
f 81 79 100
f 81 97 74
f 81 97 100
f 106 98 100
f 106 102 98
f 110 100 111
f 110 106 100
f 75 102 66
f 103 101 100
f 103 97 100
f 103 85 101
f 103 85 97
f 91 85 72
f 37 22 66
f 37 38 22
f 37 40 66
f 37 40 38
f 105 106 102
f 105 110 106
f 69 75 102
f 69 40 60
f 69 75 66
f 69 40 66
f 78 46 85
f 78 97 74
f 78 85 97
f 78 81 74
f 2 61 72
f 2 71 72
f 51 85 72
f 51 46 85
f 51 61 72
f 51 2 61
f 51 2 46
f 94 91 111
f 39 38 60
f 39 40 60
f 39 40 38
f 26 68 66
f 14 10 11
f 56 68 47
f 56 79 68
f 56 55 79
f 18 14 6
f 18 14 35
f 83 71 72
f 83 91 72
f 83 86 91
f 104 105 102
f 104 69 102
f 104 105 110
f 104 108 110
f 109 110 111
f 109 108 110
f 13 16 46
f 13 2 46
f 13 2 16
f 88 91 85
f 88 94 91
f 62 41 60
f 17 10 4
f 17 33 4
f 17 33 35
f 17 14 35
f 17 14 10
f 15 14 11
f 15 2 16
f 15 7 46
f 15 14 6
f 15 7 6
f 57 31 35
f 57 18 35
f 57 31 47
f 57 56 47
f 57 56 55
f 82 96 70
f 82 86 96
f 99 108 96
f 99 95 96
f 99 104 108
f 99 104 95
f 76 104 95
f 76 96 70
f 76 95 96
f 76 104 69
f 76 69 60
f 76 62 60
f 76 62 70
f 107 109 108
f 107 108 96
f 107 109 111
f 107 86 96
f 107 91 111
f 48 7 6
f 36 19 38
f 36 38 60
f 9 2 11
f 9 10 11
f 90 94 111
f 90 88 94
f 90 85 111
f 90 88 85
f 23 24 26
f 23 22 66
f 23 26 66
f 25 33 4
f 25 23 24
f 25 24 26
f 25 33 26
f 25 4 22
f 25 23 22
f 12 2 11
f 12 15 11
f 12 15 2
f 8 16 46
f 8 15 46
f 8 15 16
f 84 83 86
f 84 82 86
f 84 82 83
f 87 89 86
f 87 107 86
f 87 107 89
f 92 107 89
f 92 89 86
f 52 7 46
f 52 48 7
f 59 48 6
f 59 18 6
f 59 57 18
f 59 48 78
f 45 36 19
f 42 41 60
f 42 36 60
f 42 45 41
f 42 45 36
f 1 9 2
f 1 9 19
f 1 2 71
f 3 19 38
f 3 9 19
f 3 38 22
f 3 4 22
f 3 10 4
f 3 9 10
f 64 50 82
f 80 50 82
f 80 82 83
f 34 31 35
f 34 33 35
f 32 33 26
f 32 34 33
f 32 34 29
f 93 86 91
f 93 92 86
f 93 107 91
f 93 92 107
f 53 78 46
f 53 52 46
f 53 48 78
f 53 52 48
f 58 57 55
f 58 59 57
f 58 59 78
f 58 78 81
f 58 81 79
f 58 55 79
f 20 45 19
f 20 1 19
f 63 64 82
f 43 62 41
f 43 45 41
f 43 44 21
f 43 20 45
f 67 44 64
f 67 65 64
f 67 43 62
f 67 43 44
f 67 62 70
f 67 65 70
f 49 64 50
f 49 44 64
f 77 83 71
f 77 80 83
f 30 34 31
f 30 34 29
f 30 31 47
f 30 68 47
f 30 29 68
f 28 26 68
f 28 32 26
f 28 29 68
f 28 32 29
f 5 20 21
f 5 20 1
f 5 1 71
f 5 77 71
f 5 21 50
f 5 80 50
f 5 77 80
f 73 65 70
f 73 65 64
f 73 63 64
f 73 82 70
f 73 63 82
f 27 20 21
f 27 43 21
f 27 43 20
f 54 49 50
f 54 49 44
f 54 21 50
f 54 44 21
