v -0.024588095 -0.112629138 0.041045476
v -0.025977107 -0.112342119 0.047344409
v -0.018122155 -0.108079553 0.035425235
v -0.058326583 -0.097256951 0.059118655
v -0.073214501 -0.094720379 0.081917599
v -0.067214839 -0.095117487 0.088428557
v -0.064969532 -0.095280506 0.090503424
v -0.060854781 -0.091598675 0.056630690
v -0.056382060 -0.090339571 0.100540310
v -0.074869812 -0.092469767 0.082520083
v -0.074735120 -0.083043456 0.095706157
v -0.054493360 -0.084932104 0.103888802
v -0.054246668 -0.084955432 0.103980802
v -0.077460244 -0.086090967 0.089256294
v -0.075362608 -0.083936684 0.094286188
v -0.044029854 -0.074798279 0.111848935
v -0.038631577 -0.069755644 0.115677558
v 0.039966844 -0.082454629 0.058103140
v 0.023511171 -0.068800002 0.035125587
v 0.013509766 -0.067967437 0.028555736
v 0.017924760 -0.068338566 0.031365436
v -0.032757021 -0.059153751 0.122784562
v -0.053170834 -0.060339782 0.115175977
v 0.049910314 -0.065078169 0.063483074
v -0.031559609 -0.053746283 0.124233752
v -0.030704981 -0.053833988 0.124379262
v 0.048438758 -0.069111496 0.060812928
v 0.050022621 -0.059670705 0.061950959
v 0.048565086 -0.054263238 0.056105737
v -0.035611961 -0.042301804 0.125229031
v -0.042747062 -0.046175420 0.122968912
v 0.049747791 -0.057146035 0.060336478
v 0.046411395 -0.053603873 0.049964078
v -0.034923837 -0.038762245 0.125914797
v -0.038620692 -0.031642370 0.017185995
v -0.034209952 -0.025078718 0.011045502
v 0.022003183 -0.020559222 0.003704174
v -0.020268515 -0.018158823 -0.001080399
v 0.044346303 -0.011959923 0.143409938
v 0.028365148 -0.010373835 0.001691804
v 0.051289432 -0.007226090 0.143727809
v -0.013978961 -0.007744611 -0.003369609
v 0.044712923 -0.011904953 0.143276498
v 0.063612416 -0.003707266 0.128313124
v 0.065157875 -0.009349451 0.118454963
v 0.055923063 -0.003590349 0.139196351
v 0.030765004 0.000167247 -0.002274961
v -0.032562193 0.011473355 0.107675046
v -0.050497614 0.013032147 0.097545162
v -0.046068665 0.012685353 0.101004250
v -0.054557931 0.013275750 0.092507347
v -0.051091779 0.013076997 0.097039081
v -0.042523850 0.012402599 0.103642516
v -0.040175155 0.012185871 0.104652628
v -0.024910081 0.010755994 0.110683344
v -0.055799749 0.013198917 0.087165892
v 0.061206903 -0.002369037 0.137273178
v -0.023243194 0.011416540 -0.005791141
v -0.024161447 0.010353504 -0.005456924
v -0.050658334 0.013685117 0.096881315
v -0.022562901 0.014111052 0.109829038
v 0.028400423 0.011256091 -0.005573995
v -0.048925512 0.027866786 0.061490383
v -0.033878479 0.030884715 0.040980563
v -0.045023814 0.033094835 0.065863654
v -0.041176245 0.033310197 0.081843376
v -0.039408628 0.033321887 0.086993448
v -0.036687810 0.033215478 0.091796465
v -0.030782552 0.032773364 0.096917845
v -0.011510955 0.036269102 0.100013025
v 0.010690836 0.037384409 0.051378552
v 0.012116384 0.038551964 0.084616981
v 0.008486127 0.039181516 0.090453483
v 0.002896809 0.040411975 0.042628601
f 63 59 14
f 39 18 9
f 58 62 74
f 58 63 59
f 58 38 59
f 44 62 45
f 7 11 9
f 10 5 14
f 10 5 8
f 4 8 1
f 4 5 1
f 4 5 8
f 2 18 1
f 2 18 9
f 2 7 9
f 2 5 1
f 51 11 14
f 36 38 59
f 36 8 1
f 36 38 1
f 64 58 74
f 64 58 63
f 42 38 62
f 42 58 62
f 42 58 38
f 71 62 74
f 71 44 62
f 41 70 69
f 15 11 14
f 15 7 11
f 6 2 5
f 6 2 7
f 6 5 14
f 6 15 14
f 6 15 7
f 3 38 1
f 3 37 38
f 3 18 1
f 67 70 73
f 56 63 14
f 56 51 14
f 35 36 59
f 35 59 14
f 35 10 14
f 35 10 8
f 35 36 8
f 72 71 44
f 72 73 74
f 72 71 74
f 43 39 18
f 43 41 18
f 43 41 39
f 57 72 73
f 57 72 44
f 57 70 73
f 57 44 45
f 57 18 45
f 57 41 18
f 29 33 32
f 29 32 45
f 27 33 32
f 27 18 45
f 47 27 18
f 47 27 33
f 47 38 62
f 47 37 38
f 47 29 33
f 47 62 45
f 47 29 45
f 19 21 37
f 19 3 18
f 19 3 21
f 20 21 37
f 20 3 37
f 20 3 21
f 68 70 69
f 68 67 70
f 68 67 51
f 55 41 39
f 34 55 39
f 65 56 51
f 65 56 63
f 65 64 63
f 65 64 74
f 12 11 9
f 46 41 70
f 46 57 70
f 46 57 41
f 24 27 45
f 24 27 32
f 40 47 37
f 40 19 37
f 40 47 18
f 40 19 18
f 52 51 11
f 61 41 69
f 61 55 41
f 54 34 53
f 54 53 69
f 54 61 69
f 66 67 51
f 66 65 51
f 66 65 74
f 66 73 74
f 66 67 73
f 13 12 9
f 28 32 45
f 28 24 45
f 28 24 32
f 60 68 51
f 60 52 51
f 60 68 69
f 60 52 69
f 50 53 69
f 26 34 39
f 26 22 39
f 17 39 9
f 17 22 39
f 23 52 11
f 23 12 11
f 23 13 22
f 23 13 12
f 48 34 55
f 48 54 34
f 48 61 55
f 48 54 61
f 49 52 69
f 49 50 69
f 16 17 9
f 16 13 9
f 16 17 22
f 16 13 22
f 25 26 22
f 25 26 34
f 25 30 34
f 31 23 22
f 31 25 22
f 31 25 30
f 31 30 34
f 31 23 52
f 31 49 52
f 31 49 50
f 31 34 53
f 31 50 53
