v -0.027981497 -0.054710723 0.048660971
v -0.028018076 -0.054779194 0.043185439
v -0.027471974 -0.054779481 0.037768848
v -0.021797763 -0.053792100 0.060230792
v 0.032692771 -0.031617507 0.016501861
v -0.027902465 -0.038695261 0.048668943
v 0.033608090 -0.026093824 0.011122705
v 0.046014123 -0.023486601 0.110872097
v 0.005677246 -0.027820742 0.139704123
v 0.004305110 -0.027982313 0.139479756
v 0.006998533 -0.027667124 0.139752492
v 0.000491713 -0.028450323 0.137238756
v 0.044769388 -0.023413761 0.129371598
v 0.005689217 -0.027850166 0.139619917
v 0.022462793 -0.026697496 0.135846511
v 0.039192855 -0.025169229 0.132068753
v 0.041442636 -0.025652442 0.110409193
v -0.005725197 -0.023672426 0.138710245
v -0.005895081 -0.023695195 0.138446882
v -0.008763027 -0.024094999 0.132684588
v 0.050940875 -0.017236726 0.127786517
v 0.052589644 -0.017107975 0.122481637
v 0.052658509 -0.017164109 0.117016718
v -0.005674847 -0.023894090 0.138469175
v 0.000226424 -0.027765084 0.139066756
v 0.010987451 -0.026515111 0.140156403
v -0.004701850 -0.027559169 0.133095831
v 0.049869146 -0.018452413 0.127677992
v 0.051073972 -0.019384081 0.116856277
v 0.051563028 -0.018871319 0.111433968
v 0.034744635 -0.023826545 0.011237787
v 0.053475972 -0.011459242 0.128043205
v -0.011631918 -0.018949898 0.132394075
v -0.013230794 -0.019201193 0.126760349
v -0.011586619 -0.020485193 0.001074465
v 0.038470533 -0.014563226 0.011615052
v -0.014079981 -0.008274850 0.132146165
v -0.014607562 -0.011972740 -0.004703281
v 0.042995106 -0.005637613 0.017545020
v -0.023595594 -0.005512407 -0.005613418
v -0.020467822 -0.008455790 -0.005296696
v -0.024569971 -0.000081416 -0.000240265
v -0.026970522 0.005311004 0.015932193
v -0.017294843 0.006186503 -0.004975429
v 0.048360314 0.014062159 0.018088261
v 0.047262523 0.009330854 0.012505280
v -0.026491094 0.010847871 0.015980728
v -0.026146796 0.010823969 0.010543703
v -0.015796820 0.018957827 0.134504870
v -0.016798323 0.018810919 0.131870851
v -0.019673990 0.018346021 0.120636001
v -0.025455987 0.016439307 0.015194200
v -0.025268413 0.016407521 0.010632637
v -0.024852091 0.016439296 0.009230377
v 0.048666034 0.031920213 0.135747850
v 0.049829751 0.032024484 0.133145735
v 0.050614879 0.032052170 0.127753407
v -0.019809339 0.022476384 0.006855934
v -0.018880496 0.023983892 0.126188174
v -0.019721285 0.023821309 0.120631203
v -0.013798368 0.024706993 0.137646496
v -0.025053913 0.016931763 0.010654356
v 0.049991809 0.037460022 0.127690300
v 0.050413501 0.037445176 0.122261174
v 0.050610207 0.037327629 0.110298783
v 0.050478481 0.037260205 0.105852209
v -0.020422168 0.027936224 0.011123344
v -0.012258500 0.030367956 0.137802422
v -0.016332319 0.029827038 0.131918013
v -0.016734680 0.029772809 0.131268352
v -0.018811332 0.029472748 0.126195163
v -0.019108558 0.029373774 0.120693237
v -0.020793274 0.027224435 0.011085767
v -0.016393937 0.035180256 0.121654131
v -0.018564109 0.033698611 0.016783368
v -0.016994324 0.033818118 0.011470435
v -0.002222083 0.035354219 -0.003449223
v 0.043463491 0.041582774 0.121557407
v 0.049202610 0.039111134 0.122138552
v -0.012716981 0.039863616 0.017375434
v -0.016908973 0.036031198 0.016950963
v -0.016222630 0.034840818 0.011548574
v -0.004402552 0.046253156 0.012745449
v -0.003683927 0.046273060 0.007346388
v -0.000319510 0.046624526 0.004086150
v 0.015709117 0.048414085 -0.001633541
v -0.011395839 0.040246382 0.012037323
v -0.006501406 0.045067471 0.012532922
v -0.005772886 0.043512922 0.007134866
v 0.029663127 0.055656213 0.010723081
v -0.000849094 0.048080556 0.007633439
v 0.010881665 0.050428398 -0.002122371
v 0.030958015 0.055938561 0.010854200
f 4 16 13
f 74 78 93
f 46 45 93
f 66 45 93
f 66 45 32
f 1 3 2
f 1 3 4
f 15 16 26
f 15 4 16
f 21 16 32
f 21 16 13
f 43 3 2
f 55 16 32
f 55 16 26
f 91 74 83
f 68 74 78
f 68 55 26
f 68 18 26
f 68 18 61
f 17 4 13
f 34 1 33
f 60 1 51
f 60 59 71
f 60 59 51
f 42 3 40
f 42 43 3
f 37 18 33
f 37 18 61
f 37 34 33
f 37 59 51
f 37 1 51
f 37 34 1
f 20 1 33
f 24 1 4
f 24 27 4
f 90 74 93
f 90 91 74
f 70 74 71
f 88 74 83
f 88 91 83
f 35 38 7
f 41 3 40
f 41 35 3
f 41 35 38
f 77 58 40
f 22 30 29
f 22 21 32
f 22 29 13
f 8 29 13
f 8 17 13
f 8 30 29
f 6 60 1
f 6 60 43
f 6 1 2
f 6 43 2
f 72 74 71
f 72 60 71
f 75 81 74
f 75 72 74
f 54 42 40
f 54 58 73
f 54 58 40
f 49 37 61
f 49 70 61
f 49 70 71
f 19 24 18
f 19 18 33
f 19 20 33
f 19 20 1
f 19 24 1
f 56 55 32
f 56 57 32
f 69 68 74
f 69 70 74
f 69 68 61
f 69 70 61
f 80 81 74
f 80 88 74
f 80 88 81
f 39 30 46
f 39 36 46
f 44 41 40
f 44 77 40
f 92 90 91
f 92 90 93
f 92 44 77
f 23 22 30
f 23 46 45
f 23 30 46
f 23 45 32
f 23 22 32
f 28 21 13
f 28 22 13
f 28 22 21
f 5 8 30
f 5 31 7
f 5 39 30
f 5 8 17
f 5 31 36
f 5 39 36
f 5 17 4
f 5 35 7
f 5 35 3
f 5 3 4
f 25 24 27
f 25 27 4
f 25 24 18
f 48 42 43
f 48 54 42
f 52 75 72
f 50 37 59
f 50 49 37
f 50 59 71
f 50 49 71
f 63 56 55
f 63 68 78
f 63 68 55
f 63 56 57
f 87 88 81
f 87 82 81
f 67 75 73
f 67 58 73
f 67 77 58
f 76 75 81
f 76 82 81
f 76 67 75
f 76 67 77
f 84 92 91
f 84 87 82
f 84 88 91
f 84 87 88
f 86 46 93
f 86 92 93
f 86 36 46
f 86 31 36
f 86 38 7
f 86 31 7
f 86 41 38
f 86 44 41
f 86 92 44
f 53 52 75
f 53 48 54
f 47 48 43
f 47 53 48
f 47 53 52
f 47 52 72
f 47 60 43
f 47 72 60
f 79 78 93
f 79 63 78
f 64 63 57
f 64 57 32
f 64 79 63
f 85 92 77
f 85 84 92
f 89 76 77
f 89 85 77
f 89 85 84
f 89 76 82
f 89 84 82
f 10 14 4
f 11 15 4
f 11 14 4
f 11 15 26
f 62 54 73
f 62 53 54
f 62 75 73
f 62 53 75
f 12 25 4
f 12 10 4
f 12 10 25
f 9 10 14
f 9 11 14
f 9 25 18
f 9 10 25
f 9 18 26
f 9 11 26
f 65 64 79
f 65 64 32
f 65 66 32
f 65 66 93
f 65 79 93
