v -0.072745420 0.006459261 0.073842354
v -0.072115868 0.012014042 0.074391097
v -0.075263619 -0.018647633 0.079581305
v -0.077298425 -0.016325470 0.073893853
v -0.075584270 -0.018374955 0.078941278
v -0.067967437 -0.013509766 0.111055739
v -0.068313055 -0.007879248 0.111728333
v -0.070008151 0.017502388 0.074619375
v -0.067782089 0.022409085 0.076405272
v -0.057523578 0.041823577 0.083671309
v -0.056969162 0.042638786 0.095355086
v -0.061665159 -0.006436428 0.112253472
v -0.060319073 0.037043370 0.081731714
v -0.061333049 0.036718648 0.098993704
v -0.059408814 0.041658364 0.100791618
v -0.059453178 0.034651034 0.104034528
v -0.065120831 -0.003078250 0.113475747
v -0.051464941 0.044690099 0.090308331
v -0.052183997 0.044591870 0.090272583
v -0.049576491 0.023142830 0.059292208
v -0.054100774 0.011047455 0.054889854
v -0.047935206 -0.005985292 0.042897005
v -0.044359352 -0.021361133 0.037300654
v -0.044707339 -0.024955072 0.038435634
v -0.042818695 -0.008602880 0.040939484
v -0.040458541 -0.035975564 0.037774876
v -0.038670324 -0.019014690 0.036084272
v -0.041082259 -0.042871807 0.041058220
v -0.030450501 0.046665713 0.062060401
v -0.029856637 0.039615527 0.096344851
v -0.045109890 -0.045162477 0.046017859
v -0.024506042 0.050408434 0.063422643
v -0.033262856 -0.040987972 0.094614699
v -0.028484939 -0.025775874 0.035168748
v -0.031632692 -0.065139078 0.064266041
v -0.031889211 -0.046053756 0.092040569
v -0.023473831 0.039589003 0.094245054
v -0.025585677 -0.063539162 0.074089594
v -0.027487120 -0.060124140 0.081125997
v -0.018929048 -0.038786881 0.035613894
v -0.019179750 -0.041176073 0.035882045
v -0.026629131 -0.076659419 0.046140719
v -0.025505222 -0.073494099 0.053086173
v -0.025715731 -0.070182793 0.060084764
v -0.013521581 -0.039405655 0.035473295
v -0.013754645 -0.041625287 0.035718542
v -0.001904239 0.055886533 0.065416507
v -0.011261860 -0.070294388 0.039446671
v -0.000740992 0.006142304 0.093658201
v 0.002166118 0.051243991 0.069520198
v 0.001070705 -0.024186144 0.084839091
v 0.005357999 0.012993790 0.090358563
v 0.006349863 0.022861516 0.088156752
v -0.000331303 -0.071578816 0.042196471
v 0.005848625 -0.028981954 0.080364421
v 0.007737275 -0.013063378 0.084059790
v 0.014032766 0.052202847 0.062846415
v 0.005051196 -0.029058496 0.080846161
v 0.008116451 0.020682253 0.087363563
v 0.011256091 -0.028400423 0.076926008
v 0.011885639 -0.023221968 0.078508690
v 0.019270156 0.049843390 0.063216984
v 0.012886265 -0.048814394 0.036309827
v 0.010997616 -0.067550719 0.040356163
v 0.017922660 -0.017194973 0.075919531
v 0.029483994 0.043808527 0.061020471
v 0.020878637 -0.016765606 0.073733658
v 0.022442156 -0.062062591 0.037406653
v 0.026849004 -0.021860348 0.037624873
v 0.027478551 -0.016691942 0.039235171
v 0.027849624 -0.063938469 0.040719911
v 0.025879644 -0.063229308 0.039442070
v 0.035145741 -0.046398208 0.038119067
v 0.035775289 -0.040244773 0.037023015
v 0.033886645 -0.059665952 0.042951144
v 0.044588983 0.031481788 0.061301868
v 0.040181566 -0.052383550 0.043389603
v 0.043700952 -0.019288935 0.040848326
v 0.039923660 -0.055065971 0.044282496
v 0.048107799 0.016556090 0.053037912
v 0.048737347 0.021420987 0.055482090
v 0.051626679 0.000537044 0.047777880
v 0.056404594 -0.005593213 0.046969574
f 14 7 15
f 35 3 42
f 30 15 47
f 30 37 47
f 49 30 17
f 6 7 17
f 6 35 3
f 6 7 4
f 31 42 4
f 2 7 4
f 2 14 7
f 2 14 15
f 23 26 27
f 23 22 27
f 23 22 4
f 10 32 29
f 25 22 27
f 25 29 27
f 25 29 22
f 62 76 37
f 81 76 83
f 16 30 17
f 16 30 15
f 16 7 17
f 16 7 15
f 12 49 17
f 12 6 17
f 51 36 58
f 53 30 37
f 53 49 30
f 53 76 37
f 5 6 4
f 5 6 3
f 5 42 4
f 5 3 42
f 28 26 42
f 28 31 42
f 28 31 26
f 48 26 42
f 1 22 4
f 1 2 4
f 1 2 22
f 24 31 26
f 24 23 26
f 24 31 4
f 24 23 4
f 19 10 32
f 19 32 47
f 21 2 22
f 21 29 22
f 21 20 29
f 13 10 29
f 13 20 29
f 13 20 9
f 13 9 15
f 13 10 15
f 50 37 47
f 50 62 37
f 80 82 83
f 80 81 83
f 80 82 70
f 66 62 76
f 66 81 76
f 66 80 81
f 66 80 70
f 52 53 49
f 52 65 49
f 52 76 83
f 61 51 58
f 78 74 83
f 78 82 83
f 69 70 27
f 69 78 74
f 69 82 70
f 69 78 82
f 54 48 42
f 39 35 42
f 39 6 35
f 39 6 36
f 39 36 58
f 79 39 58
f 73 74 68
f 73 79 71
f 11 10 15
f 11 19 15
f 11 19 10
f 18 15 47
f 18 19 47
f 18 19 15
f 8 21 2
f 8 9 15
f 8 2 15
f 8 20 9
f 8 21 20
f 57 70 27
f 57 66 70
f 57 66 62
f 57 32 47
f 57 50 47
f 57 50 62
f 57 29 27
f 57 32 29
f 33 51 49
f 33 12 49
f 33 51 36
f 33 6 36
f 33 12 6
f 59 53 76
f 59 52 76
f 59 52 53
f 56 51 49
f 56 61 51
f 56 65 49
f 56 61 65
f 34 26 27
f 34 69 27
f 34 69 74
f 41 48 26
f 41 34 26
f 41 34 40
f 63 74 68
f 43 54 42
f 43 39 44
f 43 39 42
f 64 48 68
f 64 54 48
f 64 54 71
f 38 39 44
f 38 39 71
f 38 54 71
f 38 43 44
f 38 43 54
f 60 79 61
f 75 39 71
f 75 79 71
f 75 79 39
f 77 74 83
f 77 79 83
f 77 73 74
f 77 73 79
f 67 79 83
f 67 52 83
f 67 52 65
f 67 61 65
f 67 79 61
f 46 41 40
f 46 48 68
f 46 41 48
f 72 64 68
f 72 64 71
f 72 73 68
f 72 73 71
f 55 61 58
f 55 60 61
f 55 79 58
f 55 60 79
f 45 34 40
f 45 46 40
f 45 34 74
f 45 63 74
f 45 63 68
f 45 46 68
