v -0.058631636 0.021228638 0.114858575
v -0.064463891 0.018901384 0.110080697
v -0.070709035 0.014402450 0.099895306
v -0.016733933 0.136597231 0.064805336
v -0.015390765 0.134632394 0.064672813
v -0.013686794 0.131433949 0.064512968
v -0.026897026 0.151983649 0.060321249
v -0.070942283 -0.020789452 0.067450657
v -0.027471974 0.162869051 0.054779343
v -0.070913777 -0.027320201 0.062043227
v -0.070883624 -0.022097509 0.066820078
v -0.066023529 -0.027077269 0.055993099
v -0.066119470 -0.027086983 0.056139462
v 0.031092092 0.133665830 0.037376750
v 0.031629376 0.130550668 0.037351072
v -0.064135425 -0.026886111 0.050291386
v 0.036295466 0.043473657 0.037832424
v 0.023376344 -0.004837252 0.039895818
v 0.031428680 0.130530342 0.037539877
v 0.034945957 0.043337014 0.039222956
v 0.012023817 0.154701620 0.033857889
v 0.029250490 0.145603552 0.031969219
v 0.032692771 0.141601980 0.031617448
v 0.038723778 0.038247686 0.032131705
v 0.030040368 0.141333416 0.035024092
v 0.036294010 0.027058015 0.036656402
v 0.038049586 0.005348386 0.032873224
v 0.028040018 -0.001137051 0.035875749
v 0.043044880 0.148121953 0.002937934
v 0.044233620 0.142770439 0.002863038
v 0.042558916 0.148072764 0.006606700
v 0.047483224 0.044606347 0.006232864
v 0.045806810 0.146806270 -0.013808901
v 0.048360314 0.143188208 -0.014062226
v 0.049081117 0.137789369 -0.014082364
v 0.042800635 0.038660258 -0.012191600
v -0.023801826 0.130207509 -0.011031842
v 0.043727025 0.148190901 -0.019065004
v 0.045143586 0.147106797 -0.019216368
v 0.047872957 0.143138826 -0.019485956
v 0.038796123 0.149868146 -0.023994284
v 0.032519791 0.151925802 -0.028772241
v 0.038183171 0.149672151 -0.029401805
v 0.040665947 0.147880882 -0.029668376
v 0.037719768 0.147999316 -0.034809262
v 0.032312155 0.147034928 -0.039652321
v 0.030643828 0.042900946 -0.038237069
v -0.018473847 0.109061308 -0.030874711
v -0.026617341 0.048046425 -0.037145432
v 0.024917681 0.047792923 -0.042616900
v -0.008285989 0.110092841 -0.045477696
v -0.000319510 0.129185975 -0.046624541
v 0.054755494 0.127420083 -0.052983370
v 0.053050715 0.116303734 -0.052655447
v 0.051947277 0.110720173 -0.052462112
v 0.029663127 0.135822877 -0.055656251
v 0.054298997 0.127373829 -0.058410771
v 0.049810264 0.110503756 -0.057692856
v -0.020127695 0.050178647 -0.048883762
v -0.004359612 0.110490397 -0.050251272
v 0.049859140 0.110508703 -0.057663649
v 0.046712033 0.093774512 -0.051961672
v 0.041253708 0.136996508 -0.061205313
v 0.053397778 0.127282560 -0.059985511
v -0.014799772 0.049242988 -0.051238969
v -0.009409238 0.049788829 -0.051777188
v 0.046723228 0.132078484 -0.065796964
f 18 27 1
f 2 1 9
f 2 3 9
f 10 18 1
f 10 2 1
f 37 52 9
f 37 10 49
f 37 10 8
f 37 3 8
f 37 3 9
f 36 47 27
f 28 18 27
f 28 47 27
f 28 47 18
f 16 47 18
f 16 49 59
f 16 10 49
f 11 2 3
f 11 10 2
f 11 3 8
f 11 10 8
f 34 35 53
f 7 1 9
f 7 4 9
f 7 4 1
f 32 35 53
f 32 36 27
f 60 67 52
f 63 67 52
f 13 10 18
f 13 16 10
f 65 16 59
f 65 60 59
f 65 60 67
f 21 22 9
f 25 4 9
f 25 22 9
f 14 25 4
f 14 6 1
f 30 32 35
f 30 34 35
f 48 37 52
f 48 37 49
f 48 49 59
f 62 36 47
f 42 21 9
f 43 63 67
f 12 16 18
f 12 13 18
f 12 13 16
f 66 16 47
f 66 65 16
f 66 50 47
f 66 65 67
f 66 50 67
f 40 39 34
f 5 14 4
f 5 14 6
f 5 4 1
f 5 6 1
f 19 14 1
f 19 14 15
f 31 30 34
f 31 21 22
f 31 17 15
f 24 30 32
f 24 32 27
f 24 17 27
f 24 31 30
f 24 31 17
f 26 27 1
f 26 17 27
f 55 62 36
f 55 62 61
f 55 32 36
f 51 60 52
f 51 48 52
f 51 60 59
f 51 48 59
f 58 61 67
f 58 50 67
f 58 50 47
f 58 62 47
f 58 62 61
f 46 42 63
f 46 52 9
f 46 42 9
f 41 43 38
f 41 43 42
f 45 42 63
f 45 43 63
f 45 43 42
f 44 39 67
f 44 43 67
f 44 39 38
f 44 43 38
f 20 17 15
f 20 19 15
f 20 19 1
f 20 26 1
f 20 26 17
f 33 39 34
f 33 39 38
f 23 14 15
f 23 31 15
f 23 14 25
f 23 25 22
f 23 31 22
f 64 61 67
f 57 32 53
f 57 55 61
f 57 64 61
f 57 40 39
f 57 39 67
f 57 64 67
f 57 34 53
f 57 40 34
f 56 63 52
f 56 46 52
f 56 46 63
f 29 31 34
f 29 33 34
f 29 33 38
f 29 41 38
f 29 41 42
f 29 42 21
f 29 31 21
f 54 55 32
f 54 57 32
f 54 57 55
