v -0.033560235 -0.074869625 -0.043042906
v -0.034360554 -0.073823564 -0.043147877
v -0.036357492 -0.068149462 -0.043445732
v -0.028509919 -0.078669749 -0.042413343
v -0.034776036 -0.057365950 -0.037908249
v 0.006720591 -0.100224584 -0.032598909
v -0.039446149 -0.073308602 -0.038469441
v -0.038577139 -0.067924708 -0.041236781
v -0.038108252 -0.062500358 -0.040549878
v -0.043043613 -0.072944336 -0.033202454
v 0.043993916 -0.047929753 -0.023413923
v 0.046052165 -0.043663237 -0.023225544
v 0.044769388 -0.040271513 -0.023413910
v -0.044857845 -0.066591866 -0.033487104
v -0.045569032 -0.061744891 -0.033626325
v -0.043994531 -0.058066107 -0.033487089
v 0.009468509 -0.105620913 -0.026736557
v -0.044069745 -0.061896704 -0.036159005
v -0.038093347 -0.057030044 -0.035943739
v 0.022970576 -0.041325998 -0.026346574
v 0.028386973 -0.041874461 -0.026031619
v 0.039192855 -0.042968661 -0.025169387
v 0.044508990 -0.043506972 -0.023988379
v -0.001289145 -0.113152154 -0.022413572
v 0.004110876 -0.113498740 -0.021784002
v 0.050940875 -0.038686447 -0.017236868
v -0.044986907 -0.061803848 -0.028241081
v 0.043848336 -0.048911907 -0.023019738
v 0.049353056 -0.043997493 -0.018731952
v 0.049869146 -0.038577922 -0.018452555
v 0.014405819 -0.112930849 -0.015117336
v 0.053475972 -0.038943160 -0.011459385
v 0.052635361 -0.033386212 -0.011621926
v -0.045828193 -0.067190498 -0.022630896
v -0.046556987 -0.072588585 -0.024156211
v -0.036268953 -0.124048956 -0.015376039
v -0.030886287 -0.124566928 -0.014746469
v -0.009208555 -0.125187054 -0.012228182
v 0.022575514 -0.112419985 -0.008696238
v 0.026752729 -0.112842977 -0.002726651
v 0.007962673 -0.127355844 -0.004732975
v -0.039605513 -0.122539096 -0.010299469
v -0.003961498 -0.126148403 -0.010822905
v 0.001248982 -0.126676008 -0.008730269
v 0.024488794 -0.112613723 -0.006855807
v 0.029302558 -0.113101177 0.003052496
v 0.032056946 -0.107908256 0.003310648
v -0.042583928 -0.120239712 -0.005190674
v 0.011393425 -0.127703249 -0.002157801
v 0.028926481 -0.113063097 0.001907894
v 0.033744890 -0.108079188 0.008988996
v 0.033046629 -0.112296455 0.014438335
v 0.034273740 -0.108132750 0.014531645
v 0.033957168 -0.108100690 0.010288031
v 0.032549702 -0.113430016 0.019874830
v -0.045602504 -0.132875532 0.009670521
v -0.045127295 -0.127451822 0.010302837
v 0.032685719 -0.113443784 0.016529681
v 0.018546585 0.019312130 0.022176817
v -0.041373722 -0.136966497 0.017068785
v 0.025291674 -0.129110619 0.024698762
v 0.049829751 -0.044045851 0.032024324
v 0.003481484 0.015365781 0.025958871
v 0.030777080 0.012601833 0.029153040
v 0.006295691 0.017995410 0.026254013
v 0.027668439 0.014363966 0.028772289
v 0.027480887 -0.129332319 0.030435771
v 0.028983582 -0.124012589 0.030547446
v 0.012252636 0.019949449 0.024115173
v 0.017912598 0.019376326 0.022327414
v 0.049153905 -0.043977425 0.037425999
v 0.049991809 -0.038590439 0.037459880
v 0.050413501 -0.033161312 0.037445053
v -0.016369827 -0.009983293 0.029437464
v -0.014190984 -0.004732093 0.029628264
v -0.000565849 0.010158375 0.031031886
v 0.031981148 0.009528101 0.034809321
v 0.046483520 -0.008277952 0.036698010
v -0.000531792 0.010300327 0.030863686
v 0.005579613 0.015153319 0.029913926
v 0.027196404 0.012964407 0.031594992
v 0.023123093 -0.134362876 0.033069499
v -0.018210256 -0.020740598 0.034831200
v -0.016757989 -0.015415826 0.034936972
v 0.049953792 -0.027642872 0.037360873
v 0.045957569 -0.010822731 0.038990472
v -0.009985939 -0.016101591 0.052171797
v -0.012503060 -0.026790436 0.057486348
v 0.036644328 -0.037238922 0.063301809
v 0.037323900 -0.031835906 0.063317165
v -0.010604061 -0.021510839 0.057644397
v -0.007022432 -0.016401686 0.057999354
v -0.001688186 -0.011470001 0.058559403
v -0.000368484 -0.010322231 0.058698811
v 0.005437320 -0.006661468 0.059328385
v 0.011083834 -0.004573793 0.059957959
v 0.021796452 -0.006130338 0.061217099
v 0.026990037 -0.008516189 0.061846670
v 0.036495399 -0.021995101 0.063105792
v 0.036087759 -0.020767018 0.063044168
v 0.037540141 -0.026385915 0.063278295
v 0.034096528 -0.015093557 0.062746979
v 0.032034099 -0.012377505 0.062476229
v 0.027592225 -0.008963102 0.061921667
v 0.034698520 -0.037041895 0.065440796
v -0.007367104 -0.021838618 0.061464306
v -0.006487305 -0.016455874 0.058603782
v -0.001528212 -0.016958037 0.062867165
v -0.000648187 -0.011575313 0.060004685
v 0.004493145 -0.012095928 0.062694281
v 0.005423672 -0.006718318 0.059395820
v 0.010523932 -0.007234774 0.062439997
v 0.021305928 -0.008326557 0.063508436
v 0.026892178 -0.008892217 0.062357549
v 0.035811305 -0.026210856 0.065303758
v 0.030763246 -0.020227864 0.066543221
v 0.031459048 -0.014826491 0.065271161
v -0.025091214 -0.085706018 0.067680672
v -0.017039306 -0.055107597 0.068254516
v -0.016845329 -0.053709961 0.067806274
v -0.025183409 -0.162302569 0.085010633
v -0.024647903 -0.167828560 0.082809791
v -0.009577039 -0.171117231 0.092402518
v -0.009882021 -0.152908266 0.092153646
v -0.009000587 -0.147525698 0.092192620
v -0.024055632 -0.156944871 0.087166324
v -0.023604732 -0.151518703 0.088008523
v -0.023061005 -0.146101937 0.088049322
v -0.022481035 -0.140688777 0.087777287
v -0.021856496 -0.135280177 0.087120421
v -0.021186432 -0.129876196 0.086070552
v -0.009433213 -0.169369206 0.092686050
f 57 56 35
f 116 125 115
f 36 6 4
f 89 71 123
f 68 67 123
f 68 71 123
f 85 33 32
f 85 78 33
f 34 57 35
f 132 125 115
f 132 89 123
f 60 36 56
f 37 36 6
f 42 36 56
f 17 6 25
f 17 49 31
f 82 67 123
f 82 49 123
f 44 43 123
f 44 43 25
f 62 68 71
f 53 62 32
f 64 78 33
f 64 59 33
f 70 59 69
f 2 36 7
f 2 3 7
f 73 85 32
f 23 6 4
f 74 27 75
f 74 34 27
f 124 132 125
f 105 132 115
f 105 132 89
f 131 130 119
f 131 130 125
f 118 130 119
f 118 34 57
f 121 57 56
f 120 106 119
f 120 106 91
f 120 88 91
f 120 118 119
f 108 106 119
f 108 131 119
f 108 131 125
f 92 106 91
f 101 99 78
f 101 99 115
f 101 73 85
f 38 43 25
f 38 37 25
f 38 37 43
f 24 6 25
f 24 37 25
f 24 37 6
f 48 42 56
f 15 34 35
f 15 34 27
f 10 36 7
f 10 42 36
f 26 33 32
f 26 30 33
f 52 53 32
f 40 49 45
f 39 17 45
f 39 17 31
f 39 49 45
f 39 49 31
f 28 11 6
f 28 17 6
f 28 17 45
f 41 49 123
f 41 44 123
f 41 44 25
f 41 17 25
f 41 17 49
f 55 68 67
f 55 62 68
f 55 53 62
f 1 3 4
f 1 2 3
f 1 36 4
f 1 2 36
f 90 101 73
f 90 101 115
f 90 105 115
f 90 105 89
f 72 62 71
f 72 90 73
f 72 62 32
f 72 73 32
f 72 89 71
f 72 90 89
f 22 3 4
f 22 23 4
f 84 91 75
f 84 74 75
f 84 88 91
f 84 120 88
f 84 74 34
f 128 124 125
f 128 124 132
f 122 121 123
f 122 60 36
f 122 60 56
f 122 121 56
f 122 37 36
f 122 43 123
f 122 37 43
f 111 109 112
f 110 109 112
f 110 108 109
f 110 112 125
f 110 108 125
f 107 92 106
f 107 92 109
f 107 108 106
f 107 108 109
f 87 91 75
f 87 92 75
f 87 92 91
f 76 111 80
f 76 92 75
f 86 85 78
f 86 101 78
f 86 101 85
f 8 3 7
f 18 8 3
f 18 8 7
f 14 48 42
f 14 10 42
f 14 48 56
f 14 56 35
f 14 15 35
f 14 18 15
f 14 10 7
f 14 18 7
f 12 11 6
f 12 23 6
f 12 26 30
f 29 26 32
f 29 51 32
f 29 12 26
f 29 28 45
f 29 28 11
f 29 12 11
f 29 40 45
f 46 52 51
f 46 50 67
f 46 52 67
f 54 51 32
f 54 52 32
f 54 52 51
f 61 40 49
f 61 82 67
f 61 82 49
f 61 50 67
f 61 40 50
f 58 52 67
f 58 55 67
f 58 52 53
f 58 55 53
f 102 103 78
f 77 64 78
f 77 103 78
f 5 70 59
f 5 70 69
f 83 120 118
f 83 84 120
f 83 118 34
f 83 84 34
f 129 130 125
f 129 128 125
f 129 118 130
f 129 128 118
f 126 132 123
f 126 121 123
f 95 111 80
f 93 92 109
f 93 76 92
f 94 111 109
f 94 76 111
f 94 93 109
f 94 93 76
f 79 65 80
f 79 76 80
f 79 65 63
f 79 63 75
f 79 76 75
f 16 18 15
f 16 63 75
f 16 27 75
f 16 15 27
f 16 65 63
f 16 65 69
f 47 29 51
f 47 46 51
f 47 46 50
f 47 40 50
f 47 29 40
f 100 99 78
f 100 102 78
f 100 99 115
f 66 59 69
f 66 64 59
f 66 77 64
f 20 5 3
f 20 5 59
f 9 5 3
f 9 18 3
f 9 16 18
f 127 126 121
f 127 128 118
f 127 128 132
f 127 126 132
f 127 118 57
f 127 121 57
f 117 100 115
f 117 100 102
f 117 116 115
f 117 102 103
f 81 66 69
f 81 97 69
f 81 66 77
f 81 97 77
f 98 97 77
f 96 97 69
f 96 65 69
f 96 65 80
f 96 95 80
f 96 111 112
f 96 95 111
f 21 22 3
f 21 20 3
f 19 9 5
f 19 9 16
f 19 5 69
f 19 16 69
f 113 96 112
f 113 96 97
f 113 117 116
f 113 112 125
f 113 116 125
f 104 77 103
f 104 98 77
f 13 20 59
f 13 21 20
f 13 21 22
f 13 59 33
f 13 30 33
f 13 22 23
f 13 12 30
f 13 12 23
f 114 104 98
f 114 113 117
f 114 117 103
f 114 104 103
f 114 98 97
f 114 113 97
