v -0.037023775 -0.073598951 0.038495317
v -0.039373178 -0.073923431 0.034033563
v -0.035373509 -0.073598981 0.022197930
v -0.024544215 -0.072188117 0.035535134
v -0.022469869 -0.072009571 0.030273354
v -0.036441069 -0.074974582 0.034330469
v -0.030920520 -0.075558767 0.034889478
v -0.035840645 -0.075423241 0.028919440
v -0.030404994 -0.075274535 0.029469851
v -0.035448927 -0.074070133 0.023487214
v -0.025719559 -0.073383950 0.035416123
v -0.025024094 -0.074653134 0.030014718
v -0.019027060 -0.066318437 0.014206413
v -0.023583483 -0.066932343 0.006865152
v -0.045165785 -0.065395243 0.000615954
v -0.039668132 -0.065781802 0.001172646
v -0.018425556 -0.065604396 0.008795490
v -0.048995811 -0.052612845 0.076833889
v -0.053864300 -0.053228114 0.072458118
v -0.054970041 -0.053376153 0.070757113
v -0.038190491 -0.051348388 0.077928029
v -0.027044468 -0.050236635 0.062641181
v -0.053556547 -0.054509960 0.070900247
v -0.043166984 -0.054787930 0.077424116
v -0.055957887 -0.052445129 0.037825987
v -0.055528563 -0.051416691 0.032397632
v -0.050952155 -0.044123299 0.087579489
v -0.045616046 -0.043114692 0.088119820
v -0.040219188 -0.042631060 0.088666305
v -0.059063192 -0.044576183 0.059398968
v -0.034114830 -0.043520454 0.083812542
v -0.046908956 -0.021413092 -0.087400407
v 0.000805811 -0.015746919 -0.075535893
v 0.006078734 -0.015117346 -0.073934130
v 0.006693660 -0.015008630 -0.070738718
v -0.046867855 -0.022019111 -0.087105982
v 0.000661745 -0.018138310 -0.071349502
v 0.005640174 -0.009709885 -0.075852275
v 0.004435307 -0.009856335 -0.076439179
v 0.010402421 -0.009080302 -0.069207288
v 0.010314885 -0.009104106 -0.070372045
v 0.000623002 -0.013069092 -0.076825209
v 0.013079821 -0.003235593 -0.064620197
v 0.012744137 -0.003339068 -0.070126072
v 0.010476905 -0.008723122 -0.070355639
v 0.015465426 0.002524337 -0.064378642
v -0.005668820 -0.000154114 -0.084017627
v 0.017223231 0.008210861 -0.064200655
v -0.000959197 0.005882982 -0.083102211
v 0.017480588 0.008176786 -0.069646485
v 0.018010076 0.013783703 -0.064120993
v -0.049728617 0.005624284 -0.090800613
v 0.017704198 0.013683716 -0.069623850
v 0.015074513 0.018985132 -0.058946427
v 0.016897991 0.019134328 -0.064233609
v -0.050322149 0.011031747 -0.091188312
v 0.013405266 0.029687189 -0.064587303
v -0.055501122 0.021431066 -0.087980270
v 0.013829201 0.029672606 -0.070016265
v -0.057728257 0.026715398 -0.082733914
v 0.012003206 0.034939688 -0.070201173
v -0.057415582 0.032296941 -0.077230491
v -0.056467712 0.032343674 -0.082606278
v -0.054578912 0.050143462 0.014455400
v -0.053333580 0.055917375 0.027147856
v -0.039707426 0.063476786 0.069792889
v -0.050331816 0.061587967 0.013690005
v -0.048654657 0.061587933 -0.002872935
v -0.048061203 0.061587922 -0.008733632
v -0.046941485 0.068140447 0.071569845
v -0.045744814 0.066351429 0.071691021
v -0.045795035 0.073662192 0.063738219
v -0.044223785 0.073810920 0.060901370
v -0.046536561 0.073347695 0.044251632
v -0.032791633 0.080180146 0.023755992
v -0.045096647 0.074960239 0.055341095
v -0.019399961 0.085751623 -0.100740351
v -0.036810495 0.085254811 0.028820921
v -0.024647903 0.082809821 -0.101271749
v -0.019522484 0.085637316 -0.100752756
v -0.037428737 0.084246665 0.023286432
v -0.009577039 0.092402562 -0.097983107
v -0.014511328 0.089450739 -0.100245342
v -0.009847373 0.091526695 -0.094301179
f 27 70 30
f 71 70 29
f 28 70 29
f 28 27 29
f 28 27 70
f 25 60 30
f 83 78 79
f 83 78 82
f 66 71 70
f 66 71 29
f 32 47 79
f 33 32 36
f 26 15 36
f 26 25 15
f 26 60 36
f 26 25 60
f 72 66 70
f 80 47 79
f 80 83 47
f 81 78 79
f 75 66 78
f 54 66 51
f 58 60 36
f 58 32 36
f 58 56 79
f 37 14 36
f 37 33 36
f 42 32 47
f 42 33 32
f 24 27 29
f 2 25 15
f 2 8 15
f 31 66 51
f 31 22 51
f 31 66 29
f 31 24 29
f 73 66 78
f 73 72 78
f 73 72 66
f 77 83 79
f 77 80 79
f 77 80 83
f 84 61 82
f 84 78 82
f 84 75 78
f 57 84 61
f 57 84 75
f 57 75 66
f 59 53 82
f 59 61 82
f 59 57 61
f 48 22 51
f 4 31 22
f 52 58 56
f 52 58 32
f 52 56 79
f 52 32 79
f 20 25 30
f 20 2 25
f 20 27 30
f 16 3 14
f 16 15 36
f 16 14 36
f 10 3 14
f 10 8 15
f 10 16 15
f 10 16 3
f 62 60 30
f 62 64 30
f 74 81 78
f 74 81 79
f 55 59 57
f 55 54 51
f 55 53 51
f 55 59 53
f 55 54 66
f 55 57 66
f 50 53 51
f 50 48 51
f 50 48 46
f 50 53 82
f 21 31 24
f 17 43 40
f 17 43 13
f 18 24 27
f 23 20 2
f 23 18 24
f 23 18 27
f 63 62 79
f 63 62 60
f 63 58 79
f 63 58 60
f 69 62 79
f 69 62 68
f 69 74 79
f 69 74 68
f 65 74 72
f 65 72 70
f 65 62 64
f 65 70 30
f 65 64 30
f 76 72 78
f 76 74 78
f 76 74 72
f 34 42 47
f 34 42 33
f 34 37 33
f 34 50 38
f 34 37 14
f 34 17 14
f 49 83 82
f 49 83 47
f 49 50 82
f 49 50 38
f 11 4 31
f 11 21 31
f 11 21 24
f 11 7 24
f 1 7 24
f 1 23 24
f 1 23 2
f 35 34 17
f 19 20 27
f 19 23 27
f 19 23 20
f 67 65 62
f 67 65 74
f 67 62 68
f 67 74 68
f 39 34 47
f 39 34 38
f 39 49 47
f 39 49 38
f 41 35 34
f 41 17 40
f 41 35 17
f 12 11 7
f 12 17 14
f 12 11 4
f 6 1 2
f 6 1 7
f 6 2 8
f 6 7 8
f 44 34 50
f 44 50 46
f 44 43 40
f 44 43 46
f 5 17 13
f 5 12 17
f 5 12 4
f 5 43 13
f 5 43 46
f 5 48 46
f 5 48 22
f 5 4 22
f 9 7 8
f 9 12 7
f 9 10 8
f 9 10 14
f 9 12 14
f 45 41 34
f 45 44 34
f 45 41 40
f 45 44 40
