v -0.123447329 -0.050486952 -0.024376439
v -0.110698625 0.066341870 -0.019449582
v -0.111671910 0.062798813 -0.018436082
v -0.104264818 0.071119785 -0.018799597
v -0.112939022 -0.059289273 -0.023144836
v -0.104528151 -0.056883562 -0.027027246
v -0.094445035 0.080905564 -0.015843118
v -0.096653551 -0.051792696 -0.029152295
v -0.091182798 0.095197104 -0.002002433
v -0.091577098 0.091173440 -0.008298837
v -0.096012175 -0.069109283 -0.022731185
v -0.076280832 0.049947944 -0.031069832
v -0.069081470 0.057157107 -0.031308956
v -0.098601229 -0.083437391 -0.009134003
v -0.085083447 -0.058225103 -0.029413007
v -0.089893609 -0.067029342 -0.025742102
v -0.101189248 -0.082957909 -0.013147888
v -0.086156286 -0.056235366 -0.029954223
v -0.076736279 -0.051622085 -0.032083951
v -0.063167714 0.072749950 -0.026832491
v -0.064791948 -0.027932743 -0.037469070
v -0.059586070 0.077638991 -0.022647813
v -0.058601379 -0.053388484 -0.034346111
v -0.059992176 -0.075807802 -0.022852682
v -0.055340916 -0.076376215 -0.020506255
v -0.008792293 0.039840937 -0.033608839
v -0.028129220 0.071232378 0.037173517
v 0.003699531 0.000305643 -0.032084662
v 0.003306350 0.065195367 -0.014532362
v 0.001908639 0.060257398 -0.022113040
v 0.003332956 0.065232694 -0.015297024
v 0.009045070 -0.000451261 -0.030707965
v 0.017846506 0.037146524 -0.026267895
v -0.020302745 0.063936263 0.056279115
v 0.022632144 0.036110178 -0.023853682
v 0.020210912 0.036587201 -0.025075123
v 0.027435947 0.035248607 -0.021430302
v -0.012689582 0.063165449 0.055887576
v 0.032214720 0.034146249 -0.019019552
v 0.007866739 0.059390984 0.035770189
v 0.032169942 -0.013361753 -0.019042140
v 0.036996339 0.033070706 -0.016607365
v 0.036568731 0.034380671 -0.015421128
v 0.037047699 -0.013511861 -0.016581453
v 0.033267360 0.044566117 0.005924400
v 0.036308780 0.039329372 -0.004759171
v 0.042038798 -0.012571535 -0.014063589
v 0.040973846 -0.022714401 -0.002405781
v 0.037512064 0.043374348 0.020237876
v 0.031732000 0.049289081 0.023419494
v 0.046943359 -0.010744839 -0.011589384
v 0.042982616 -0.026876703 0.004705074
v 0.050649967 -0.006067087 -0.003621950
v 0.053901765 0.004470407 -0.001981512
v 0.053534251 0.009679357 0.003930578
v 0.013518834 -0.003157978 0.130084127
v 0.012852822 0.001677334 0.132654190
v 0.014513069 0.007084801 0.130760863
v 0.013132838 0.007273965 0.129889399
v 0.018457927 -0.002717992 0.132575750
v 0.017980937 0.001047786 0.134494662
v 0.024775755 0.022677714 0.126616448
v 0.019365715 0.006015421 0.133033708
v 0.017250221 0.006737069 0.131966501
v 0.034101099 0.029932167 0.122174740
v 0.023894630 0.017151974 0.129220858
v 0.020901099 0.000780245 0.133808255
v 0.030148506 0.027617743 0.126278192
v 0.043145001 0.032233551 0.117010646
v 0.038828604 0.028336575 0.124559626
v 0.042860784 -0.003538707 0.120496184
v 0.045419175 0.021074371 0.121786818
v 0.050323810 -0.002406380 0.118163645
v 0.049579579 0.026043180 0.117788203
v 0.070133097 -0.000342430 0.103766762
v 0.067705475 -0.000107683 0.108639650
v 0.065820366 -0.002519231 0.107688665
f 14 57 1
f 22 31 9
f 59 57 9
f 59 62 9
f 65 69 9
f 63 57 61
f 48 52 25
f 56 14 57
f 3 57 1
f 3 2 1
f 3 57 9
f 3 2 9
f 12 21 1
f 12 21 13
f 12 2 1
f 12 2 13
f 38 40 69
f 29 31 9
f 30 22 31
f 10 2 9
f 10 22 9
f 7 10 2
f 77 76 75
f 77 52 75
f 77 52 25
f 77 14 71
f 77 14 25
f 70 65 69
f 70 67 72
f 70 67 61
f 58 59 57
f 58 59 62
f 60 57 61
f 60 56 57
f 60 67 61
f 60 14 71
f 60 56 14
f 17 14 25
f 17 11 16
f 17 14 1
f 24 23 16
f 24 17 25
f 24 17 16
f 28 23 21
f 34 69 9
f 34 38 9
f 34 38 69
f 27 38 9
f 27 38 40
f 27 29 9
f 27 29 40
f 20 30 22
f 20 2 13
f 20 10 22
f 20 7 10
f 53 54 75
f 53 54 51
f 53 52 75
f 53 52 51
f 55 54 75
f 55 49 75
f 55 49 46
f 45 46 31
f 45 49 46
f 50 40 69
f 50 29 31
f 50 29 40
f 50 45 31
f 50 45 49
f 73 77 71
f 73 77 76
f 73 60 71
f 73 60 67
f 73 76 72
f 73 67 72
f 74 50 69
f 74 50 49
f 74 70 69
f 74 49 75
f 74 70 72
f 74 76 75
f 74 76 72
f 68 70 65
f 68 62 9
f 68 65 9
f 68 58 62
f 68 63 61
f 68 70 61
f 64 63 57
f 64 58 57
f 5 17 1
f 5 17 11
f 5 11 16
f 8 21 1
f 6 18 16
f 6 5 1
f 6 5 16
f 6 8 1
f 6 8 18
f 15 23 16
f 15 18 16
f 15 18 23
f 32 28 23
f 26 21 13
f 26 28 21
f 26 20 13
f 26 20 30
f 26 32 28
f 4 7 2
f 4 20 2
f 4 20 7
f 66 68 58
f 66 64 58
f 66 68 63
f 66 64 63
f 19 18 23
f 19 8 18
f 19 23 21
f 19 8 21
f 41 32 23
f 41 24 23
f 41 32 51
f 41 24 25
f 44 41 51
f 44 41 25
f 33 26 30
f 33 26 32
f 42 54 51
f 42 55 46
f 42 55 54
f 42 30 31
f 47 44 51
f 47 44 25
f 47 48 25
f 47 52 51
f 47 48 52
f 37 33 30
f 37 42 30
f 37 42 39
f 35 42 39
f 35 37 39
f 35 37 33
f 35 32 51
f 35 42 51
f 43 46 31
f 43 42 31
f 43 42 46
f 36 33 32
f 36 35 32
f 36 35 33
