v 0.009409843 0.002306882 -0.002526694
v -0.010694341 -0.008508053 0.034529850
v -0.009766620 -0.003100585 0.034088589
v -0.011377685 -0.008210348 0.030207049
v -0.009628491 -0.002957678 0.031089466
v 0.016171193 -0.001230626 -0.004675397
v -0.006628055 -0.008265750 0.038700521
v -0.005764199 0.000044999 0.039136313
v -0.006564987 -0.003730133 0.039747886
v -0.008834305 -0.003380968 0.037587535
v 0.002298026 -0.025989609 0.028593795
v -0.000954254 -0.000757485 0.041562788
v -0.001477141 -0.004359681 0.041668188
v 0.026234359 0.024915891 -0.005696381
v 0.005642335 -0.031550497 0.032695595
v 0.003147154 -0.010396696 0.043109637
v 0.034101099 0.029932167 -0.007825262
v 0.011756367 0.027269730 0.035779949
v 0.011647665 0.027472327 0.035725109
v 0.035545871 -0.003245080 -0.007096417
v 0.010948778 -0.027576402 0.035372544
v 0.038828604 0.028336575 -0.005440373
v 0.020555262 0.026826086 0.030391984
v 0.013181679 0.021791534 0.036498975
v 0.019636339 -0.014663933 0.033657741
v 0.022240655 -0.000840864 0.032068301
v 0.031151678 0.015381596 0.018597435
v 0.026061643 0.015381596 0.028687285
v 0.032016240 0.020934232 0.015512947
v 0.014676523 -0.022249589 0.037253082
v 0.028601633 -0.001183081 0.025985356
v 0.028146502 0.009837787 0.025755757
f 11 15 4
f 11 6 15
f 12 8 19
f 10 8 19
f 5 14 19
f 1 11 4
f 1 11 6
f 1 5 4
f 1 5 14
f 17 14 19
f 17 1 6
f 17 1 14
f 20 6 15
f 20 31 22
f 20 17 22
f 20 17 6
f 2 15 4
f 13 12 16
f 3 10 19
f 3 5 19
f 3 5 4
f 3 2 4
f 3 2 10
f 24 30 16
f 24 26 30
f 25 26 31
f 25 26 30
f 25 20 31
f 25 20 30
f 21 20 15
f 21 20 30
f 21 16 15
f 21 30 16
f 27 32 31
f 27 31 22
f 27 29 22
f 28 26 31
f 28 32 31
f 28 24 26
f 28 27 29
f 28 27 32
f 7 16 15
f 7 2 15
f 7 2 10
f 23 28 24
f 23 28 29
f 23 29 22
f 23 17 22
f 23 17 19
f 9 7 10
f 9 10 8
f 9 13 16
f 9 7 16
f 9 12 8
f 9 13 12
f 18 23 19
f 18 23 24
f 18 24 16
f 18 12 16
f 18 12 19
