v -0.021536049 0.024307888 -0.000199425
v -0.021593509 0.021786593 0.001026466
v -0.021733290 0.029783143 -0.004494726
v -0.022773936 -0.008766529 -0.014904176
v -0.020979319 -0.010693170 -0.004643396
v -0.018343044 0.045308258 -0.024975164
v -0.017564740 0.050715726 -0.024282230
v -0.017048998 0.051377457 -0.022064887
v -0.014954955 0.051269647 -0.011380167
v -0.014422053 0.050715726 -0.008344228
v -0.014148902 0.049106009 -0.005990231
v -0.019789631 0.013166485 0.000670773
v -0.019446315 0.045510471 -0.021592179
v -0.017947026 0.050813321 -0.021887813
v -0.015470834 0.050769433 -0.011278445
v -0.018735340 -0.025618536 -0.012611745
v -0.018510416 -0.026934540 -0.010679093
v -0.017669503 -0.028792977 -0.005296031
v -0.016993891 -0.025618536 -0.003780067
v -0.008026375 0.050086178 -0.003860601
v -0.008342222 0.052865844 -0.007135204
v -0.019133111 -0.025526809 -0.010556309
v -0.018436166 -0.025484536 -0.005144859
v -0.013170240 0.050621413 -0.006183205
v -0.012790891 -0.033158228 -0.006258006
v -0.011919186 -0.031655550 -0.002741495
v -0.006243013 0.054864097 -0.026022336
v -0.005731261 0.056308992 -0.024296543
v -0.015486102 -0.031315360 -0.005726559
v -0.008959540 0.055227593 -0.023659984
v -0.007525072 0.055182349 -0.018393960
v 0.003858052 0.048827082 0.000507193
v -0.001061288 0.054234549 -0.027695222
v -0.000344142 0.056395642 -0.025358785
v -0.009625654 -0.031885810 -0.001333381
v 0.000888627 -0.027507180 0.003055010
v 0.001556234 -0.022099713 0.003186549
v 0.004322505 0.053605001 -0.028343327
v 0.004986720 0.055989772 -0.026409935
v 0.007628743 0.060679439 -0.015833266
v 0.007522851 0.026567608 0.004158121
v 0.009775411 0.059012529 -0.003943389
v 0.010179310 0.055347931 0.000310311
v -0.011846733 -0.032372091 -0.034188308
v -0.007958041 -0.021872018 -0.034955088
v -0.006985530 -0.016506599 -0.035146851
v -0.005350787 0.032501403 -0.041018069
v 0.006521420 0.059246309 -0.010066047
v 0.008994333 0.059077837 -0.005004907
v 0.005849746 0.048614379 0.001164024
v 0.008966564 0.053725287 0.000549443
v 0.008990050 -0.006506807 0.003172107
v -0.000894139 -0.038951669 -0.027429886
v 0.002435174 -0.041087124 -0.009260313
v 0.003482870 -0.041135021 -0.003918146
v 0.004780262 0.047991443 -0.031918101
v 0.007181192 0.058918070 -0.021293771
v -0.004651892 -0.038581647 -0.030058250
v 0.003448475 -0.038793020 0.001637511
v 0.001048778 -0.033027500 0.002110688
v -0.000006006 -0.039007969 -0.025425460
f 53 56 47
f 45 44 47
f 58 45 44
f 61 53 56
f 50 41 2
f 37 36 2
f 37 41 2
f 52 41 43
f 52 37 41
f 52 42 43
f 52 37 36
f 52 61 55
f 52 61 56
f 59 52 55
f 59 52 36
f 12 36 2
f 12 35 36
f 27 7 47
f 24 42 43
f 46 53 47
f 46 45 47
f 46 58 53
f 46 58 45
f 54 58 53
f 54 61 53
f 54 61 55
f 32 50 2
f 60 35 36
f 60 59 36
f 60 59 35
f 57 52 56
f 57 52 42
f 40 57 42
f 6 44 4
f 6 13 4
f 6 13 7
f 6 44 47
f 6 7 47
f 3 2 4
f 3 13 4
f 14 13 7
f 14 3 13
f 51 32 50
f 51 41 43
f 51 50 41
f 20 32 2
f 20 51 32
f 20 24 43
f 20 51 43
f 19 12 35
f 19 12 2
f 29 58 44
f 5 2 4
f 5 23 4
f 5 19 2
f 5 19 23
f 22 23 4
f 39 57 56
f 28 40 57
f 1 3 2
f 11 20 2
f 11 20 24
f 11 1 2
f 11 1 3
f 18 19 35
f 18 19 23
f 18 22 23
f 18 29 44
f 25 59 55
f 25 29 59
f 25 54 55
f 25 54 58
f 25 29 58
f 16 44 4
f 16 22 4
f 33 56 47
f 33 27 47
f 49 24 42
f 49 40 42
f 49 48 40
f 34 39 57
f 34 28 57
f 34 33 39
f 34 28 27
f 34 33 27
f 30 27 7
f 30 28 27
f 30 28 40
f 26 18 35
f 26 18 29
f 26 59 35
f 26 29 59
f 17 18 44
f 17 18 22
f 17 16 44
f 17 16 22
f 38 39 56
f 38 33 56
f 38 33 39
f 9 48 40
f 9 49 48
f 8 9 14
f 8 9 30
f 8 14 7
f 8 30 7
f 31 30 40
f 31 9 40
f 31 9 30
f 15 14 3
f 15 9 14
f 21 49 24
f 21 9 49
f 10 15 9
f 10 21 24
f 10 21 9
f 10 11 24
f 10 11 3
f 10 15 3
