v 0.023324532 -0.075161502 -0.077556558
v 0.023976665 -0.073301181 -0.077360041
v 0.025457140 -0.069254570 -0.076927014
v 0.027153855 -0.062820412 -0.076297462
v 0.028496142 -0.055957559 -0.075667918
v 0.028687054 -0.055279393 -0.075600475
v 0.034529302 -0.055756371 -0.069630891
v 0.032201599 -0.052373681 -0.072735593
v 0.039682660 -0.071464002 -0.064852923
v 0.015816137 -0.085028753 -0.068000667
v 0.038662050 -0.061159782 -0.058699336
v 0.005861897 -0.123596236 -0.044351030
v 0.037247274 -0.142337546 -0.037444450
v 0.032359842 -0.144070625 -0.038011551
v 0.041804083 -0.139362752 -0.036814902
v 0.025063025 -0.144573197 -0.038703553
v 0.031780727 -0.144212067 -0.038074005
v 0.036291894 -0.140819728 -0.039427098
v 0.040450707 -0.137381360 -0.038700100
v 0.028826935 -0.139927864 -0.041968197
v 0.021089673 -0.139261112 -0.041473981
v 0.029431149 -0.146491975 -0.032973196
v 0.045665879 -0.140133366 -0.031044802
v 0.053698577 -0.112305470 -0.028259689
v 0.031886280 -0.144462153 -0.037404042
v 0.043281671 -0.142104551 -0.031590201
v -0.015176655 -0.132811740 -0.024999291
v -0.015193589 -0.119813174 -0.024036534
v -0.008995028 -0.086433709 -0.021004159
v -0.008049906 -0.082026862 -0.020592442
v -0.014557149 -0.133414388 -0.025802048
v -0.012856560 -0.117881000 -0.027922474
v -0.005791275 -0.083784945 -0.025922174
v 0.047293376 -0.149954230 -0.015184975
v -0.017710283 -0.130735248 -0.019591823
v -0.011582221 -0.087228812 -0.015814522
v -0.010707893 -0.087849848 -0.018203493
v 0.047498688 -0.151190564 -0.009777508
v -0.018144395 -0.131198168 -0.014184356
v -0.022220002 -0.118770175 -0.008147337
v -0.022296006 -0.118621565 -0.002662313
v 0.065601051 -0.123651609 0.002122501
v -0.021051414 -0.117592581 0.003006454
v -0.018977428 -0.134142607 0.007445571
v 0.027257156 0.014175060 0.022596741
v -0.017499609 -0.128783375 0.013456497
v -0.015611234 -0.131703705 0.018890116
v 0.044384278 0.007144236 0.040054277
v 0.041755900 0.012034834 0.040181242
v 0.024361506 0.022633860 0.039406765
v 0.017746160 0.022148935 0.038777217
v -0.014505198 -0.133371428 0.020695921
v 0.037572950 0.015640242 0.037301764
v 0.034092464 0.019826271 0.037431601
v 0.030048054 -0.154960394 0.032223243
v -0.002403553 0.011586977 0.041666489
v 0.002509673 0.014905700 0.038054191
v 0.006674941 0.018349407 0.038709257
v 0.010806758 0.021765457 0.039737135
v 0.055340923 -0.152595252 0.040148910
v -0.000036046 -0.136533543 0.036371615
v -0.012842312 -0.004850399 0.044991232
v -0.010596906 0.004069609 0.042895526
v 0.049249236 -0.154701561 0.044926830
v 0.054948512 -0.153108612 0.045556378
v -0.000559045 -0.135968521 0.036741350
v 0.025802350 -0.136804238 0.055112273
v 0.011559865 -0.133012652 0.054115612
v 0.006930364 -0.129776523 0.053940289
v 0.003972996 -0.125157923 0.054017555
v 0.000187198 -0.114160500 0.054493692
v -0.000952022 -0.108038716 0.054845609
v -0.001867491 -0.094668284 0.054745346
v 0.028025579 -0.077017330 0.065227702
v 0.017458696 -0.135199428 0.054486573
v 0.044113331 -0.099034861 0.070518635
v 0.040301461 -0.095122732 0.070466824
f 48 76 42
f 49 48 76
f 11 48 7
f 9 15 1
f 9 24 42
f 9 11 7
f 9 48 42
f 9 11 48
f 65 76 42
f 30 36 37
f 30 5 6
f 30 5 1
f 54 49 50
f 21 12 1
f 20 18 1
f 20 21 1
f 20 21 16
f 19 15 1
f 19 18 1
f 19 18 15
f 23 24 42
f 23 9 15
f 23 9 24
f 3 9 1
f 8 9 7
f 8 9 6
f 8 48 7
f 8 49 48
f 31 21 16
f 31 21 12
f 31 12 1
f 44 43 41
f 44 43 46
f 10 31 1
f 62 43 41
f 62 43 46
f 34 23 42
f 4 9 6
f 4 3 9
f 4 5 6
f 4 3 5
f 2 5 1
f 2 3 1
f 2 3 5
f 53 54 49
f 53 8 49
f 53 8 54
f 45 54 50
f 45 8 54
f 45 8 6
f 77 69 76
f 77 49 50
f 77 49 76
f 77 62 74
f 67 65 76
f 67 65 64
f 35 44 31
f 29 30 37
f 29 32 37
f 29 10 32
f 73 62 72
f 73 62 74
f 73 77 72
f 73 77 74
f 51 45 50
f 13 18 15
f 26 23 15
f 26 34 23
f 26 13 15
f 26 13 34
f 38 65 64
f 70 52 69
f 70 77 69
f 47 62 72
f 47 52 72
f 47 62 46
f 47 44 46
f 47 52 44
f 68 69 76
f 55 52 44
f 55 68 64
f 55 38 64
f 55 31 16
f 55 44 31
f 39 35 44
f 27 35 31
f 27 10 32
f 27 10 31
f 40 36 37
f 40 39 35
f 40 62 41
f 40 44 41
f 40 39 44
f 33 30 1
f 33 29 30
f 33 10 1
f 33 29 10
f 63 57 6
f 63 30 6
f 63 30 36
f 63 40 36
f 63 40 62
f 59 45 6
f 59 51 45
f 59 51 50
f 59 77 50
f 14 13 18
f 14 13 34
f 60 65 42
f 60 38 65
f 60 34 42
f 60 38 34
f 71 77 72
f 71 70 77
f 71 52 72
f 71 70 52
f 28 40 35
f 28 27 32
f 28 27 35
f 28 32 37
f 28 40 37
f 58 57 6
f 58 59 6
f 22 38 34
f 22 55 16
f 22 55 38
f 61 55 68
f 61 55 52
f 75 68 76
f 75 67 76
f 75 68 64
f 75 67 64
f 56 58 59
f 56 63 62
f 56 63 57
f 56 58 57
f 56 77 62
f 56 59 77
f 25 22 34
f 66 68 69
f 66 61 68
f 66 52 69
f 66 61 52
f 17 14 34
f 17 25 34
f 17 20 16
f 17 22 16
f 17 25 22
f 17 20 18
f 17 14 18
