v -0.026948649 -0.024256082 -0.039447442
v -0.025535572 -0.024089681 -0.039753582
v -0.027409723 -0.018848605 -0.036718793
v -0.022133274 -0.018736593 -0.039965149
v -0.027601248 -0.015848221 -0.034170594
v 0.018247792 0.002743413 -0.015203436
v 0.020437201 0.003039626 -0.020993242
v 0.010329819 -0.001115889 -0.014711090
v 0.015526016 0.001242477 -0.015034193
v 0.015332388 0.000001178 -0.020476716
v 0.015132256 -0.001184113 -0.025918772
v 0.029046919 0.015113646 -0.036507171
v 0.035027120 0.015743192 -0.027464734
v 0.029816989 0.010761688 -0.032286394
v 0.034861472 0.014425756 -0.032600068
v -0.000114933 0.016744087 0.027443798
v 0.036541484 0.021358959 -0.021795534
v 0.028299211 0.020521112 -0.038388323
v 0.005936524 0.012877607 0.029198209
v 0.011387614 0.013042017 0.028859261
v 0.016815281 0.013408260 0.028521769
v 0.028594382 0.018376183 -0.037664890
v 0.017339796 0.018172327 -0.042419650
v -0.027464639 0.019334501 -0.012361081
v 0.038562238 0.027075423 -0.021921195
v 0.038052872 0.027055407 -0.027344028
v -0.005290754 0.027125891 0.024441727
v -0.028267149 0.024721652 -0.012311192
v -0.031129010 0.024506031 -0.028496813
v 0.030763138 0.031336170 0.021525182
v 0.038200453 0.032513980 -0.021898711
v -0.016037000 0.022953585 -0.040344298
v -0.005464834 0.032586344 0.024452539
v -0.031633791 0.029927909 -0.028465437
v 0.030002467 0.036743637 0.019435575
v -0.005455741 0.038068220 0.024451962
v -0.029007738 0.035596844 -0.012265163
v 0.028583057 0.042353760 -0.021300724
v 0.032634884 0.039403986 -0.021552660
v -0.003698317 0.043781482 0.020533510
v -0.027297825 0.041263320 -0.010470558
v -0.028404392 0.041147977 -0.012302691
v -0.029411690 0.041109279 -0.023149125
v -0.027473390 0.046737328 -0.012360591
v 0.020036297 0.052042581 0.017412342
v -0.027867291 0.045150999 -0.012336096
v 0.023019295 0.048356000 0.017226867
v 0.026275670 0.049962696 -0.015702702
v -0.024730518 0.052538019 -0.012531154
v 0.014743794 0.057114463 -0.011118633
v 0.011167546 0.056199271 0.017963789
v 0.016800288 0.054800320 0.017613551
v -0.023404632 0.053822190 -0.012613600
v -0.018151058 0.055686489 -0.012940270
v 0.003618133 0.059555002 -0.008839376
v 0.009234291 0.058299035 -0.009188585
f 3 1 34
f 5 3 1
f 5 3 34
f 28 5 24
f 31 30 25
f 29 5 34
f 29 28 34
f 29 28 5
f 27 28 24
f 52 21 51
f 52 21 30
f 6 21 7
f 6 11 7
f 20 19 1
f 20 21 1
f 20 21 19
f 32 4 23
f 32 1 34
f 16 19 1
f 16 5 1
f 16 5 24
f 16 27 24
f 2 21 1
f 2 21 8
f 2 4 23
f 2 32 1
f 2 32 4
f 15 11 7
f 35 31 30
f 9 21 8
f 9 6 21
f 9 2 8
f 43 32 34
f 43 32 54
f 37 27 28
f 37 28 34
f 13 21 7
f 13 15 7
f 13 21 30
f 13 15 25
f 14 2 11
f 14 15 11
f 14 15 2
f 12 15 22
f 12 15 2
f 12 22 23
f 12 2 23
f 26 31 25
f 26 15 25
f 26 39 31
f 45 52 30
f 45 35 30
f 50 32 23
f 50 32 54
f 50 52 51
f 10 6 11
f 10 9 6
f 10 2 11
f 10 9 2
f 53 43 54
f 53 54 51
f 53 40 51
f 36 16 19
f 36 40 51
f 36 21 19
f 36 21 51
f 17 30 25
f 17 13 25
f 17 13 30
f 18 15 22
f 18 26 15
f 18 26 39
f 18 39 38
f 18 38 23
f 18 22 23
f 48 39 31
f 48 39 38
f 48 45 52
f 48 50 52
f 48 38 23
f 48 50 23
f 55 54 51
f 55 50 54
f 49 43 44
f 49 53 43
f 49 36 44
f 49 53 40
f 49 36 40
f 41 36 37
f 33 16 27
f 33 36 16
f 33 37 27
f 33 36 37
f 47 45 35
f 47 48 45
f 47 35 31
f 47 48 31
f 56 50 51
f 56 55 51
f 56 55 50
f 46 36 44
f 46 41 36
f 46 43 34
f 46 43 44
f 42 41 37
f 42 46 41
f 42 37 34
f 42 46 34
