v 0.037644155 -0.081638426 0.034210749
v 0.022223383 -0.080881320 0.057564978
v 0.029106891 -0.083532028 0.042690184
v 0.007928339 -0.074408814 0.071933754
v 0.009358514 -0.074729420 0.076056100
v 0.010993073 -0.075038359 0.079323843
v 0.040426146 -0.076297462 0.030078063
v 0.007130156 -0.075105689 0.057864863
v 0.021588070 -0.070533141 0.074713863
v 0.014376190 -0.070260450 0.087680027
v 0.023840111 -0.071559288 0.029186487
v -0.022311535 -0.059382752 0.052942339
v -0.022906529 -0.059539720 0.058519151
v -0.021695403 -0.059816528 0.062143259
v -0.019269444 -0.060221020 0.065636382
v -0.020790881 -0.060900331 0.059289183
v -0.025086068 -0.053779513 0.057489336
v -0.019620225 -0.055038609 0.074092805
v -0.016166171 -0.055586103 0.078352623
v -0.023058103 -0.054409061 0.067727923
v -0.021956079 -0.054638084 0.070451833
v -0.023740670 -0.057806324 0.052422177
v -0.022321587 -0.057872303 0.064525492
v -0.019064920 -0.058161423 0.071504131
v -0.015541162 -0.056008760 0.078580111
v -0.016616466 -0.050260689 0.083491094
v -0.020233251 -0.049631141 0.077617757
v 0.020628273 -0.054932773 0.091744706
v 0.009487068 -0.058635592 0.105069824
v -0.020116488 -0.050753720 0.076914825
v 0.012204902 -0.045140676 0.013364807
v 0.009371451 -0.044853222 0.013930554
v 0.032018814 -0.049902342 0.078510344
v 0.031688381 -0.049889617 0.079098649
v 0.001581000 -0.047746088 0.107985690
v -0.026781209 -0.041925341 0.039728764
v -0.029039836 -0.041876193 0.044700064
v -0.016658140 -0.049198970 0.083967000
v -0.015019847 -0.036927499 0.019544113
v -0.016371874 -0.036811430 0.020343894
v 0.038633049 -0.044548929 0.063537605
v 0.037736684 -0.044668559 0.069004729
v 0.035394937 -0.044609118 0.073945776
v 0.019224815 -0.043852542 0.099372335
v -0.019841380 -0.036612265 0.024874471
v -0.030598456 -0.036202271 0.044132773
v -0.015532807 -0.037821073 0.020649290
v 0.019574732 -0.047543131 0.097154684
v -0.028174339 -0.038218375 0.039221704
v -0.030164927 -0.039394181 0.044290565
v -0.013068808 -0.020317007 0.009959302
v -0.016227232 -0.020075548 0.012573027
v -0.035146520 -0.019657884 0.054064158
v -0.036193285 -0.019758882 0.059476603
v -0.032863826 -0.020632749 0.072275177
v -0.032558646 -0.020705096 0.073253594
v -0.004042367 -0.015493138 0.001657911
v -0.029879574 -0.015927125 0.083544143
v -0.035536509 -0.014668022 0.067465521
v -0.034565095 -0.014941154 0.071655966
v -0.032132100 -0.015473273 0.078334935
v 0.005959053 -0.020622382 -0.000495244
v 0.001076444 -0.018176137 -0.002272368
v 0.012259788 -0.011778753 0.001228626
v -0.006432812 -0.009890103 0.005154821
v -0.013038882 -0.009359135 0.009970194
v -0.014449893 -0.009260556 0.011371197
v -0.025778599 -0.011149205 0.089927860
v -0.029940017 -0.010519657 0.085550889
v -0.033772569 -0.009789269 0.077737860
v -0.033360094 -0.009890103 0.079136923
v 0.011497553 -0.017073316 0.001520606
v -0.029987046 -0.012785009 0.084908985
v -0.033228368 -0.012355093 0.077935934
v 0.007207828 -0.005741738 0.001139070
v 0.030625952 -0.008889484 0.015850352
v -0.025323195 -0.005741738 0.090517320
v -0.029825101 -0.005112191 0.087075830
v -0.031709872 -0.004794746 0.084281929
v 0.031212764 -0.003482017 0.016078776
v -0.024852462 -0.000334271 0.091064669
v -0.029422009 0.000295276 0.087809019
v -0.038114801 0.002402281 0.058777232
v -0.039299887 0.002318424 0.064139202
v -0.038956549 0.002183927 0.066573650
v -0.033118110 0.000924831 0.082153432
v -0.032357875 0.000766298 0.084046073
v -0.038722530 -0.002461694 0.064349346
v 0.021872571 -0.000241067 0.097991034
v 0.018871060 0.000036800 0.099259309
v 0.000960772 0.001925450 0.101036116
v -0.002195570 0.002279454 0.100817688
v -0.004612417 0.002554998 0.100537948
v -0.009756522 0.003184546 0.098860890
v -0.019527676 0.004443648 0.094085991
v -0.018527791 0.004302912 0.094873250
v -0.014833898 0.003814100 0.097000316
v -0.023991460 0.005073196 0.090539761
v -0.034179565 0.008087547 0.042829357
v -0.035510544 0.008021762 0.048138291
v 0.043566950 0.004397437 0.059540026
v 0.021401988 0.005298056 0.097819753
v 0.019815326 0.005444326 0.098505653
v 0.013489882 0.006047633 0.100733295
v 0.013219682 0.006073881 0.100816481
v 0.001928319 0.007332976 0.100218497
v -0.004027181 0.006142037 0.100151040
v 0.043045122 0.009942848 0.059350096
v 0.044274449 0.009592698 0.064766191
v 0.042953242 0.009492863 0.070903398
v 0.038854137 0.009539348 0.080998197
v 0.037744083 0.009592698 0.082708225
v 0.035352062 0.009742546 0.085516982
v 0.025469884 0.010505516 0.093506910
v 0.021533640 0.010851793 0.095625296
v 0.020519350 0.008168042 0.097498499
v 0.013341845 0.006657226 0.100679412
v 0.044053927 0.009999789 0.065510646
v 0.042261556 0.010635827 0.070651650
v 0.038512487 0.010405875 0.080873847
v -0.027206879 0.033999298 0.061146162
v -0.013668035 0.036888570 0.089030847
v -0.028632334 0.040054277 0.050641757
v 0.029537600 0.031578429 0.048640322
v 0.016268717 0.029428704 0.084364519
v -0.016976129 0.045013648 0.031710710
v 0.007161484 0.040335629 0.081049763
v 0.005060927 0.038154822 0.086078659
v -0.002059040 0.037169795 0.089280635
v -0.024691094 0.040697630 0.040489502
v 0.025342003 0.046404883 0.018146319
v 0.025054069 0.046727933 0.018041521
f 126 132 63
f 123 126 122
f 51 52 63
f 42 41 109
f 121 123 122
f 131 64 132
f 131 108 109
f 131 124 132
f 75 132 63
f 75 64 63
f 75 64 132
f 65 66 126
f 39 32 63
f 39 11 47
f 39 11 32
f 31 32 63
f 31 11 32
f 40 39 47
f 40 51 52
f 40 51 63
f 40 39 63
f 22 40 47
f 96 97 122
f 96 81 82
f 96 97 35
f 96 81 35
f 129 106 122
f 127 126 122
f 127 129 122
f 127 129 128
f 127 126 132
f 127 124 132
f 33 10 34
f 33 43 34
f 33 42 43
f 130 123 126
f 67 66 52
f 67 66 126
f 67 130 126
f 80 131 64
f 80 131 108
f 119 131 124
f 7 42 41
f 7 41 109
f 7 72 64
f 7 31 11
f 7 31 63
f 57 126 63
f 57 65 126
f 57 65 66
f 57 52 63
f 57 66 52
f 2 8 3
f 2 8 5
f 4 16 5
f 4 8 5
f 4 8 16
f 6 10 29
f 6 16 5
f 6 2 5
f 6 2 10
f 12 11 47
f 12 22 47
f 12 11 3
f 12 8 3
f 12 8 16
f 28 10 34
f 28 10 29
f 77 81 35
f 77 81 82
f 98 82 122
f 107 97 122
f 107 106 122
f 68 77 35
f 68 77 82
f 87 82 122
f 115 114 116
f 115 114 128
f 115 129 116
f 115 129 128
f 118 131 109
f 118 119 131
f 1 33 42
f 1 7 42
f 1 2 3
f 1 2 10
f 1 11 3
f 1 7 11
f 101 80 108
f 101 7 80
f 101 108 109
f 101 7 109
f 76 80 64
f 76 7 64
f 76 7 80
f 62 7 63
f 62 7 72
f 62 64 63
f 62 72 64
f 45 40 52
f 45 49 52
f 99 49 52
f 99 67 52
f 99 67 130
f 99 130 123
f 14 6 16
f 17 20 54
f 17 50 22
f 17 50 54
f 55 20 56
f 55 20 54
f 55 60 56
f 55 60 54
f 48 44 29
f 48 28 29
f 48 44 34
f 48 28 34
f 95 96 82
f 95 98 82
f 95 96 122
f 95 98 122
f 94 97 35
f 94 107 97
f 91 107 106
f 91 105 35
f 91 105 106
f 90 29 35
f 117 129 116
f 117 129 106
f 117 105 106
f 78 68 82
f 78 87 82
f 86 121 122
f 86 87 122
f 59 60 54
f 89 113 44
f 89 44 29
f 89 90 29
f 112 44 34
f 112 113 44
f 125 127 128
f 125 114 128
f 125 113 114
f 110 118 119
f 110 42 109
f 110 118 109
f 9 33 10
f 9 1 10
f 9 1 33
f 36 45 49
f 36 50 49
f 36 22 40
f 36 45 40
f 100 123 84
f 100 99 123
f 53 54 84
f 53 50 54
f 15 14 6
f 13 12 16
f 13 14 16
f 13 12 22
f 13 17 22
f 13 17 20
f 38 58 35
f 38 26 35
f 38 26 58
f 27 26 58
f 19 29 35
f 19 25 29
f 19 26 35
f 93 107 35
f 93 94 35
f 93 94 107
f 92 107 35
f 92 91 35
f 92 91 107
f 104 105 35
f 104 90 35
f 104 117 105
f 73 58 35
f 73 68 35
f 85 123 84
f 85 86 121
f 85 121 123
f 61 56 58
f 102 113 114
f 102 89 113
f 102 114 116
f 111 43 34
f 111 112 34
f 111 42 43
f 111 110 42
f 37 50 22
f 37 36 22
f 37 36 50
f 83 53 84
f 83 53 99
f 83 100 84
f 83 100 99
f 46 53 99
f 46 53 50
f 46 99 49
f 46 50 49
f 23 13 20
f 23 13 14
f 30 27 26
f 69 78 68
f 69 73 68
f 88 59 60
f 88 85 60
f 88 59 54
f 88 54 84
f 88 85 84
f 71 85 86
f 71 86 87
f 71 73 58
f 103 104 90
f 103 89 90
f 103 102 89
f 103 104 117
f 103 117 116
f 103 102 116
f 120 110 119
f 120 111 110
f 120 127 124
f 120 119 124
f 120 111 112
f 120 125 127
f 120 112 113
f 120 125 113
f 79 69 73
f 79 71 87
f 79 71 73
f 79 78 87
f 79 69 78
f 70 85 60
f 70 71 60
f 70 71 85
f 74 60 56
f 74 71 60
f 74 61 56
f 74 61 58
f 74 71 58
f 21 23 20
f 21 30 26
f 21 18 26
f 21 30 27
f 21 56 58
f 21 20 56
f 21 27 58
f 24 19 26
f 24 18 26
f 24 19 25
f 24 15 6
f 24 6 29
f 24 25 29
f 24 15 14
f 24 23 14
f 24 21 23
f 24 21 18
