v 0.004234333 -0.005215621 0.036027022
v 0.007984114 -0.009819709 0.035441108
v 0.013137554 -0.008272215 0.033677150
v 0.013370326 -0.005215621 0.033233870
v 0.007782370 -0.003892779 0.034781232
v 0.013019667 -0.004808884 0.033291560
v 0.007952894 -0.005165648 0.035338990
v 0.013068927 -0.005201518 0.033452682
v 0.001321966 -0.014121424 0.032270506
v 0.006528627 -0.014135841 0.030680424
v 0.011706416 -0.013303719 0.028996110
v 0.016846670 -0.011368847 0.027189024
v 0.017072083 -0.011252629 0.027105959
v 0.016430002 0.000872240 0.025826164
v 0.002277860 -0.010833109 0.035397094
v 0.002483787 -0.005270349 0.036070652
v 0.007918991 -0.010659909 0.035228100
v 0.012823741 -0.010779911 0.032650717
v -0.010664733 -0.014943010 0.030303979
v -0.005437810 -0.015552672 0.028780170
v 0.021892540 -0.011882183 0.019977592
v 0.025622878 -0.010380573 0.018654305
v 0.026785944 -0.006474716 0.017823216
v -0.011847218 0.019796629 0.026436247
v -0.006625345 0.019335333 0.024895919
v -0.009847830 -0.011515407 0.032975949
v 0.025924958 -0.006301488 0.019642366
v -0.012242883 -0.015656518 0.025142083
v 0.024068214 -0.011784023 0.013569224
v 0.027846610 -0.007104271 0.011844332
v 0.027055144 0.003710693 0.010769678
v -0.028434834 0.020187151 0.028041102
v -0.017424980 0.020425102 0.026812306
v -0.011949907 0.020532200 0.026100365
v -0.006872486 0.020480933 0.024087556
v -0.002188978 0.020272855 0.020786727
v 0.024913948 0.004257480 0.016335499
v -0.065484501 0.019303612 0.031432461
v 0.027608482 -0.009920155 0.006528822
v 0.028260246 -0.007733812 0.006063389
v 0.000033805 0.024711080 0.010743190
v 0.026864920 0.003081152 0.005173354
v -0.061508317 0.019455763 0.031583417
v 0.028169539 -0.007480766 0.008363958
v -0.068542540 0.014708078 0.027195614
v 0.000183442 -0.016031537 0.009926259
v 0.005396827 -0.016245149 0.008358371
v 0.026092671 -0.012465102 0.001570829
v 0.028087713 -0.008363366 0.000461532
v -0.002864087 0.029488992 0.005316246
v 0.027460016 -0.002955870 -0.000004878
v 0.026045891 0.002451597 -0.000230850
v 0.025552027 0.003418233 -0.000197540
v -0.067287989 0.019227372 0.031299055
v 0.026788671 0.002930925 0.003847338
v -0.064418599 -0.000575950 0.022064313
v 0.024454322 -0.011409504 -0.003787973
v 0.025894027 -0.008992914 -0.004522334
v 0.025880508 -0.003585417 -0.005176518
v 0.024246247 0.001822050 -0.005335187
v 0.023987681 0.002299714 -0.005314287
v -0.063443683 0.002242761 0.025253111
v -0.069494523 0.007387183 0.024081806
v -0.068942420 0.013087791 0.025887664
v -0.060829069 -0.000159735 0.015185027
v 0.017680537 -0.012430336 -0.007323927
v 0.022248374 -0.009622462 -0.009062290
v -0.001512384 0.022822428 -0.005747785
v 0.022168623 -0.004214965 -0.009696224
v 0.020834923 0.001192502 -0.009946784
v 0.023057558 -0.009516348 -0.008356580
v 0.022855580 -0.004115985 -0.009017222
v 0.023674292 0.001690784 -0.006339335
v -0.020340100 -0.013156306 -0.001342720
v -0.015114483 -0.013727603 -0.002870801
v 0.010901270 -0.013290671 -0.010877808
v 0.016041685 -0.011360507 -0.012684371
v 0.016957110 -0.010252017 -0.013099195
v 0.015620689 0.001007693 -0.014061383
v -0.004331094 0.022192875 -0.010540625
v 0.017538846 -0.004844520 -0.013935365
v 0.015966658 0.000562947 -0.014113012
v -0.049071189 0.005340896 -0.000541807
v -0.001132517 -0.012730026 -0.012998150
v 0.004063886 -0.012444748 -0.014621579
v 0.008468379 -0.010881564 -0.016158473
v -0.045522250 0.010748363 -0.002285139
v 0.009184726 -0.009937841 -0.016492372
v 0.008949037 -0.003013636 -0.017263277
v 0.010027211 -0.005474067 -0.017293371
v -0.052742098 0.000284894 0.004395917
v 0.009312537 -0.010843461 -0.016074318
v 0.015670566 -0.010384770 -0.013898243
v 0.015193552 -0.005093926 -0.015458486
v 0.015528334 0.000520143 -0.014363463
v -0.039894693 0.008329854 -0.009442409
v -0.019981526 0.015526312 -0.016406583
v -0.012737894 -0.011331597 -0.013717225
v -0.007923617 -0.011487649 -0.016590739
v -0.019217487 0.015565174 -0.016291125
v -0.013225878 0.015877979 -0.015313346
v 0.008883194 -0.005533634 -0.017478636
v -0.030729368 0.009646526 -0.016704388
f 97 103 102
f 97 80 50
f 97 54 50
f 68 61 50
f 68 80 50
f 68 80 61
f 32 43 50
f 41 37 50
f 87 97 103
f 87 97 54
f 38 43 50
f 38 54 50
f 99 103 102
f 99 98 103
f 70 80 61
f 70 59 72
f 95 94 82
f 33 34 50
f 33 32 50
f 5 6 7
f 35 34 50
f 27 3 22
f 64 83 63
f 64 83 87
f 16 38 54
f 16 38 43
f 56 65 63
f 31 37 50
f 31 42 50
f 31 44 30
f 31 44 40
f 96 87 103
f 96 83 87
f 91 83 63
f 91 65 63
f 91 96 83
f 91 98 103
f 91 96 103
f 79 70 80
f 79 70 82
f 79 95 80
f 79 95 82
f 73 70 61
f 73 70 59
f 81 94 82
f 81 70 82
f 88 99 102
f 101 95 80
f 53 61 50
f 53 42 50
f 51 52 59
f 51 31 40
f 51 31 42
f 14 6 37
f 14 35 37
f 14 35 6
f 25 5 6
f 25 35 6
f 25 5 34
f 25 35 34
f 36 41 37
f 36 35 37
f 36 41 50
f 36 35 50
f 4 6 37
f 4 27 37
f 4 27 3
f 45 87 54
f 45 64 87
f 45 54 63
f 45 64 63
f 15 26 54
f 15 16 54
f 24 33 34
f 62 54 63
f 62 56 63
f 62 26 54
f 74 56 65
f 74 91 98
f 74 91 65
f 74 99 98
f 74 56 28
f 23 31 30
f 23 30 22
f 23 27 22
f 23 27 37
f 23 31 37
f 39 48 22
f 39 44 40
f 39 30 22
f 39 44 30
f 60 73 61
f 60 73 59
f 60 52 59
f 60 53 61
f 60 53 52
f 69 70 72
f 69 81 70
f 90 88 102
f 90 88 94
f 100 97 80
f 100 101 80
f 55 53 42
f 55 53 52
f 55 51 42
f 55 51 52
f 49 51 59
f 49 51 40
f 49 39 40
f 49 39 48
f 19 15 26
f 19 15 9
f 19 56 28
f 19 62 26
f 19 62 56
f 11 21 48
f 8 6 7
f 8 4 6
f 8 3 7
f 8 4 3
f 17 15 9
f 75 74 28
f 75 74 99
f 75 84 99
f 89 101 95
f 89 95 94
f 89 90 94
f 89 100 101
f 89 90 102
f 89 97 102
f 89 100 97
f 58 49 48
f 58 49 59
f 29 48 22
f 29 21 22
f 29 21 48
f 20 19 28
f 20 19 9
f 18 3 22
f 18 17 3
f 1 5 7
f 1 5 34
f 1 24 34
f 1 24 33
f 1 33 32
f 1 32 43
f 1 16 43
f 2 3 7
f 2 17 3
f 2 1 7
f 2 17 15
f 2 15 16
f 2 1 16
f 85 84 99
f 85 76 84
f 71 69 72
f 71 59 72
f 71 58 59
f 71 69 81
f 71 67 81
f 47 11 48
f 47 76 48
f 47 20 28
f 47 76 84
f 47 75 84
f 12 18 11
f 12 21 22
f 12 11 21
f 66 76 48
f 66 77 76
f 78 77 67
f 78 81 94
f 78 67 81
f 92 77 76
f 92 85 76
f 57 77 67
f 57 71 67
f 57 66 48
f 57 66 77
f 57 58 48
f 57 71 58
f 10 47 11
f 10 47 20
f 10 20 9
f 10 17 9
f 10 18 11
f 10 18 17
f 46 75 28
f 46 47 28
f 46 47 75
f 13 18 22
f 13 12 22
f 13 12 18
f 93 78 77
f 93 92 77
f 93 92 88
f 93 88 94
f 93 78 94
f 86 85 99
f 86 92 85
f 86 88 99
f 86 92 88
