v -0.005175439 -0.064378507 0.043545026
v -0.010749750 -0.064997606 0.039585900
v -0.011817621 -0.065113865 0.038503472
v -0.005083522 -0.064389445 0.043539308
v -0.010771530 -0.065422580 0.038438428
v -0.005155471 -0.066677958 0.038089223
v 0.000447946 -0.064916544 0.043195367
v 0.000382092 -0.067257516 0.037744902
v -0.010884523 -0.067357823 0.032990951
v -0.005245852 -0.068807803 0.032640345
v 0.016599374 -0.028638801 -0.001445152
v -0.022067286 -0.027668210 0.000959130
v 0.018384235 -0.022910457 -0.007010650
v -0.019775044 -0.021880683 -0.004637918
v -0.022386614 -0.016704546 -0.004475541
v 0.005636133 -0.014460237 0.135599479
v -0.010583286 -0.016330073 0.133557513
v 0.000394801 -0.015071017 0.135844931
v 0.010968263 -0.013811973 0.131625012
v 0.005789800 -0.017288722 0.130135357
v -0.041444048 -0.014392164 0.127617836
v -0.041582618 -0.014368930 0.122171953
v 0.023079829 -0.006826556 0.118151240
v 0.024172029 -0.006659762 0.112628825
v -0.026099849 -0.011656849 -0.004244663
v -0.038326561 -0.017143507 0.127424002
v -0.032591727 -0.016513379 0.132521912
v -0.031077683 -0.006774397 -0.001487299
v 0.031423237 0.000494134 -0.002366955
v -0.044106174 -0.009221923 0.127783358
v -0.044128690 -0.009185151 0.122330256
v -0.043982413 -0.009128693 0.116866656
v 0.015719330 -0.002322536 0.134972483
v 0.019654259 -0.001824159 0.129273236
v 0.020324282 -0.001737930 0.128113389
v 0.022279803 -0.001478513 0.123655483
v 0.023877997 -0.001252699 0.118101604
v 0.015444199 -0.003313062 0.134989589
v 0.020590423 -0.006340045 0.123760536
v -0.035902370 -0.001878118 0.001819340
v 0.032729793 0.006087895 0.003006297
v 0.031412661 0.005973658 -0.002366308
v -0.040234566 0.003018527 0.012997714
v -0.039565042 0.003136019 0.007501578
v 0.033332869 0.011594873 0.009077640
v 0.033333525 0.011599676 0.008423250
v 0.033218075 0.011594869 0.007231435
v 0.029004332 0.011173503 -0.002216569
v 0.033324100 0.011321522 0.008423837
v -0.041380368 0.008365695 0.013068949
v 0.033331096 0.017080210 0.008423390
v 0.008269437 0.013250824 0.135435686
v -0.040549200 0.013943402 0.013017256
v 0.032110788 0.022409873 0.009711331
v 0.007879232 0.018686067 0.135459930
v -0.038817719 0.025067484 0.018364135
v 0.027937459 0.032814562 0.019667802
v 0.027058771 0.032790862 0.008813371
v 0.016739480 0.030706955 0.131324127
v 0.021989549 0.031336471 0.128624767
v 0.024961185 0.031718854 0.123488687
v 0.025732521 0.031848222 0.117986217
v 0.011700577 0.028905891 0.135222301
v -0.036837887 0.030779174 0.018241018
v 0.025375914 0.038002774 0.018962864
v 0.025459282 0.038045656 0.014367380
v 0.024825886 0.038002759 0.010117094
v -0.043384485 0.029189643 0.132996202
v -0.043317553 0.029196030 0.133188754
v 0.024817523 0.037453748 0.008952722
v -0.044166803 0.034597166 0.130558521
v -0.045265514 0.034489028 0.127855361
v 0.018275212 0.042780746 0.002043481
v 0.020721089 0.042973798 0.014661990
v 0.025025530 0.038571309 0.014394349
v 0.013097746 0.047525954 0.020590503
v 0.012030616 0.047519676 0.004293284
v 0.007623897 0.047045063 -0.000887210
v -0.046907026 0.039817713 0.122502916
v -0.049181014 0.039591867 0.117189810
v -0.049615514 0.039580584 0.111762263
v -0.030010745 0.041447531 0.017816486
v 0.013402481 0.047353994 0.020571554
v 0.013042270 0.047546402 0.015139448
v 0.018871091 0.044460174 0.014777020
v 0.018256873 0.043930922 0.003906144
v 0.012575965 0.042836450 -0.001195121
v 0.002187498 0.051707152 0.025002152
v 0.003744254 0.051915701 0.021172091
v -0.007779504 0.050729133 0.000070562
v -0.010202076 0.050448049 0.000014627
v -0.020686595 0.049189009 0.005664979
v -0.016613647 0.049698699 0.000619869
v -0.025567712 0.044472463 0.006631145
v -0.020774351 0.047389824 0.000878585
v 0.007573036 0.050445847 0.020934021
v 0.001020223 0.051039875 0.004977901
v 0.006544021 0.050578788 0.004634433
v -0.004750359 0.050717436 -0.000117790
v 0.000739206 0.050550714 -0.000459129
v -0.046504162 0.041605070 0.106114291
v -0.014462535 0.051777598 0.022304185
v -0.020651665 0.049241643 0.006325457
v -0.015440891 0.051474556 0.006001448
v -0.015607515 0.050000876 0.000557307
v -0.010208707 0.050615244 0.000221610
v -0.003588587 0.052349634 0.021628045
v 0.001906867 0.052132234 0.021286339
f 27 69 18
f 14 13 10
f 63 71 69
f 26 27 21
f 55 69 18
f 55 63 69
f 30 80 81
f 30 27 21
f 30 27 69
f 72 71 69
f 72 80 69
f 72 80 71
f 79 63 71
f 79 80 71
f 17 27 18
f 17 7 18
f 17 7 27
f 11 13 10
f 43 9 32
f 22 9 21
f 22 9 32
f 22 30 21
f 3 26 21
f 3 9 21
f 12 9 40
f 12 14 10
f 12 9 10
f 28 95 40
f 28 12 40
f 25 28 95
f 25 100 13
f 25 12 14
f 25 28 12
f 82 64 81
f 48 87 13
f 48 42 13
f 78 87 13
f 78 100 13
f 52 55 63
f 52 33 63
f 60 33 63
f 60 88 61
f 60 79 88
f 68 80 69
f 68 30 69
f 68 30 80
f 54 58 42
f 19 20 7
f 4 7 27
f 4 1 27
f 23 19 39
f 23 19 7
f 23 24 37
f 23 35 39
f 8 23 7
f 8 23 24
f 8 11 10
f 8 4 7
f 31 22 32
f 31 22 30
f 31 32 81
f 31 30 81
f 2 26 27
f 2 3 26
f 2 1 27
f 44 95 40
f 44 53 95
f 44 9 40
f 44 43 9
f 94 53 64
f 94 53 95
f 94 82 64
f 94 92 95
f 94 82 81
f 94 92 81
f 56 64 81
f 56 53 81
f 56 53 64
f 50 53 81
f 50 32 81
f 50 43 32
f 50 44 43
f 50 44 53
f 93 25 95
f 93 92 95
f 91 25 100
f 91 93 105
f 91 93 25
f 15 14 13
f 15 25 13
f 15 25 14
f 62 24 45
f 62 37 61
f 62 24 37
f 98 78 100
f 59 79 63
f 59 60 63
f 59 60 79
f 34 60 61
f 34 35 61
f 34 60 33
f 34 35 39
f 38 19 39
f 38 34 39
f 38 34 33
f 36 23 37
f 36 23 35
f 36 37 61
f 36 35 61
f 49 24 45
f 49 45 46
f 29 8 11
f 29 8 24
f 29 42 13
f 29 11 13
f 6 2 10
f 6 2 1
f 6 4 1
f 6 8 10
f 6 8 4
f 5 3 9
f 5 2 3
f 5 9 10
f 5 2 10
f 67 70 58
f 67 54 66
f 67 54 58
f 74 62 85
f 57 54 66
f 57 62 54
f 51 62 45
f 51 62 54
f 51 45 46
f 51 47 46
f 51 54 42
f 97 98 100
f 96 62 61
f 16 38 19
f 16 19 20
f 16 7 18
f 16 20 7
f 16 55 18
f 16 52 55
f 16 52 33
f 16 38 33
f 41 29 24
f 41 49 24
f 41 47 46
f 41 49 46
f 41 29 42
f 41 51 42
f 41 51 47
f 99 91 100
f 99 90 91
f 99 97 100
f 106 91 105
f 106 90 91
f 101 79 80
f 101 80 81
f 101 92 81
f 101 103 92
f 107 79 88
f 107 101 79
f 107 101 102
f 86 67 70
f 86 74 85
f 65 57 66
f 65 57 62
f 65 74 62
f 89 96 98
f 89 88 61
f 89 96 61
f 84 98 85
f 84 96 98
f 83 62 85
f 104 101 103
f 104 101 102
f 104 103 92
f 104 93 105
f 104 93 92
f 104 106 105
f 104 107 102
f 104 106 90
f 104 99 90
f 104 99 97
f 104 107 97
f 77 98 85
f 77 86 85
f 77 98 78
f 77 86 78
f 75 86 74
f 75 65 66
f 75 65 74
f 75 67 66
f 75 86 67
f 73 70 58
f 73 86 70
f 73 58 42
f 73 48 42
f 73 48 87
f 73 78 87
f 73 86 78
f 108 107 88
f 108 89 88
f 108 107 97
f 108 97 98
f 108 89 98
f 76 96 62
f 76 83 62
f 76 83 85
f 76 84 85
f 76 84 96
