v -0.105701864 -0.023426974 -0.036024258
v -0.105642371 -0.022915918 -0.030580325
v -0.095968716 -0.033977959 -0.095908329
v -0.094357006 -0.019453388 0.034747675
v -0.093992449 -0.014015009 0.034747675
v -0.094903886 -0.008428138 0.023859696
v -0.090691194 -0.035724234 -0.095908329
v -0.079220742 0.062800661 0.029303746
v -0.079104356 0.063800335 0.034747675
v -0.068336487 0.062136985 0.083743766
v -0.074651212 -0.039179731 -0.090464398
v -0.057477236 0.061258517 0.089187756
v -0.069220066 -0.005937537 -0.085020348
v -0.029894657 0.062793091 0.094631746
v -0.030837527 -0.039459027 -0.095908329
v -0.018759551 0.064284116 0.094631746
v -0.019606791 -0.037147135 -0.095908329
v -0.007755841 0.064645983 0.094631746
v -0.014210160 -0.037869751 -0.095908329
v -0.013796099 -0.034313202 0.117834702
v -0.008388633 -0.034942750 0.116745844
v -0.007759085 -0.029535284 0.117850080
v -0.003632853 -0.041169930 -0.090464398
v -0.007204419 -0.035080619 0.116407827
v 0.007994821 -0.035448555 0.110963777
v 0.013416018 -0.035960168 -0.090464398
v 0.015462989 -0.065454520 -0.003360314
v 0.015356468 -0.066369474 0.002083736
v 0.018648762 -0.038090497 -0.088886663
v 0.017475436 -0.065357760 0.007527666
v 0.028834207 -0.044757064 -0.080148742
v 0.040795643 0.057985045 0.085105315
v 0.035545729 -0.034185488 0.094631746
v 0.029351953 -0.044817343 -0.079576299
v 0.046315704 -0.035830773 0.087474361
v 0.066832356 0.093319237 -0.052472636
v 0.066832356 0.093319237 0.063721970
v 0.051757600 -0.036164593 0.083743766
v 0.066773392 0.093326107 -0.052356288
v 0.065983973 0.098898768 -0.025136275
v 0.064685293 0.027799904 -0.070917174
v 0.069092140 0.065652288 0.063414529
v 0.070150748 0.098413669 0.051079705
v 0.069530517 0.098485872 0.056523755
v 0.068327062 0.098625988 0.061967686
v 0.069716483 0.098464228 0.045635775
v 0.068609543 0.087631576 -0.057800338
v 0.068202145 0.098640531 0.023859696
v 0.068488277 0.098607212 -0.008804245
v 0.067753844 0.098692723 0.002083736
v 0.064426757 -0.021496957 -0.075803086
v 0.069463149 0.021762896 -0.071080849
v 0.061908558 -0.043126885 -0.065226242
v 0.068833604 0.016355431 0.066285446
v 0.069204733 -0.027533978 -0.071969792
v 0.075500228 0.026540808 -0.065364644
v 0.069473840 -0.022084549 -0.074132368
v 0.072962925 0.010393865 0.061967686
v 0.078452803 -0.042251561 -0.057800338
v 0.086315155 0.025281714 -0.050886318
v 0.074986704 -0.033687890 0.061967686
v 0.084032513 -0.041402180 -0.046912357
v 0.084658258 -0.036027335 0.051079705
v 0.093611337 0.040874619 0.026231604
v 0.097868226 0.030361777 0.012971716
v 0.096500665 0.018615138 -0.035227701
v 0.097130209 0.024022605 -0.034422323
v 0.097449131 0.026761949 -0.030580325
v 0.096850701 0.035016727 0.018415766
v 0.095789477 0.040621035 0.018415766
v 0.096547991 0.024090387 -0.036024258
v 0.096767247 0.029545622 -0.030580325
v 0.094777077 0.040738903 0.023859696
v 0.094872095 -0.042449560 -0.019692345
v 0.095513307 -0.036941860 0.023859696
v 0.097501226 -0.019866791 0.022191243
v 0.095289961 -0.025090111 -0.030580325
v 0.097596072 0.018487608 -0.030580325
v 0.097648725 0.023962239 -0.030580325
v 0.097632892 0.018483320 0.018415766
v 0.097475134 0.023982447 0.018415766
v 0.098118693 0.023907524 0.012971716
v 0.098054476 0.029395759 0.012971716
v 0.094287813 -0.035934959 0.029303746
v 0.092842624 -0.035766710 0.034747675
v 0.090418190 -0.035484452 0.040191725
v 0.100380719 -0.042210758 -0.003360314
v 0.100390553 -0.042126272 -0.002984447
v 0.097702771 -0.041813355 -0.014248295
v 0.099367850 -0.042007208 -0.008804245
v 0.097080976 -0.036260147 0.018415766
v 0.097970597 -0.019921437 0.018415766
f 9 8 40
f 9 8 1
f 20 4 10
f 28 7 11
f 28 20 4
f 36 13 8
f 36 47 13
f 3 8 1
f 3 28 7
f 3 13 8
f 3 47 13
f 15 7 11
f 49 36 40
f 45 9 10
f 45 9 40
f 5 4 10
f 5 9 10
f 5 6 9
f 2 9 1
f 2 6 9
f 2 5 6
f 2 5 4
f 2 28 4
f 2 3 1
f 2 3 28
f 55 59 57
f 55 29 57
f 39 8 40
f 39 36 40
f 39 36 8
f 72 49 70
f 72 49 36
f 72 36 47
f 17 47 19
f 17 3 47
f 27 28 11
f 27 15 11
f 27 28 59
f 24 25 22
f 50 49 40
f 50 45 40
f 50 45 48
f 43 49 70
f 64 45 63
f 64 86 63
f 51 29 57
f 51 52 57
f 56 52 47
f 56 52 57
f 41 47 19
f 41 52 19
f 41 52 47
f 31 55 29
f 31 27 15
f 31 27 34
f 87 63 88
f 78 87 67
f 92 76 88
f 80 92 76
f 80 92 88
f 65 83 70
f 68 72 67
f 68 65 83
f 68 72 70
f 68 65 70
f 53 27 59
f 53 27 34
f 53 31 34
f 53 55 59
f 53 31 55
f 21 20 22
f 21 24 22
f 30 24 25
f 30 38 25
f 30 21 24
f 30 38 63
f 30 28 20
f 30 21 20
f 30 87 63
f 30 87 28
f 91 84 76
f 91 75 84
f 91 76 88
f 91 75 88
f 14 20 22
f 44 43 70
f 44 43 45
f 46 45 48
f 46 43 45
f 46 50 48
f 46 50 49
f 46 43 49
f 73 64 86
f 73 64 45
f 73 44 70
f 73 44 45
f 32 18 45
f 32 18 22
f 32 25 22
f 26 51 29
f 26 51 52
f 26 29 19
f 26 52 19
f 60 56 47
f 60 56 57
f 23 29 19
f 23 31 29
f 23 15 19
f 23 31 15
f 71 77 59
f 71 59 57
f 71 60 57
f 71 60 47
f 71 72 47
f 71 72 67
f 82 83 88
f 82 80 88
f 82 80 83
f 79 78 67
f 79 68 67
f 79 78 87
f 79 87 88
f 79 83 88
f 79 68 83
f 61 38 63
f 61 54 38
f 42 54 38
f 42 45 63
f 12 45 10
f 12 14 45
f 12 20 10
f 12 14 20
f 16 18 45
f 16 14 45
f 16 18 22
f 16 14 22
f 85 73 76
f 85 73 86
f 85 84 76
f 85 75 84
f 85 75 88
f 85 63 88
f 85 86 63
f 81 80 76
f 81 73 76
f 81 80 83
f 33 32 25
f 66 77 67
f 66 71 67
f 66 71 77
f 74 28 59
f 74 87 28
f 62 77 59
f 62 89 77
f 62 74 59
f 62 74 89
f 37 42 45
f 37 42 38
f 37 32 45
f 37 32 38
f 58 61 63
f 58 42 63
f 58 61 54
f 58 42 54
f 69 81 83
f 69 81 73
f 69 83 70
f 69 73 70
f 35 32 38
f 35 33 32
f 35 38 25
f 35 33 25
f 90 74 87
f 90 74 89
f 90 89 77
f 90 87 67
f 90 77 67
f 17 3 7
f 17 15 19
f 17 15 7
