v 0.005861897 -0.044351049 -0.005303599
v 0.028826935 -0.041968156 0.011028011
v 0.021623444 -0.039006468 0.002856298
v 0.044982765 -0.037073046 0.091673315
v -0.000744941 -0.040850356 0.087282710
v -0.008392505 -0.036701895 0.095993564
v 0.043637536 -0.025999855 0.014656479
v -0.011496825 -0.029482888 -0.005079421
v 0.014247419 -0.032164853 0.136100665
v 0.006203010 -0.032332048 0.128624126
v 0.002213027 -0.032410778 0.124859259
v -0.004004185 -0.032301970 0.115872130
v -0.015378390 -0.025112446 0.005193448
v 0.049665999 -0.032264758 0.106817737
v -0.019211752 -0.020210739 0.008362729
v -0.017710283 -0.019591816 0.001835316
v -0.017493004 -0.021806074 0.105833158
v -0.017906586 -0.021738563 0.104422770
v 0.049691681 -0.009147900 0.016456706
v -0.019193405 -0.014727207 0.008347539
v -0.017837923 -0.013998468 0.000163135
v -0.001695951 -0.017606933 0.142218336
v 0.004575819 -0.016960511 0.141090333
v -0.007500568 -0.017959775 0.139953747
v -0.016260339 -0.017187072 0.118941329
v -0.020450398 -0.016772047 0.108278215
v -0.021479331 -0.016403494 0.102065250
v 0.060203616 -0.008780609 0.098105498
v 0.060205333 -0.008776529 0.098052569
v -0.016999913 -0.008391121 -0.000529726
v -0.020843780 -0.018073384 0.101539798
v -0.001628603 -0.012115939 0.142162636
v -0.002427500 -0.012182530 0.142093986
v -0.010828218 -0.012457639 0.135641262
v -0.014962108 -0.012034130 0.124931708
v -0.021951824 -0.010994048 0.102455869
v -0.021991616 -0.010923580 0.101457775
v -0.016510151 -0.002836320 -0.000934665
v 0.046818733 0.001667088 0.014957762
v 0.060206048 -0.008502588 0.098103486
v -0.022033634 -0.005525645 0.102523483
v -0.022046996 -0.005516110 0.102378778
v -0.017278066 0.002528442 -0.000299798
v -0.018123627 -0.001026192 0.120481774
v -0.020412022 -0.000847889 0.115310088
v -0.020735217 -0.000738153 0.113439828
v -0.022423266 0.000420244 0.095781863
v -0.022437612 0.000520876 0.094407909
v -0.018977428 0.007445591 0.005242584
v -0.011623083 0.004388552 0.129234701
v -0.018227795 0.004438833 0.120567873
v -0.020419752 0.004631704 0.115316458
v -0.020478783 0.004669318 0.114737973
v -0.021481557 0.006557871 0.088065825
v -0.017499609 0.013456496 -0.000116673
v -0.018006111 0.012636435 0.007365824
v -0.015611234 0.018890126 0.002803636
v -0.014263392 0.019426167 -0.002792293
v 0.043646876 0.023297016 0.015073242
v -0.017352788 0.013771330 -0.000238062
v -0.009578997 0.025556659 -0.005885035
v -0.006849176 0.030964144 -0.001595252
v 0.045537595 0.032594737 0.113674589
v 0.055340923 0.040148996 0.023695102
v -0.000036046 0.036371645 0.007633415
v -0.003881263 0.035106894 0.002751435
v 0.014923725 0.035661474 0.008395132
v 0.041717432 0.037372675 0.118528359
v 0.043045245 0.044297379 0.026783871
v 0.049249236 0.044926923 0.025801392
v 0.038651150 0.035001747 0.122987866
v -0.009734457 0.038082499 0.120609470
v -0.012536928 0.038183153 0.115862727
v -0.014932895 0.038345207 0.110779978
v -0.015308720 0.038373321 0.109946407
v -0.016935401 0.038566697 0.105371930
v -0.016380852 0.039002836 0.100163199
v 0.023786252 0.040002130 0.135277659
v 0.027277628 0.040529523 0.132391095
v 0.037065562 0.042150661 0.122376211
v 0.040294591 0.042780198 0.117795378
v 0.042154200 0.043300699 0.113027968
v 0.045611952 0.044668775 0.098767668
v 0.045872014 0.044910260 0.095826805
v -0.005998676 0.038122833 0.124584511
v 0.009718446 0.036333531 0.139844820
v 0.030035116 0.036873247 0.130111322
v -0.003654593 0.044410363 0.116543971
v -0.004599804 0.044338882 0.116364285
v 0.037640415 0.048187654 0.115573056
v 0.041043822 0.048817188 0.111203186
v 0.043196291 0.049446713 0.105320275
v 0.043234289 0.049468596 0.105071232
v 0.043225516 0.049991250 0.098014824
v 0.017820822 0.040186722 0.133146018
v -0.004591737 0.041177664 0.123421289
v -0.008125170 0.041897163 0.119278952
v -0.011564448 0.041566905 0.115058705
v -0.014806674 0.039040916 0.110675618
v -0.007589231 0.044340305 0.111772113
v -0.014359050 0.042468753 0.103241868
v -0.010243627 0.043679323 0.099839367
v 0.038330559 0.046991307 0.116189219
v 0.043848678 0.049401361 0.097499616
v -0.004138902 0.044547420 0.115983225
v 0.034578726 0.050144419 0.112227365
v 0.038751852 0.050711907 0.108777158
v 0.043076959 0.049585547 0.105201304
v 0.035331797 0.050167803 0.104541093
v 0.039519452 0.050573364 0.101078875
f 59 1 61
f 59 64 61
f 8 1 61
f 83 64 40
f 83 93 40
f 66 102 101
f 23 9 22
f 23 9 78
f 14 9 4
f 14 71 9
f 5 9 4
f 45 52 51
f 32 33 22
f 86 23 78
f 86 32 33
f 86 23 22
f 86 32 22
f 84 93 64
f 84 83 64
f 84 83 93
f 108 94 107
f 108 94 93
f 104 93 64
f 104 94 64
f 104 94 93
f 70 94 64
f 87 9 78
f 87 71 9
f 79 80 71
f 79 87 78
f 79 87 71
f 39 59 64
f 39 19 64
f 39 59 1
f 39 19 1
f 2 5 1
f 2 5 4
f 62 64 61
f 62 66 101
f 62 77 101
f 58 8 61
f 58 62 61
f 49 54 48
f 49 21 15
f 49 21 55
f 13 8 15
f 24 9 22
f 24 33 22
f 24 86 33
f 29 64 40
f 29 19 64
f 28 71 40
f 28 14 71
f 28 29 40
f 28 29 14
f 75 52 51
f 91 108 107
f 110 94 107
f 110 70 94
f 110 109 107
f 110 109 102
f 65 66 102
f 65 70 66
f 68 80 71
f 68 71 40
f 68 63 40
f 3 19 1
f 3 2 1
f 7 2 4
f 7 14 4
f 7 3 19
f 7 3 2
f 7 29 19
f 7 29 14
f 67 70 64
f 67 62 64
f 67 70 66
f 67 62 66
f 60 58 8
f 60 21 55
f 57 62 77
f 57 58 62
f 57 60 58
f 57 77 55
f 57 60 55
f 16 8 15
f 16 21 15
f 16 21 8
f 20 15 48
f 20 49 48
f 20 49 15
f 56 49 55
f 46 45 52
f 31 27 15
f 37 15 48
f 37 27 15
f 37 47 48
f 10 5 9
f 10 24 9
f 6 31 18
f 6 13 8
f 6 8 1
f 6 5 1
f 6 13 15
f 6 31 15
f 44 45 51
f 73 72 51
f 76 75 52
f 76 53 52
f 76 77 101
f 76 53 47
f 76 47 48
f 76 54 48
f 76 49 54
f 76 56 49
f 76 77 55
f 76 56 55
f 95 86 78
f 92 91 63
f 92 93 40
f 92 63 40
f 92 108 93
f 92 91 108
f 103 91 80
f 90 106 107
f 90 91 107
f 90 103 91
f 90 106 78
f 90 79 78
f 90 79 80
f 90 103 80
f 69 65 102
f 69 65 70
f 69 110 102
f 69 110 70
f 81 68 63
f 81 91 80
f 81 68 80
f 30 21 8
f 41 46 52
f 41 53 52
f 36 37 27
f 36 46 45
f 36 41 46
f 36 37 47
f 12 6 24
f 34 25 24
f 34 44 45
f 34 44 51
f 34 85 72
f 34 24 86
f 34 85 86
f 17 6 24
f 17 25 24
f 17 6 18
f 96 85 86
f 74 75 51
f 74 73 51
f 88 95 86
f 88 95 78
f 88 106 78
f 88 105 106
f 82 91 63
f 82 81 63
f 82 81 91
f 38 60 8
f 38 30 8
f 43 60 21
f 43 30 21
f 43 38 60
f 43 38 30
f 42 53 47
f 42 41 53
f 42 36 47
f 42 36 41
f 11 12 6
f 11 10 5
f 11 6 5
f 11 10 24
f 11 12 24
f 26 31 27
f 26 36 45
f 26 36 27
f 26 31 18
f 26 17 18
f 26 17 25
f 26 34 25
f 50 72 51
f 50 34 51
f 50 34 72
f 97 85 72
f 97 96 85
f 89 88 105
f 89 97 96
f 89 96 86
f 89 88 86
f 35 34 45
f 35 26 45
f 35 26 34
f 98 73 72
f 98 97 72
f 98 76 101
f 99 74 73
f 99 98 73
f 99 74 75
f 99 76 75
f 99 98 76
f 100 89 97
f 100 98 97
f 100 98 101
f 100 89 105
f 100 102 101
f 100 105 106
f 100 106 107
f 100 109 107
f 100 109 102
