v -0.211324379 -0.020116081 -0.041584235
v -0.211343810 -0.020283040 -0.036140304
v -0.211277038 -0.019709464 -0.030696254
v -0.205819935 -0.019912736 -0.052472334
v -0.208115473 -0.017355341 -0.025252324
v -0.178772867 -0.022977270 -0.085136272
v -0.181037694 -0.042430889 -0.024331789
v -0.172224000 0.033273827 -0.000959258
v -0.165362805 0.045131035 0.034631748
v -0.159520358 0.048237182 0.038126845
v -0.165444776 -0.049727038 -0.041506510
v -0.153741986 0.050793443 0.040075798
v -0.165380836 -0.049734481 -0.041584235
v -0.142324433 0.054710563 0.045519788
v -0.158132195 -0.045097593 -0.052472334
v -0.136736989 0.055626370 0.040075798
v -0.119973049 0.058389269 -0.041584235
v -0.114232875 0.060617473 -0.041584235
v -0.115984090 0.054130130 -0.063360311
v -0.117122926 0.059743475 -0.041584235
v -0.117863223 0.059829660 -0.036140304
v -0.109494224 0.054242689 -0.074248292
v -0.108582020 0.062078025 -0.041584235
v -0.104186475 0.052756626 -0.077493645
v -0.103163250 0.061545514 -0.047028285
v -0.099932916 0.042215608 -0.085136272
v -0.099408552 0.046719611 -0.083632447
v -0.098779008 0.052127078 -0.078172661
v -0.100373201 -0.008642904 0.148955837
v -0.094979204 -0.009388677 0.154399887
v -0.089481585 -0.009243826 0.159683064
v -0.080111921 -0.022917036 -0.096024252
v -0.076778010 0.005719479 0.173194185
v -0.080155447 -0.004848833 0.170731857
v -0.074767195 -0.024086004 -0.096024252
v -0.069292538 -0.024138425 -0.096024252
v -0.062734731 0.032189518 0.148955837
v 0.024264732 -0.020839134 -0.096024252
v 0.051000260 0.067574166 0.107443832
v 0.056162436 0.064837702 0.105403803
v 0.053114153 -0.102575950 0.083069347
v 0.058225244 -0.105751216 0.094515823
v 0.064130202 -0.102108106 0.078183793
v 0.063751578 -0.105360284 0.094515823
v 0.063635118 -0.106360607 0.099959813
v 0.100804314 -0.022481764 -0.096024252
v 0.091110773 -0.105743907 0.127179876
v 0.091932915 -0.098682173 0.127179876
v 0.090106413 -0.106882662 0.127179876
v 0.090409443 -0.090475596 0.127179876
v 0.092321292 -0.101659730 0.127179876
v 0.111726582 -0.022818923 -0.096024252
v 0.122497998 0.069701545 0.018299717
v 0.122526444 0.069945939 0.023743767
v 0.117185742 -0.023004495 -0.096024252
v 0.133432716 0.069470830 0.029187758
v 0.128098130 -0.023426974 -0.096024252
v 0.143990979 0.066007063 -0.025252324
v 0.144048095 0.066497639 -0.019808274
v 0.149263799 0.064221010 -0.030696254
v 0.149465337 0.065952159 -0.019808274
v 0.149511158 0.066345692 -0.014364224
v 0.149528891 0.066497967 0.023743767
v 0.154579267 0.062800661 -0.030696254
v 0.160089001 0.063049532 -0.025252324
v 0.160190880 0.063924700 -0.014364224
v 0.165504694 0.062490676 -0.008920293
v 0.165463522 0.062136985 0.023743767
v 0.225853667 -0.013071143 -0.085136272
v 0.243891597 -0.017438348 -0.085136272
v 0.241633832 -0.036831401 -0.064506032
v 0.241633832 -0.036831401 -0.058947545
v 0.249335781 -0.017752571 -0.079692341
v 0.255314767 -0.013473096 -0.041584235
v 0.252812862 -0.027171304 -0.057916265
v 0.251533091 -0.027022311 -0.052472334
v 0.260731697 -0.014021475 -0.068804242
v 0.260614574 -0.015027364 -0.063360311
v 0.260601044 -0.015143523 -0.052472334
v 0.260667294 -0.014574565 -0.047028285
v 0.256214231 -0.016605778 -0.074248292
f 34 33 49
f 29 9 33
f 29 34 33
f 29 34 30
f 29 5 9
f 29 7 30
f 75 71 77
f 17 8 9
f 31 30 49
f 31 34 49
f 31 34 30
f 39 50 33
f 45 30 49
f 45 7 30
f 43 71 15
f 43 71 49
f 80 51 74
f 72 71 49
f 72 75 71
f 19 17 8
f 19 4 8
f 35 6 15
f 35 36 15
f 57 71 15
f 57 36 15
f 47 33 49
f 47 51 33
f 47 80 49
f 47 80 51
f 48 50 33
f 48 51 33
f 48 50 74
f 48 51 74
f 37 39 33
f 54 39 23
f 54 39 56
f 68 50 74
f 68 39 56
f 68 80 74
f 68 80 77
f 3 29 5
f 3 5 9
f 3 7 2
f 3 29 7
f 42 11 7
f 42 45 7
f 78 75 77
f 78 80 77
f 76 80 49
f 76 80 75
f 76 72 49
f 76 72 75
f 1 4 11
f 1 7 2
f 1 11 7
f 1 4 8
f 1 3 2
f 1 8 9
f 1 3 9
f 22 19 17
f 22 27 6
f 22 4 6
f 22 19 4
f 69 57 27
f 69 60 27
f 26 57 27
f 26 27 6
f 40 39 50
f 40 68 50
f 40 68 39
f 67 68 77
f 41 42 43
f 44 42 45
f 44 42 43
f 44 45 49
f 44 43 49
f 79 80 75
f 79 78 75
f 79 78 80
f 25 22 23
f 28 60 27
f 20 22 17
f 20 17 9
f 70 69 60
f 70 69 57
f 70 57 71
f 14 37 39
f 14 37 33
f 14 21 23
f 53 54 56
f 53 59 56
f 53 54 23
f 53 59 23
f 64 70 77
f 64 70 60
f 65 64 60
f 65 67 77
f 65 64 77
f 63 68 56
f 63 67 68
f 13 41 43
f 13 43 15
f 13 42 11
f 13 41 42
f 13 6 15
f 13 4 6
f 13 4 11
f 58 22 60
f 58 25 22
f 58 59 23
f 58 25 23
f 24 22 60
f 24 28 60
f 24 22 27
f 24 28 27
f 18 22 23
f 18 20 22
f 18 21 23
f 18 20 21
f 81 71 77
f 81 70 77
f 32 38 26
f 32 35 6
f 32 26 6
f 46 38 26
f 16 39 23
f 16 14 23
f 16 14 39
f 10 9 33
f 10 14 33
f 10 20 9
f 62 59 56
f 62 63 56
f 73 70 71
f 73 81 71
f 73 81 70
f 55 26 57
f 12 14 21
f 12 10 14
f 12 20 21
f 12 10 20
f 66 65 67
f 66 63 67
f 66 62 63
f 61 65 60
f 61 58 60
f 61 66 65
f 61 66 62
f 61 58 59
f 61 62 59
f 52 46 26
f 52 55 26
f 52 57 36
f 52 35 36
f 52 32 35
f 52 32 38
f 52 46 38
f 52 55 57
