v 0.270535499 0.022750400 0.058468319
v 0.282373905 0.022227371 0.059949808
v 0.285243303 0.002424050 0.050715066
v 0.290430069 0.002992563 0.049060103
v 0.286218226 0.005242761 0.053903867
v 0.354842484 0.004824512 0.017681785
v 0.345330805 0.025192875 0.018110128
v 0.224834040 0.020045795 0.057946771
v 0.339866281 0.024563327 0.014126259
v 0.358610928 -0.000013636 0.011387477
v 0.342987895 0.024894599 0.016147336
v 0.359149873 0.003187955 0.013150321
v 0.336054176 0.024206690 0.012088452
v 0.347747803 -0.002686942 0.013096180
v 0.353130311 -0.002616699 0.012081503
v 0.165696368 0.020162329 0.050717570
v 0.157961532 0.000296621 0.044038393
v 0.140706718 0.001295441 0.043460935
v 0.156498894 -0.003810023 0.039254326
v 0.157846600 -0.000267041 0.043662436
v 0.160133943 -0.004729681 0.032523695
v 0.108089186 0.015019621 0.048494592
v 0.090193488 0.014613091 0.045820698
v 0.068870418 -0.006099922 0.031936578
v 0.097343571 0.043625355 0.013347256
v 0.060521647 -0.007928359 0.023249280
v 0.023990683 0.005073935 0.034102779
v 0.011882534 -0.002592850 0.031739011
v 0.058952570 -0.008907896 0.018117059
v 0.005221960 -0.006941345 0.028573558
v 0.057375088 -0.009640549 0.012957351
v 0.045041822 0.046796717 0.009857255
v 0.103501424 0.047412038 -0.003751703
v 0.108173743 0.047199480 -0.007089351
v 0.048640970 0.046931494 0.003009229
v 0.031554297 0.042990535 0.002981741
v 0.059658650 -0.009028035 -0.005008992
v 0.038919155 0.045046784 -0.005251438
v 0.105982862 0.045046784 -0.025754871
v 0.123668872 0.042793125 -0.030887663
v 0.035836004 0.045344658 -0.001633324
v 0.114229411 0.045464683 -0.024522556
v 0.038779918 0.042454865 -0.010624511
v -0.008213253 -0.000565478 0.003248853
v 0.042432632 0.041015949 -0.017297331
v -0.009829719 -0.000152785 -0.002038371
v 0.129770711 0.037880152 -0.048169635
v -0.011504473 0.001972316 -0.007516246
v 0.154132634 0.030142831 -0.061586108
v -0.009898221 -0.000128307 -0.002262431
v -0.002160130 0.009768407 -0.014192473
v 0.143106878 0.031490609 -0.060409524
v -0.010416484 -0.006556100 -0.041197792
v -0.005210622 -0.006550387 -0.042790081
v -0.000005219 -0.006527829 -0.044384278
v -0.004720445 -0.004285700 -0.041186783
f 15 55 49
f 10 15 49
f 52 55 49
f 53 51 48
f 53 52 55
f 53 50 48
f 53 31 30
f 7 2 33
f 25 2 33
f 25 32 33
f 25 32 2
f 1 2 8
f 1 32 8
f 1 32 2
f 36 51 48
f 37 15 55
f 37 31 15
f 37 53 31
f 38 39 45
f 47 39 45
f 47 52 45
f 47 52 49
f 47 7 49
f 56 52 45
f 56 53 45
f 56 53 52
f 4 3 15
f 42 47 39
f 13 10 49
f 13 10 12
f 16 32 8
f 27 23 32
f 27 36 32
f 22 16 8
f 22 23 32
f 22 16 32
f 44 50 48
f 44 36 48
f 44 36 30
f 44 53 30
f 54 53 55
f 54 37 55
f 54 37 53
f 35 38 39
f 35 42 39
f 35 32 33
f 41 38 45
f 41 53 51
f 41 36 51
f 41 36 32
f 41 35 32
f 41 35 38
f 14 3 15
f 14 19 3
f 14 21 19
f 14 31 15
f 14 21 31
f 6 10 15
f 6 10 12
f 6 7 12
f 6 7 2
f 34 7 33
f 34 42 7
f 34 35 33
f 34 35 42
f 40 47 7
f 40 42 7
f 40 42 47
f 11 7 49
f 11 7 12
f 28 36 30
f 28 27 36
f 28 27 23
f 28 22 23
f 46 53 50
f 46 44 50
f 46 44 53
f 43 53 45
f 43 41 45
f 43 41 53
f 24 19 30
f 24 26 30
f 24 26 19
f 29 26 19
f 29 21 31
f 29 21 19
f 29 31 30
f 29 26 30
f 20 19 3
f 20 19 30
f 9 13 49
f 9 11 49
f 9 13 12
f 9 11 12
f 5 20 3
f 5 2 8
f 5 4 3
f 5 6 2
f 5 4 15
f 5 6 15
f 18 28 22
f 18 28 30
f 17 5 8
f 17 5 20
f 17 22 8
f 17 18 22
f 17 20 30
f 17 18 30
