v -0.149799272 0.069958776 0.011655841
v -0.149432629 0.073107995 0.011655841
v -0.149225995 0.074882895 0.017099891
v -0.148644090 0.079881079 0.038875852
v -0.149706557 0.070755079 0.047249231
v -0.148547202 0.080713265 0.044319902
v -0.149355844 0.073767483 0.049763892
v -0.149837285 0.070770301 0.011655841
v -0.151684538 0.070985362 0.017099891
v -0.152139723 0.065557599 0.022543821
v -0.152620971 0.071094386 0.022543821
v -0.152377784 0.065585315 0.027987871
v -0.152857736 0.071121946 0.027987871
v -0.152521029 0.071082748 0.033431862
v -0.151069134 0.076394536 0.038875852
v -0.150752589 0.070876867 0.044319902
v -0.151287824 0.076419994 0.044319902
v -0.149256930 0.076183558 0.049763892
v -0.144890189 0.065047890 0.049763892
v -0.148407251 0.070603818 0.049763892
v -0.135652781 0.097315349 0.060651872
v -0.135664359 0.097215883 0.066095866
v -0.135743812 0.096533433 0.067200281
v -0.140378445 0.091592185 0.055207882
v -0.140856057 0.091647789 0.060651872
v -0.139818072 0.091526948 0.066095866
v -0.136283472 0.096596263 0.066095866
v -0.130965903 0.090496361 -0.008360591
v -0.132151738 0.080310658 0.082427897
v -0.130965903 0.090496361 0.077716626
v -0.138253078 0.074902467 -0.010120120
v -0.137604699 0.080307744 -0.010120120
v -0.135605454 0.085555747 -0.010120120
v -0.134591147 0.085437655 0.082427897
v -0.131573290 0.101528652 0.060651872
v -0.131278291 0.096013546 0.071539916
v -0.126656681 0.080433540 0.087871946
v -0.130497798 0.057557240 -0.021008160
v -0.124849372 0.095265083 -0.010120120
v -0.120433845 0.039730269 -0.031896200
v -0.113543995 0.104910411 -0.004676189
v -0.107447326 0.104200624 0.004877303
v -0.129089683 -0.035779856 -0.031896200
v -0.110100590 0.104509518 0.000767861
v -0.121270485 -0.031209392 -0.042784180
v -0.100715794 0.067867383 -0.042784180
v -0.097802900 0.092887491 -0.026452150
v -0.092627704 0.080552191 -0.037340190
v -0.094484828 -0.034327831 0.011655841
v -0.064333551 0.050832808 -0.064560197
v -0.074518733 -0.036652323 0.030798350
v -0.069088906 0.050407898 -0.064560197
v -0.060680248 -0.032782666 0.049763892
v -0.047092218 -0.036457721 0.060651872
v -0.041649811 -0.036787160 0.066095866
v -0.033741489 -0.035918929 0.071539916
v -0.024925020 -0.034361057 0.076983906
v -0.009559947 0.003462504 -0.086336218
v 0.010258149 0.079535604 -0.043201115
v -0.002962387 -0.034021500 0.081833638
v 0.007380387 0.007740510 -0.091780208
v 0.025095938 -0.028400013 0.087871946
v 0.032259148 0.033128005 0.081736602
v 0.032131597 0.032032419 0.082427897
v 0.031629600 0.027720537 0.083781995
v 0.034284987 0.003452126 -0.080892168
v 0.030741569 -0.026983859 0.088375427
v 0.036061212 -0.028368274 0.087871946
v 0.047417097 0.080690250 -0.042784180
v 0.050741330 0.003572412 -0.073894583
v 0.056939717 0.009736433 -0.070004188
v 0.062503964 0.057530247 -0.059116211
v 0.057092011 0.008313813 -0.070004188
v 0.068222888 0.012498695 -0.063221656
v 0.076871045 0.086781606 -0.037340190
v 0.066260107 0.007246446 -0.064560197
v 0.087302320 0.082227118 0.033431862
v 0.085019663 -0.031533584 0.060651872
v 0.099667124 0.047203336 0.043221030
v 0.104073972 0.085055664 0.022918139
v 0.109481439 0.084426120 0.019734297
v 0.104756184 0.084976241 0.022543821
v 0.114888899 0.083796568 0.016094062
v 0.110074878 0.078876264 -0.031896200
v 0.120296367 0.083167024 0.012198601
v 0.124301575 0.070492320 -0.026452150
v 0.125703901 0.082537465 0.008487258
v 0.131111369 0.081907921 0.004243646
v 0.123674616 -0.029046329 0.038875852
v 0.136518836 0.081278369 -0.000034179
v 0.135483339 0.081398927 0.000767861
v 0.139596507 0.060637258 -0.015564170
v 0.141817763 0.079716526 -0.004676189
v 0.126558706 -0.098427556 -0.024058547
v 0.145445183 0.063796870 -0.007648315
v 0.136744082 -0.105094150 0.020066533
v 0.154371470 0.046315312 0.008583996
v 0.159149379 0.040278297 0.004167411
v 0.140035033 -0.105477288 -0.015564170
v 0.139601067 -0.105426766 0.017099891
v 0.147810534 -0.104193315 -0.015564170
v 0.147325233 -0.108361863 -0.010120120
v 0.147435099 -0.107418194 -0.004676189
v 0.153110772 -0.105743907 -0.010120120
v 0.153596088 -0.101575300 -0.007955756
v 0.152106419 -0.106882662 -0.010120120
v 0.167040244 -0.033174228 0.000767861
v 0.154321298 -0.101659730 -0.010120120
v 0.163357094 -0.031461634 0.006211851
f 86 101 107
f 96 43 102
f 108 101 107
f 94 101 61
f 92 86 107
f 92 86 93
f 72 70 61
f 98 97 93
f 98 92 107
f 106 101 102
f 45 94 43
f 99 43 102
f 99 94 43
f 99 101 102
f 99 94 101
f 66 101 61
f 66 70 61
f 66 70 101
f 74 86 101
f 50 72 61
f 84 72 86
f 84 75 72
f 84 86 93
f 84 75 93
f 109 89 97
f 109 98 107
f 109 98 97
f 109 89 96
f 51 96 43
f 51 55 96
f 19 20 43
f 95 92 93
f 95 98 93
f 95 98 92
f 104 108 101
f 104 106 101
f 103 106 102
f 31 8 43
f 31 8 32
f 31 45 43
f 76 70 101
f 76 74 101
f 71 74 86
f 71 72 86
f 71 72 70
f 52 50 61
f 69 75 72
f 69 50 72
f 78 89 96
f 78 68 96
f 78 68 89
f 14 12 13
f 16 12 43
f 16 14 12
f 10 12 43
f 90 97 93
f 90 75 93
f 83 81 97
f 83 87 97
f 105 104 108
f 105 108 107
f 100 104 106
f 100 103 106
f 100 105 104
f 100 96 102
f 100 103 102
f 100 105 107
f 100 109 107
f 100 109 96
f 2 8 32
f 33 2 32
f 33 2 3
f 41 75 47
f 73 71 70
f 73 71 74
f 73 76 70
f 73 76 74
f 58 52 61
f 58 52 45
f 58 94 61
f 58 45 94
f 46 52 45
f 46 33 32
f 48 50 47
f 48 52 50
f 48 46 47
f 48 46 52
f 59 69 50
f 59 50 47
f 59 69 75
f 59 75 47
f 57 60 96
f 57 60 37
f 62 68 96
f 62 60 96
f 62 68 67
f 62 37 67
f 62 60 37
f 49 51 43
f 54 51 55
f 54 49 51
f 54 49 53
f 1 8 43
f 9 2 8
f 9 1 8
f 9 10 43
f 9 1 43
f 88 87 97
f 88 90 97
f 39 41 47
f 39 46 47
f 39 46 33
f 39 41 35
f 38 46 32
f 38 31 32
f 38 31 45
f 56 55 96
f 56 57 96
f 56 55 37
f 56 57 37
f 79 89 97
f 11 9 10
f 11 12 13
f 11 10 12
f 11 2 3
f 11 9 2
f 85 88 81
f 85 88 87
f 85 83 81
f 85 83 87
f 91 88 81
f 91 88 90
f 28 33 35
f 28 39 35
f 28 39 33
f 34 30 37
f 34 30 36
f 44 41 35
f 44 42 35
f 40 46 45
f 40 38 45
f 40 38 46
f 65 79 64
f 65 68 67
f 65 68 89
f 65 79 89
f 65 37 67
f 65 64 37
f 63 64 37
f 82 81 97
f 82 79 97
f 82 91 81
f 77 79 64
f 77 63 64
f 77 63 37
f 77 30 37
f 77 30 36
f 29 34 37
f 29 19 43
f 29 19 20
f 29 34 20
f 29 49 43
f 29 49 53
f 29 54 53
f 29 55 37
f 29 54 55
f 7 34 20
f 4 11 3
f 4 33 3
f 80 82 79
f 80 77 79
f 80 42 35
f 80 36 35
f 80 77 36
f 80 44 42
f 80 44 41
f 80 41 75
f 80 90 75
f 80 91 90
f 80 82 91
f 5 7 20
f 5 7 16
f 5 20 43
f 5 16 43
f 15 4 11
f 15 4 6
f 15 11 13
f 24 4 6
f 24 4 33
f 24 33 35
f 24 21 35
f 18 7 34
f 17 7 16
f 17 18 7
f 17 16 14
f 17 14 13
f 17 15 13
f 17 15 6
f 26 18 34
f 26 17 18
f 25 24 21
f 25 24 6
f 25 17 6
f 25 26 17
f 27 25 21
f 27 25 26
f 27 21 35
f 22 36 35
f 22 27 35
f 23 26 34
f 23 27 26
f 23 22 27
f 23 34 36
f 23 22 36
