v -0.005362373 0.154051259 0.069775470
v -0.007698445 0.152438596 0.070035264
v 0.000236087 0.156954408 0.069145925
v 0.004335636 0.151690319 0.068631582
v -0.010900009 0.147183165 0.070369318
v -0.013281249 0.141876727 0.070607699
v -0.005429158 0.152297497 0.070137814
v -0.005664003 0.146857604 0.071024373
v -0.011458435 0.141763389 0.071141571
v -0.005907425 0.141418234 0.071837112
v -0.000199394 0.146517813 0.070976064
v -0.000455350 0.141079232 0.071680926
v -0.011715675 0.136324823 0.071835421
v -0.006181863 0.135980740 0.072382949
v -0.012075074 0.130892664 0.071650021
v -0.006513195 0.130546838 0.072439104
v -0.000765780 0.135643974 0.071917005
v 0.004453274 0.135319442 0.069755621
v -0.001141744 0.130212843 0.071589045
v 0.004090704 0.129887477 0.069542930
v -0.006982297 0.125121504 0.071309566
v -0.001537576 0.124782942 0.071090095
v -0.010771530 0.163538665 0.065422438
v 0.000382092 0.162845150 0.067257375
v -0.010884523 0.158091202 0.067357697
v -0.005245852 0.157740593 0.068807684
v -0.011011413 0.152644590 0.069173366
v 0.000253957 0.157398626 0.069062322
v 0.033959273 0.029848786 0.042386834
v 0.034145139 0.024382725 0.042325776
v 0.032560803 0.020322774 0.042480554
v 0.001437433 -0.000856078 0.045943983
v 0.008749519 -0.001310746 0.045091085
v 0.027799854 0.008413704 0.042947773
v 0.026339002 0.007394351 0.043110155
v 0.004088033 -0.001921467 0.045628309
v 0.033278886 0.029891100 0.043536123
v 0.033031117 0.024452006 0.044311441
v 0.004812482 0.004388581 0.048475374
v 0.004279865 -0.001032815 0.046799198
v 0.010226289 0.004051949 0.047989834
v 0.027240997 0.013902984 0.047373511
v 0.021526227 0.008803827 0.048176300
v 0.026745439 0.008479285 0.046016272
v -0.024643667 0.022583703 0.043662887
v -0.020800125 0.011435641 0.043135814
v -0.018061599 0.005810854 0.042777009
v -0.017755432 0.005460132 0.042738903
v -0.012498613 0.002868867 0.042109389
v 0.002408972 -0.000916520 0.040349904
v 0.003505014 -0.001154037 0.040220838
v -0.021721736 0.022402035 0.046781901
v -0.017076332 0.011204110 0.045498937
v -0.011466875 0.010855322 0.046697244
v -0.017645760 0.005785001 0.043505959
v -0.011961911 0.005431591 0.045344502
v -0.013076886 0.003712742 0.036701854
v -0.018310888 0.005826326 0.037781626
v -0.013713419 0.005540420 0.031308252
v -0.013598708 0.005464370 0.031294376
v -0.008342348 0.002866206 0.030664867
v 0.013058635 -0.001487770 0.028146787
v 0.021888357 0.003326686 0.027155591
v 0.018620882 0.000832975 0.027517246
v 0.029997192 0.013731471 0.024015861
v -0.034847323 0.045036033 0.017606724
v 0.041191582 0.045722693 0.008776482
v -0.035365831 0.044505205 0.012182321
v 0.040827796 0.045785055 0.003338384
v 0.040167715 0.040371504 -0.002104758
v 0.032729793 0.128106281 -0.006087905
v 0.037879933 0.040513728 -0.007318663
v 0.039347745 0.040422477 -0.004205678
v -0.040234566 0.138097703 -0.003018575
v 0.033218075 0.132331386 -0.011594895
v -0.041380368 0.138168916 -0.008365744
v 0.032788359 0.135564432 -0.017002443
v 0.033331096 0.133523330 -0.017080240
v -0.038865820 0.143467098 -0.014100426
v 0.032110788 0.134811252 -0.022409908
v 0.032656133 0.133565262 -0.022482269
v -0.023757672 0.038891781 -0.016610837
v 0.028922755 0.041070595 -0.022716213
v -0.038358748 0.144367814 -0.019633599
v -0.040911335 0.138139695 -0.019381966
v 0.028620070 0.139270768 -0.027452873
v 0.031738199 0.133622333 -0.024970390
v -0.038817719 0.143464044 -0.025067551
v -0.039080855 0.142898381 -0.025041061
v 0.029432353 0.128311157 -0.033107132
v 0.023342831 0.046872061 -0.032987494
v -0.038896680 0.143468961 -0.023766266
v -0.034026969 0.147187710 -0.031078078
v -0.036837887 0.143340901 -0.030779241
v 0.024306919 0.134084329 -0.037950672
v 0.026415685 0.128498703 -0.038236018
v 0.024817523 0.134052590 -0.037453782
v 0.002675539 0.050529703 -0.041521266
v 0.019080549 0.134409279 -0.042821873
v -0.034492671 0.143195048 -0.036533609
v -0.034845412 0.143216982 -0.035978023
v 0.024094958 0.128642991 -0.040764719
v -0.024219720 0.049829468 -0.036333729
v -0.028953305 0.142850578 -0.042660490
v 0.018687760 0.134433702 -0.043130282
v -0.008349635 0.048842642 -0.040985923
v -0.043458287 0.105570786 -0.052205753
v -0.043111872 0.100094743 -0.052285537
v -0.043061081 0.116455071 -0.057654146
v -0.043807339 0.111046970 -0.057606481
v -0.043753687 0.105589129 -0.057652116
v -0.043003209 0.100087956 -0.057779029
v -0.040757917 0.094493836 -0.058080301
v -0.038656190 0.121635705 -0.063609324
v -0.039480086 0.120351419 -0.063522860
v -0.041130945 0.116335019 -0.063360043
v -0.042122312 0.110942163 -0.063283779
v -0.042208880 0.105493039 -0.063313060
v -0.041264940 0.099979840 -0.063462541
v -0.040823296 0.098749384 -0.063522741
v -0.003176568 0.103065990 -0.067865871
v -0.040557649 0.094481379 -0.058970045
v -0.034684494 0.120486826 -0.069559857
v -0.037966076 0.116138197 -0.069209956
v -0.039000522 0.110748015 -0.069128670
v -0.034548234 0.121380240 -0.068867937
v -0.040008407 0.116265208 -0.065873981
v -0.040495932 0.110841013 -0.067162067
v -0.040799130 0.105405360 -0.066863760
v -0.040851433 0.099954121 -0.064406201
v -0.008200243 0.108832844 -0.071685195
v -0.024437539 0.121159643 -0.076226383
v -0.026585829 0.120885104 -0.075978749
v -0.020512193 0.120507441 -0.076687187
v -0.030006403 0.118731998 -0.075596847
v -0.019159662 0.118907057 -0.076855898
v -0.035370324 0.115976773 -0.073035389
v -0.029680736 0.121077552 -0.074055225
v -0.018967060 0.120411366 -0.076006614
v -0.013766414 0.114633434 -0.075418681
v -0.024527626 0.120757118 -0.076784149
f 24 93 23
f 24 93 86
f 24 75 4
f 77 24 86
f 77 24 75
f 30 29 67
f 30 29 38
f 37 4 38
f 37 29 38
f 37 29 4
f 71 75 67
f 71 29 67
f 71 75 4
f 71 29 4
f 18 4 38
f 26 24 23
f 63 34 64
f 63 34 65
f 121 91 98
f 84 93 23
f 84 79 23
f 76 74 23
f 76 79 23
f 61 49 36
f 106 103 130
f 106 140 98
f 106 130 140
f 78 75 67
f 78 77 75
f 31 34 65
f 31 30 65
f 12 18 4
f 39 43 22
f 35 34 64
f 35 33 64
f 44 31 34
f 44 35 34
f 44 30 38
f 44 31 30
f 44 43 33
f 44 35 33
f 83 90 91
f 83 63 64
f 122 68 103
f 104 126 93
f 104 126 138
f 104 93 86
f 131 140 98
f 131 121 98
f 96 121 91
f 96 90 91
f 101 114 93
f 92 84 79
f 92 76 79
f 57 49 58
f 57 61 58
f 57 61 49
f 60 61 58
f 60 61 103
f 62 33 36
f 62 33 64
f 62 106 98
f 62 61 103
f 62 106 103
f 62 91 98
f 62 83 64
f 62 83 91
f 69 78 67
f 81 69 78
f 81 78 77
f 17 12 18
f 28 26 24
f 28 24 4
f 40 33 36
f 40 43 33
f 15 52 45
f 42 18 38
f 42 44 38
f 42 43 22
f 42 44 43
f 72 90 73
f 72 83 90
f 72 83 63
f 72 73 65
f 72 63 65
f 107 76 110
f 107 111 110
f 107 68 76
f 82 68 58
f 82 68 103
f 66 68 45
f 66 76 74
f 66 68 76
f 120 103 130
f 120 122 103
f 112 120 122
f 100 114 93
f 100 126 93
f 100 126 114
f 105 104 86
f 133 104 138
f 135 133 138
f 135 133 141
f 135 136 141
f 135 130 140
f 135 136 140
f 137 135 138
f 137 129 125
f 137 129 130
f 137 135 130
f 102 131 121
f 102 96 121
f 102 131 140
f 102 105 140
f 97 90 86
f 97 96 90
f 97 102 96
f 89 76 85
f 89 92 76
f 51 62 36
f 51 62 61
f 70 81 69
f 70 69 67
f 70 90 73
f 70 81 90
f 70 30 67
f 70 73 65
f 70 30 65
f 87 90 86
f 87 81 86
f 87 81 90
f 80 77 86
f 80 81 86
f 80 81 77
f 19 42 22
f 41 39 43
f 41 40 43
f 41 40 39
f 32 49 36
f 32 40 36
f 55 32 49
f 25 26 23
f 6 15 13
f 6 25 27
f 6 66 74
f 6 74 23
f 6 25 23
f 6 15 45
f 6 66 45
f 54 15 39
f 16 39 22
f 16 19 22
f 16 19 17
f 16 15 13
f 14 16 13
f 14 17 12
f 14 16 17
f 11 12 4
f 1 28 26
f 2 1 26
f 2 25 26
f 2 25 27
f 59 60 103
f 59 82 103
f 59 60 58
f 59 82 58
f 108 112 111
f 108 112 68
f 108 107 111
f 108 107 68
f 113 122 68
f 113 112 68
f 113 112 122
f 134 136 141
f 134 105 104
f 118 112 111
f 118 111 110
f 128 129 125
f 128 137 125
f 123 126 114
f 123 137 114
f 123 126 138
f 123 137 138
f 95 97 86
f 95 97 102
f 109 89 85
f 109 76 110
f 109 76 85
f 94 101 114
f 94 101 93
f 50 61 36
f 50 51 36
f 50 51 61
f 20 42 18
f 20 19 42
f 20 17 18
f 20 19 17
f 56 32 40
f 56 55 32
f 56 40 39
f 56 54 39
f 48 49 58
f 48 55 49
f 21 15 39
f 21 16 39
f 21 16 15
f 10 14 13
f 10 2 8
f 10 14 12
f 10 11 12
f 10 11 8
f 3 28 4
f 3 11 4
f 5 6 27
f 5 2 27
f 7 2 8
f 7 2 1
f 7 11 8
f 7 3 11
f 7 1 28
f 7 3 28
f 139 134 136
f 139 134 105
f 139 136 140
f 139 105 140
f 132 134 141
f 132 134 104
f 132 133 141
f 132 133 104
f 119 118 112
f 119 120 130
f 119 112 120
f 119 129 130
f 119 118 129
f 127 128 116
f 117 128 116
f 117 109 110
f 117 109 116
f 117 118 110
f 117 118 129
f 117 128 129
f 99 102 105
f 99 95 102
f 99 105 86
f 99 95 86
f 115 109 116
f 115 127 116
f 115 137 114
f 53 56 54
f 53 15 52
f 53 54 15
f 53 55 52
f 53 56 55
f 46 68 45
f 46 68 58
f 46 52 45
f 46 55 52
f 9 10 13
f 9 10 2
f 9 5 2
f 9 6 13
f 9 5 6
f 124 128 137
f 124 127 128
f 124 115 137
f 124 115 127
f 88 109 89
f 88 115 109
f 88 94 93
f 88 94 114
f 88 115 114
f 88 89 92
f 88 84 93
f 88 92 84
f 47 48 55
f 47 46 55
f 47 48 58
f 47 46 58
