v -0.053430293 -0.003672487 0.052205585
v -0.051774167 0.009694817 0.047340285
v -0.053149957 -0.001017885 0.052458767
v -0.052520409 0.004097884 0.050703846
v -0.051890861 0.008818694 0.047863793
v -0.049631141 -0.018984783 0.052367087
v -0.057202641 -0.020260509 0.110383615
v -0.053698231 -0.015493666 0.108648628
v -0.050795432 0.013783318 0.045852192
v -0.049441271 0.018785458 0.044031560
v -0.036669079 0.041804012 0.031498577
v -0.036171280 0.056467131 0.059283484
v -0.035409983 0.061050050 0.052755881
v -0.034977883 0.063990906 0.044958241
v -0.030632006 0.046264607 0.029784285
v -0.028743356 0.069334857 0.045737967
v -0.030002458 0.066424318 0.069362260
v -0.029372910 0.070215836 0.063968986
v -0.035938196 0.054231163 0.065890685
v -0.024594991 0.065137960 0.067668699
v -0.026909726 0.071982458 0.053636365
v -0.030116117 -0.059025660 0.002831820
v -0.032408062 -0.055026460 0.071379095
v -0.027341226 -0.054798495 0.082400680
v -0.027297961 -0.052587327 0.087389253
v -0.018376959 -0.058335379 -0.014799605
v -0.021593068 -0.048324857 0.093472965
v -0.007742983 0.055109136 0.029826391
v -0.024345219 -0.059668005 -0.002727758
v -0.012654481 -0.056384362 -0.015509717
v -0.011042697 -0.061545152 0.067476071
v -0.002191663 -0.060409602 -0.014044650
v 0.009738520 0.065750957 0.032965645
v -0.000190528 0.007692065 0.094416276
v 0.000749626 -0.043667607 0.095729545
v 0.004614323 0.002016124 0.096482150
v 0.005493947 -0.057060052 0.077430442
v 0.010974374 -0.053338833 0.087662779
v 0.019822782 -0.059672318 -0.014312998
v 0.031060824 -0.057440881 -0.015125176
v 0.041553892 0.055951897 0.032897420
v 0.046331804 0.049725201 0.033440933
v 0.041797664 -0.057392426 -0.009349439
v 0.047073953 -0.058011759 -0.005916050
v 0.047703501 -0.028694132 0.058823094
v 0.048962597 -0.018300302 0.055759154
v 0.051480796 0.002262921 0.049014471
v 0.052245822 -0.055950116 0.007505787
v 0.048727158 -0.053202163 0.023885798
f 44 31 48
f 26 32 30
f 22 23 31
f 22 23 7
f 22 1 2
f 37 31 48
f 37 38 48
f 37 38 31
f 15 28 30
f 15 26 30
f 15 26 11
f 15 16 28
f 39 32 31
f 39 44 31
f 4 2 7
f 10 26 11
f 10 22 26
f 10 13 7
f 29 26 32
f 29 22 26
f 29 32 31
f 29 22 31
f 6 1 7
f 6 22 7
f 6 22 1
f 49 38 48
f 45 36 38
f 45 49 48
f 45 49 38
f 12 19 7
f 12 13 7
f 12 13 19
f 8 36 7
f 8 34 36
f 33 16 28
f 33 16 21
f 33 28 30
f 14 15 11
f 14 15 16
f 14 10 11
f 14 10 13
f 14 16 21
f 42 36 41
f 42 36 47
f 42 44 48
f 42 47 48
f 24 23 31
f 24 38 31
f 24 25 38
f 24 23 7
f 24 25 7
f 27 25 38
f 27 25 7
f 3 1 7
f 3 4 7
f 3 4 1
f 5 1 2
f 5 4 2
f 5 4 1
f 9 22 2
f 9 10 22
f 9 2 7
f 9 10 7
f 46 36 47
f 46 45 36
f 46 47 48
f 46 45 48
f 20 36 41
f 35 27 38
f 35 27 7
f 35 36 38
f 35 36 7
f 17 34 36
f 17 20 36
f 17 8 34
f 17 8 7
f 17 19 7
f 43 42 44
f 43 42 41
f 40 39 32
f 40 39 44
f 40 32 30
f 40 43 44
f 40 33 30
f 40 43 41
f 40 33 41
f 18 20 41
f 18 17 20
f 18 33 21
f 18 33 41
f 18 14 21
f 18 14 13
f 18 13 19
f 18 17 19
