v -0.191915855 0.083263092 -0.063244388
v -0.191582933 0.086122736 -0.059718177
v -0.189694285 0.102345198 -0.037300512
v -0.189531729 0.103741422 -0.036024258
v -0.192188039 0.091673948 -0.052356288
v -0.192827642 0.064344548 -0.068688318
v -0.191761538 0.075182013 -0.068688318
v -0.185358286 0.107321151 -0.025136275
v -0.180337757 0.112217411 -0.019692345
v -0.181997895 0.101449169 -0.008804245
v -0.179057240 0.106587574 -0.003360314
v -0.183544621 0.013936840 -0.075538799
v -0.171073928 0.121053115 -0.008804245
v -0.175469100 0.111650594 0.002083736
v -0.174132258 0.111494958 0.007527666
v -0.178766757 0.007899833 -0.078545496
v -0.171212167 0.072789617 -0.074534938
v -0.171172574 0.073129684 -0.074132368
v -0.171315208 0.116647810 0.002083736
v -0.168428153 0.116311699 0.007527666
v -0.173359230 0.007270278 -0.081355974
v -0.173915178 0.002494940 -0.079576299
v -0.169581935 0.039715137 -0.088765904
v -0.168952376 0.045122664 -0.089879081
v -0.168322831 0.050530132 -0.089970633
v -0.167693287 0.055937599 -0.088691756
v -0.177183270 0.007715479 -0.079576299
v -0.168670431 0.061532121 -0.085020348
v -0.168581247 0.001233256 -0.081484720
v -0.167951703 0.006640723 -0.083698794
v -0.166692600 0.017455716 -0.086708590
v -0.170329660 0.017879151 -0.085020348
v -0.167304471 0.044930812 -0.090464398
v -0.161914751 0.011418650 -0.086862132
v -0.161285192 0.016826175 -0.088056251
v -0.159258544 0.034233976 -0.090464398
v -0.159396544 0.033048578 -0.090308592
v -0.085981481 -0.042509127 -0.025136275
v -0.065180376 -0.052146491 0.072855785
v -0.043938465 -0.010920812 0.089187756
v -0.054647118 -0.061358135 0.056523755
v -0.043301772 -0.024313573 0.089187756
v -0.027666397 0.034693863 0.100075796
v -0.025185661 0.056002013 0.094631746
v -0.029042572 -0.024203412 0.094631746
v -0.028813276 -0.069310598 -0.008804245
v -0.028851783 -0.069641344 -0.003360314
v -0.017801369 -0.021801619 0.099235967
v -0.018070694 -0.071191676 -0.025136275
v -0.018458767 -0.071052045 -0.025136275
v -0.017087510 -0.016403936 0.100075796
v -0.015917344 -0.071347922 -0.025136275
v -0.000949417 -0.018282766 0.105509236
v -0.000983667 -0.018576954 0.105519786
v 0.008115912 0.059583399 0.094631746
v -0.001271017 -0.018245323 0.105519786
v -0.001161098 -0.067178205 -0.041468307
v 0.000383512 -0.053910859 0.083743766
v 0.013452953 0.058348417 0.094631746
v -0.000279667 -0.051245388 0.089187756
v 0.003009460 -0.024224455 0.100075796
v 0.010750669 -0.059016105 0.067411736
v 0.023930550 0.054191779 0.094631746
v 0.015141689 -0.068376370 -0.041468307
v 0.029046543 0.051058639 0.094631746
v 0.026651025 -0.063671455 0.045635775
v 0.026733959 -0.062959097 0.051079705
v 0.038420543 0.037422191 0.093732193
v 0.039050099 0.042829718 0.094591931
v 0.039421167 -0.001059685 0.076330498
v 0.042192616 -0.071407869 -0.014248295
v 0.042266726 -0.070771299 -0.008804245
v 0.042443130 -0.069256097 0.002083736
v 0.055014081 -0.008355803 -0.086427614
v 0.056273177 0.002459132 -0.082626149
v 0.051751271 -0.002495180 0.061967686
v 0.060421549 -0.008985350 -0.086160824
v 0.060911745 -0.004774826 -0.085020348
v 0.061051097 -0.003577883 -0.084680244
v 0.061680645 0.001829584 -0.081885383
v 0.067855701 0.054869886 0.051079705
v 0.065829016 -0.009614898 -0.085500285
v 0.066458561 -0.004207431 -0.083275601
v 0.078791067 0.054645278 0.034598783
v 0.068314314 -0.009904241 -0.085020348
v 0.069791339 0.000885321 0.040191725
v 0.082077071 0.059743475 0.018415766
v 0.081336781 0.059829660 0.023859696
v 0.089508891 0.052551564 -0.019692345
v 0.095013529 0.052756626 -0.017493648
v 0.097825199 -0.017246066 -0.030580325
v 0.097838968 -0.017127834 -0.025136275
f 60 39 54
f 64 85 71
f 91 71 92
f 91 85 71
f 61 60 54
f 67 86 92
f 12 10 39
f 12 10 6
f 15 10 39
f 82 64 77
f 82 64 85
f 90 91 85
f 90 91 92
f 73 67 92
f 41 60 39
f 59 55 88
f 48 39 54
f 48 45 39
f 42 15 39
f 42 15 40
f 42 45 39
f 42 48 45
f 42 48 51
f 43 15 40
f 43 42 40
f 43 42 51
f 43 59 55
f 43 59 63
f 52 64 71
f 52 49 64
f 57 49 29
f 57 49 64
f 87 90 88
f 24 12 6
f 24 25 6
f 33 24 25
f 72 73 67
f 72 71 92
f 72 73 92
f 62 41 67
f 68 61 54
f 68 69 54
f 68 69 86
f 81 59 88
f 81 59 63
f 81 65 63
f 81 65 69
f 13 4 18
f 13 87 90
f 13 15 14
f 13 87 88
f 13 55 88
f 13 55 20
f 11 15 10
f 11 4 10
f 44 55 20
f 44 43 55
f 44 15 20
f 44 43 15
f 56 43 51
f 56 48 54
f 56 48 51
f 37 33 36
f 37 33 35
f 74 35 34
f 74 34 29
f 74 37 35
f 74 64 77
f 74 37 36
f 74 57 29
f 74 57 64
f 74 33 36
f 74 25 77
f 74 33 25
f 22 12 39
f 22 41 39
f 22 38 41
f 22 49 29
f 30 34 29
f 30 22 29
f 47 52 49
f 47 38 41
f 47 52 71
f 47 72 71
f 47 41 67
f 79 82 85
f 83 90 85
f 83 80 90
f 83 79 85
f 83 79 80
f 89 80 90
f 89 13 18
f 89 13 90
f 17 80 28
f 17 1 18
f 17 1 28
f 17 89 18
f 17 89 80
f 58 67 60
f 58 62 67
f 58 41 60
f 58 62 41
f 70 68 61
f 70 61 60
f 84 69 86
f 84 81 69
f 84 86 92
f 84 81 88
f 84 90 92
f 84 90 88
f 8 13 14
f 8 15 14
f 8 11 15
f 8 11 4
f 19 15 20
f 19 13 20
f 19 13 15
f 2 4 18
f 2 1 18
f 7 25 6
f 7 1 6
f 7 1 28
f 53 43 63
f 53 56 43
f 53 65 63
f 53 65 69
f 53 69 54
f 53 56 54
f 46 47 49
f 46 47 38
f 46 22 38
f 66 72 67
f 66 47 67
f 66 47 72
f 78 82 77
f 78 79 82
f 75 80 28
f 75 79 80
f 76 67 60
f 76 70 60
f 76 67 86
f 76 70 68
f 76 68 86
f 9 13 4
f 9 8 4
f 9 8 13
f 5 2 4
f 5 2 1
f 5 1 6
f 21 30 22
f 21 27 22
f 16 22 12
f 16 27 22
f 16 24 12
f 50 22 49
f 50 46 49
f 50 46 22
f 26 78 79
f 26 75 79
f 26 25 77
f 26 78 77
f 26 75 28
f 26 7 25
f 26 7 28
f 3 5 6
f 3 5 4
f 3 10 6
f 3 4 10
f 31 21 30
f 31 30 34
f 31 35 34
f 31 33 24
f 31 33 35
f 23 31 24
f 23 16 24
f 23 16 27
f 32 21 27
f 32 31 21
f 32 23 27
f 32 23 31
