v -0.026179716 -0.121874951 -0.029663410
v -0.020651793 -0.123643696 -0.029033884
v -0.039479051 -0.120213330 -0.025715936
v -0.003654950 -0.112531297 -0.021497907
v -0.010494313 -0.118411064 -0.024748635
v -0.005590670 -0.112651654 -0.022780120
v -0.055040374 -0.113680132 -0.021996085
v 0.010968263 -0.042524967 -0.013812129
v 0.005789800 -0.041035298 -0.017288873
v -0.059619319 -0.110556647 -0.017024739
v -0.041444048 -0.038517788 -0.014392305
v 0.015657326 -0.040947229 -0.007775073
v -0.038326561 -0.038323939 -0.017143646
v -0.027447604 -0.037647489 -0.016614707
v -0.044591352 -0.127746642 -0.009922058
v -0.062281251 -0.104650706 -0.011810600
v -0.044106174 -0.038683325 -0.009222064
v 0.019654259 -0.040173236 -0.001824307
v -0.062187254 -0.105261825 -0.012290692
v -0.050960634 -0.126381844 -0.005171505
v -0.006515776 -0.134527296 -0.003187575
v -0.001099922 -0.134190530 -0.002719916
v -0.056321256 -0.121260613 -0.000276606
v 0.035027120 -0.131635323 0.015743293
v 0.035652224 -0.126450822 0.015853392
v -0.057046548 -0.110396713 0.005198446
v 0.034861472 -0.126499981 0.014425877
v 0.038562238 -0.137178898 0.027075503
v 0.011366366 0.019311046 0.025046410
v 0.007832302 0.024034902 0.024669914
v -0.032789871 0.005656414 0.025297839
v -0.030186662 0.011272784 0.025640901
v -0.029950811 0.011601456 0.025670681
v -0.025794780 0.017000373 0.026192598
v -0.019752759 0.021858867 0.026929751
v -0.018262997 0.022923201 0.027110541
v -0.014533530 0.025054187 0.027559280
v -0.009267034 0.027489820 0.028188812
v -0.003859331 0.027654016 0.028818337
v 0.010070450 0.019230459 0.030376008
v 0.007326762 0.022021359 0.030077379
v 0.001890546 0.029630911 0.025548285
v 0.046780035 -0.131213441 0.039034978
v 0.046243753 -0.125792280 0.039011844
v -0.030910611 0.011227760 0.031037215
v -0.030587064 0.011690103 0.031078150
v 0.001175385 0.023673393 0.034855329
v 0.047081776 -0.136649191 0.044511575
v 0.048324328 -0.134805962 0.044669271
v -0.031563364 0.011187163 0.036441896
v -0.031218788 0.011705816 0.036485679
v -0.026120733 0.016849898 0.037115213
v -0.015568344 0.021408727 0.038374271
v 0.026876943 -0.012451624 0.043061431
v 0.024146212 -0.007166916 0.042782329
v 0.020894568 -0.001914598 0.042442467
v 0.012150108 0.011296151 0.041521888
v 0.025097666 -0.012562250 0.037395276
v -0.049181014 -0.028089952 0.039591763
v -0.049615514 -0.022662405 0.039580502
v -0.046452548 -0.014842208 0.040004529
v -0.044390250 -0.011428492 0.040268824
v -0.041529007 -0.006891517 0.040634066
v -0.031278893 0.011204850 0.037268013
v -0.027473390 -0.146739587 0.046737373
v -0.024730518 -0.146569043 0.052538067
v -0.026171332 -0.141204059 0.052409422
v 0.015880041 -0.012276324 0.069188781
v 0.016288361 -0.013110064 0.069230199
v -0.035355404 -0.021775763 0.068647683
v -0.035188388 -0.016310874 0.068706580
v -0.032569874 -0.010693553 0.069051430
v -0.028495513 -0.005821007 0.069560051
v -0.018006718 -0.000239430 0.070819117
v -0.012488855 0.001464147 0.069683865
v 0.010011218 -0.013500381 0.073077530
v 0.015829951 -0.013138569 0.070077859
v -0.001448101 -0.003303909 0.071728028
v 0.004258998 -0.002949039 0.069689132
v -0.032764211 -0.032523721 0.073312707
v -0.033284746 -0.021647016 0.071977243
v -0.033485979 -0.016205022 0.070801444
v -0.028440909 -0.010436819 0.071552522
v 0.010606406 -0.172737107 0.105781808
v 0.009162772 -0.171734229 0.105621316
v 0.016200850 -0.175575644 0.106411330
v 0.021608191 -0.138233230 0.107309483
v 0.010489302 -0.171651751 0.106207192
v 0.009958923 -0.166230172 0.107864112
v 0.015784882 -0.171322480 0.107710227
v 0.021202035 -0.170985639 0.108166702
v 0.015301027 -0.165897995 0.108966745
v 0.020765642 -0.165558204 0.109014757
v 0.003967124 -0.155693725 0.106537879
v 0.020368719 -0.160128444 0.109523162
v 0.014522689 -0.155037388 0.109850034
v 0.002978373 -0.144846201 0.109232076
v 0.008356522 -0.144511789 0.110024236
v 0.019642632 -0.149264529 0.109956734
v 0.019342499 -0.143828690 0.109632127
v 0.002635569 -0.139412954 0.109274648
v 0.002337732 -0.133976966 0.108930267
v 0.002072619 -0.128538951 0.108304240
f 44 54 49
f 44 54 18
f 14 9 42
f 14 13 42
f 14 13 9
f 17 60 16
f 97 101 98
f 97 80 101
f 15 7 20
f 65 15 86
f 65 15 20
f 30 9 42
f 8 30 9
f 8 30 29
f 8 4 27
f 58 54 18
f 58 29 18
f 58 29 54
f 25 27 18
f 92 97 98
f 92 97 89
f 70 60 71
f 70 80 71
f 70 80 60
f 26 60 16
f 26 97 80
f 26 97 94
f 37 13 42
f 37 36 13
f 37 36 52
f 61 60 71
f 61 17 60
f 11 17 32
f 11 34 13
f 11 17 16
f 11 7 13
f 103 100 98
f 72 61 71
f 76 77 87
f 76 100 87
f 76 103 78
f 76 103 100
f 69 87 49
f 69 77 87
f 69 54 49
f 79 76 78
f 79 76 77
f 6 2 9
f 6 8 9
f 6 8 4
f 5 6 2
f 5 6 4
f 48 28 49
f 48 28 86
f 22 28 86
f 3 15 7
f 84 65 86
f 12 29 18
f 12 8 29
f 12 27 18
f 12 8 27
f 43 44 18
f 43 25 18
f 43 44 49
f 24 25 27
f 24 43 25
f 24 22 28
f 24 28 49
f 24 43 49
f 24 4 27
f 24 5 4
f 24 5 2
f 24 22 2
f 99 95 87
f 99 100 87
f 99 100 98
f 96 92 98
f 96 92 95
f 96 99 98
f 96 99 95
f 91 48 49
f 91 48 86
f 91 87 49
f 59 80 60
f 59 26 60
f 59 26 80
f 23 65 20
f 23 26 65
f 23 26 16
f 67 26 94
f 35 36 52
f 35 34 52
f 35 36 13
f 35 34 13
f 51 64 52
f 51 34 52
f 51 46 34
f 38 53 52
f 38 37 52
f 38 37 42
f 31 17 32
f 31 61 32
f 31 61 17
f 10 11 7
f 10 7 20
f 10 23 20
f 74 103 78
f 74 103 83
f 74 53 52
f 102 80 101
f 102 103 80
f 102 101 98
f 102 103 98
f 81 103 80
f 81 80 71
f 63 72 64
f 57 47 42
f 57 47 79
f 39 47 42
f 39 38 42
f 39 38 53
f 21 22 86
f 21 22 2
f 21 15 86
f 21 15 2
f 1 7 13
f 1 3 7
f 1 2 9
f 1 13 9
f 1 15 2
f 1 3 15
f 88 89 86
f 88 84 86
f 85 65 94
f 85 84 65
f 85 88 84
f 85 88 89
f 85 97 94
f 85 97 89
f 90 91 86
f 90 91 92
f 90 89 86
f 90 92 89
f 93 92 95
f 93 91 92
f 93 95 87
f 93 91 87
f 66 26 65
f 66 67 26
f 66 65 94
f 66 67 94
f 33 46 32
f 33 46 34
f 33 11 32
f 33 11 34
f 45 61 32
f 45 46 32
f 45 51 46
f 19 11 16
f 19 10 11
f 19 23 16
f 19 10 23
f 75 74 78
f 75 79 78
f 75 47 79
f 75 74 53
f 75 39 53
f 75 39 47
f 73 72 83
f 73 74 83
f 73 74 52
f 73 64 52
f 73 72 64
f 82 103 83
f 82 81 103
f 82 72 83
f 82 72 71
f 82 81 71
f 62 72 61
f 62 63 72
f 40 30 29
f 40 30 42
f 56 40 57
f 56 40 29
f 50 62 63
f 50 51 64
f 50 63 64
f 50 62 61
f 50 45 61
f 50 45 51
f 41 57 42
f 41 40 42
f 41 40 57
f 55 29 54
f 55 56 29
f 68 56 57
f 68 69 77
f 68 55 56
f 68 79 77
f 68 57 79
f 68 69 54
f 68 55 54
