v 0.014062139 -0.042738024 0.033862986
v 0.013561923 -0.042791855 0.033269003
v 0.013743421 -0.042738035 0.028737228
v 0.019630704 -0.042108491 0.036285341
v 0.046878219 -0.038905770 0.031197395
v 0.014033657 -0.042826124 0.033239670
v 0.041356768 -0.042585626 0.031540725
v 0.046464153 -0.039463166 0.031223143
v 0.041020639 -0.042600498 0.026107119
v 0.040497057 -0.041002098 0.020685110
v 0.011790039 -0.037360128 0.011561089
v 0.012006073 -0.037330542 0.010940426
v 0.014109090 -0.040567625 0.038689479
v 0.008393252 -0.041361216 0.033590384
v 0.013665150 -0.042562317 0.027808078
v 0.012066360 -0.037525680 0.011543908
v 0.019634429 -0.015070982 0.087064408
v 0.042011533 -0.012384760 0.075136103
v 0.013269558 -0.018803772 0.066014215
v 0.040918350 -0.007070851 0.080658570
v 0.045471374 -0.006515845 0.077062212
v 0.047152594 -0.006304278 0.074816421
v 0.049019795 -0.006047086 0.069245815
v 0.049558282 -0.005944878 0.063757770
v 0.019630687 -0.014840379 0.087436810
v 0.024871515 -0.012866374 0.087110937
v 0.040322926 -0.007518649 0.080695592
v 0.045590490 -0.008682448 0.074913554
v 0.029462129 -0.002996924 0.091138549
v 0.039855406 -0.001737886 0.084020823
v 0.045049753 -0.001108369 0.080425322
v 0.045074139 -0.001105353 0.080400154
v 0.048195366 -0.000701889 0.074751571
v 0.045056507 -0.001179119 0.080401249
v 0.034403775 0.004298779 -0.080643810
v 0.038092919 0.004703619 -0.077346809
v -0.010966963 0.004461921 -0.074296273
v -0.009475701 0.004670043 -0.079120956
v 0.039009657 0.010335770 -0.083559856
v 0.039202806 0.009047476 -0.082870275
v -0.012374213 0.009817990 -0.079663225
v -0.010209238 0.010077569 -0.080774084
v -0.009620798 0.005533662 -0.079834424
v -0.019345967 0.014446150 -0.073775291
v 0.003852139 0.017230824 -0.086126760
v 0.048372682 0.022384401 -0.083440483
v 0.042937044 0.021780286 -0.087243401
v 0.010614599 0.016787125 -0.086547248
v -0.022885941 0.019513996 -0.073555186
v -0.021999253 0.019633470 -0.075832136
v 0.051267505 0.028202819 -0.083620489
v 0.047684208 0.027817279 -0.087886818
v -0.021584589 0.017249119 -0.073636100
v 0.048557043 0.022698442 -0.083451942
v -0.025013324 0.024746612 -0.073422916
v -0.022797026 0.025040934 -0.078518420
v -0.025421964 0.030179704 -0.073397517
v -0.023812126 0.030406876 -0.078952059
v -0.002418762 0.032966483 -0.089175887
v 0.026823841 0.036391962 -0.093009673
v 0.055054680 0.039645474 -0.089310564
v -0.023253981 0.028708847 -0.078986764
v -0.023085074 0.035854306 -0.062633768
v -0.024418045 0.035738222 -0.068005390
v 0.057092652 0.045364007 -0.089437298
v 0.056511160 0.045298796 -0.089763336
v 0.056750000 0.043436334 -0.089415990
v -0.023866838 0.041263428 -0.065292031
v -0.024625275 0.041194808 -0.067992516
v -0.025787890 0.041098595 -0.073374785
v -0.026416406 0.041064680 -0.078790151
v -0.024773406 0.041263398 -0.079871833
v -0.003698317 0.043781482 -0.089466490
v 0.017552212 0.046299573 -0.096240140
v 0.056952663 0.050828435 -0.089428604
v 0.055857979 0.050706264 -0.090124235
v -0.023091720 0.036035474 -0.062633358
v 0.011572079 0.051077519 -0.095138177
v 0.054848447 0.056063753 -0.089297771
v -0.024846328 0.045320835 -0.073433340
v -0.025262106 0.045991495 -0.078861937
v 0.055428911 0.054806080 -0.089333862
v -0.017170584 0.064066224 -0.079365097
v -0.016570274 0.064152382 -0.081636541
v 0.021337327 0.100374714 0.066071898
v 0.020543950 0.105782174 0.063456289
v 0.009162772 0.105621360 -0.097366154
v 0.021051308 0.102537997 0.065530106
v 0.019913215 0.109425157 0.060146414
v 0.029625732 0.108362034 0.037724361
v 0.021202035 0.108166747 -0.098114759
v 0.005739641 0.120745525 0.030065576
v 0.021124283 0.128041565 0.026231231
v 0.006807802 0.126521215 0.006416052
v 0.006809158 0.126560763 0.000961463
v 0.017323585 0.133071020 0.027580246
v 0.014301582 0.137366906 0.022313582
f 87 74 91
f 87 91 97
f 87 78 74
f 93 91 97
f 93 79 91
f 75 33 90
f 88 25 29
f 88 25 92
f 88 33 90
f 95 87 97
f 26 25 29
f 24 75 65
f 24 75 33
f 82 75 90
f 82 93 90
f 82 93 79
f 82 79 91
f 82 75 91
f 76 75 91
f 76 74 91
f 76 66 74
f 76 66 65
f 76 75 65
f 85 88 29
f 89 92 97
f 19 25 14
f 19 25 92
f 94 92 97
f 94 95 97
f 83 95 87
f 86 88 92
f 86 89 92
f 86 88 90
f 86 89 90
f 96 93 97
f 96 89 97
f 96 93 90
f 96 89 90
f 61 66 74
f 73 87 78
f 70 57 71
f 70 69 57
f 70 69 92
f 68 19 92
f 68 69 92
f 68 69 19
f 63 19 57
f 80 70 71
f 80 70 92
f 81 87 71
f 81 80 71
f 81 83 95
f 81 94 95
f 81 94 92
f 81 80 92
f 7 26 25
f 1 13 14
f 1 13 4
f 1 7 4
f 17 13 4
f 17 7 25
f 17 7 4
f 17 25 14
f 17 13 14
f 60 39 47
f 60 61 74
f 67 66 65
f 67 61 66
f 51 67 61
f 40 61 46
f 40 39 47
f 40 39 35
f 40 36 35
f 38 37 14
f 38 12 35
f 64 69 57
f 64 63 57
f 64 63 69
f 77 69 19
f 77 63 19
f 77 63 69
f 84 83 87
f 84 81 87
f 84 81 83
f 16 12 14
f 16 15 14
f 18 7 26
f 3 15 14
f 3 15 9
f 6 7 9
f 6 1 7
f 6 3 9
f 52 60 47
f 52 60 61
f 52 40 47
f 52 40 61
f 10 36 35
f 10 16 12
f 10 12 35
f 10 15 9
f 10 16 15
f 54 61 46
f 54 51 61
f 11 12 14
f 11 38 14
f 11 38 12
f 48 39 35
f 48 60 39
f 48 60 74
f 72 58 71
f 72 87 71
f 72 73 87
f 5 24 65
f 5 67 65
f 5 51 67
f 5 54 51
f 5 54 46
f 5 40 46
f 5 40 36
f 2 1 14
f 2 6 1
f 2 3 14
f 2 6 3
f 43 38 35
f 43 48 35
f 59 58 62
f 59 72 73
f 59 72 58
f 59 78 74
f 59 73 78
f 59 43 42
f 55 57 71
f 55 49 14
f 55 19 14
f 55 19 57
f 44 38 37
f 44 37 14
f 20 26 29
f 32 88 33
f 32 22 33
f 32 22 34
f 32 85 88
f 8 18 7
f 8 7 9
f 8 10 9
f 8 10 36
f 8 5 36
f 56 58 62
f 56 59 62
f 56 59 42
f 56 58 71
f 56 55 71
f 45 43 48
f 45 59 43
f 45 48 74
f 45 59 74
f 53 49 14
f 53 44 14
f 53 44 38
f 23 5 24
f 23 22 5
f 23 24 33
f 23 22 33
f 30 20 29
f 30 20 34
f 30 85 29
f 21 22 34
f 21 20 34
f 21 20 18
f 27 18 26
f 27 20 26
f 27 20 18
f 50 55 49
f 50 56 55
f 50 53 49
f 50 56 43
f 50 43 38
f 50 53 38
f 41 43 42
f 41 56 42
f 41 56 43
f 31 32 34
f 31 30 34
f 31 32 85
f 31 30 85
f 28 21 18
f 28 21 22
f 28 8 18
f 28 22 5
f 28 8 5
