v -0.154594272 -0.018289199 0.003277920
v -0.154595286 -0.018297961 0.003281974
v -0.153335169 -0.007474206 -0.002903260
v -0.153964728 -0.012881733 0.000634574
v -0.152705625 -0.002066739 -0.005894936
v -0.149816409 -0.024326207 0.011214577
v -0.144780010 0.018933646 -0.006829299
v -0.152226523 -0.024045618 0.008725964
v -0.149416566 0.008511864 -0.007606066
v -0.138113394 0.029119026 -0.000234879
v -0.132229179 0.033914737 0.008725964
v -0.137050763 0.007072213 0.019613944
v -0.126039356 0.038674925 0.017773889
v -0.120631829 0.038045369 0.027804993
v -0.121090345 0.034107011 0.030501984
v -0.123836279 0.027456857 0.030501984
v -0.115386941 0.036019899 -0.116486110
v -0.118748322 0.032345269 -0.111042120
v -0.117371492 -0.028103508 0.032839797
v -0.084690057 0.064304605 -0.094710149
v -0.086086340 0.055946618 -0.100154079
v -0.079002209 0.066083387 -0.091003932
v -0.084711567 -0.030033553 -0.100154079
v -0.067557670 0.070231758 0.057413362
v -0.059002455 0.096639603 0.032553159
v -0.062150199 0.069602206 0.057609163
v -0.059822265 0.096735045 0.019613944
v -0.062666044 0.097066127 0.025057994
v -0.061854880 0.096971683 0.030501984
v -0.077894449 -0.054622602 -0.094710149
v -0.054607131 0.087316304 -0.034826078
v -0.056569215 0.070463076 0.057721995
v -0.055483632 0.079787649 0.054722868
v -0.049378518 0.085150518 -0.040270068
v -0.068333097 -0.077658854 -0.073690869
v -0.048817068 0.089973040 0.039404176
v -0.048932489 0.088981658 0.041389965
v -0.069776982 -0.077490754 -0.072934069
v -0.071435660 -0.077297643 -0.067490138
v -0.063057601 -0.079421937 0.025057994
v -0.044039149 0.083936021 0.045307241
v -0.065381147 -0.078002527 0.035945974
v -0.035742354 0.061046995 0.058748744
v -0.051131450 -0.071136817 0.046833955
v -0.039951377 -0.069259599 0.046833955
v -0.035001475 -0.073819876 0.041389965
v -0.028474249 -0.027491575 0.052278005
v 0.008653816 0.065770917 0.025057994
v 0.018991427 0.060411893 0.030501984
v 0.029272145 0.054563653 0.035945974
v 0.029147428 0.053492401 0.040843926
v 0.029086323 0.052967552 0.041389965
v 0.027790572 0.053650368 0.041389965
v 0.039359640 0.047056261 0.041389965
v 0.043827254 0.038353909 -0.072934069
v 0.039694436 0.046783738 0.041389965
v 0.038186371 -0.057175376 -0.063868560
v 0.039445467 -0.046360441 -0.065208711
v 0.040075015 -0.040952973 0.044637583
v 0.048741240 0.033485115 -0.067490138
v 0.049367480 0.038864166 0.041389965
v 0.044852935 -0.046989989 -0.063608922
v 0.043593839 -0.057804920 0.040004455
v 0.054466531 0.035585500 -0.051158108
v 0.049001306 -0.058434468 -0.060059585
v 0.049630854 -0.053027004 -0.060559548
v 0.050260402 -0.047619537 -0.060999729
v 0.052778598 -0.025989609 -0.060289063
v 0.049749374 -0.052008975 0.041389965
v 0.059442244 0.031247426 0.035945974
v 0.059335630 0.030331645 -0.051158108
v 0.058441631 0.033639573 -0.051158108
v 0.057332430 0.033768710 0.035945974
v 0.057784084 -0.010130016 -0.056602098
v 0.059428308 0.000640081 -0.051158108
v 0.061109368 0.000444369 0.041389965
v 0.062673360 0.022185385 0.035945974
v 0.063502766 0.011127245 0.035945974
v 0.064621352 0.016477836 0.035945974
f 10 17 28
f 20 17 28
f 7 10 17
f 7 9 10
f 11 10 28
f 11 13 28
f 11 9 10
f 31 20 28
f 21 20 17
f 55 21 20
f 55 21 17
f 15 14 24
f 15 14 13
f 4 11 13
f 4 5 9
f 4 11 9
f 27 31 28
f 34 27 31
f 34 55 48
f 34 27 48
f 58 55 17
f 18 30 2
f 18 30 17
f 18 3 2
f 18 3 5
f 18 5 9
f 18 7 17
f 18 7 9
f 57 35 65
f 57 30 35
f 57 58 30
f 49 72 48
f 32 33 24
f 32 43 33
f 1 3 2
f 1 3 5
f 1 4 5
f 25 27 48
f 25 49 48
f 25 27 28
f 25 36 51
f 22 55 20
f 22 34 55
f 22 31 20
f 22 34 31
f 64 55 48
f 64 72 48
f 64 72 55
f 50 49 72
f 50 25 51
f 50 25 49
f 74 65 79
f 62 58 55
f 62 57 65
f 62 57 58
f 23 30 17
f 23 58 17
f 23 58 30
f 38 30 2
f 38 30 35
f 47 43 24
f 37 41 33
f 37 25 33
f 37 25 36
f 37 36 51
f 37 41 51
f 26 43 24
f 26 32 24
f 26 32 43
f 53 41 33
f 53 52 33
f 53 41 51
f 53 52 51
f 70 61 73
f 70 72 73
f 54 43 33
f 54 52 33
f 54 52 51
f 54 50 51
f 54 72 73
f 54 50 72
f 29 13 28
f 29 25 28
f 29 14 13
f 29 14 24
f 29 33 24
f 29 25 33
f 68 74 55
f 60 72 55
f 60 74 55
f 67 62 55
f 67 68 55
f 67 68 74
f 69 63 65
f 69 63 45
f 40 35 65
f 40 38 35
f 40 38 39
f 77 61 79
f 77 70 61
f 77 72 79
f 77 70 72
f 56 61 43
f 56 54 43
f 56 61 73
f 56 54 73
f 12 1 2
f 12 4 13
f 12 1 4
f 66 62 65
f 66 67 62
f 66 74 65
f 66 67 74
f 78 65 79
f 78 69 65
f 76 61 79
f 76 78 79
f 76 78 69
f 76 61 43
f 59 47 45
f 59 69 45
f 59 47 43
f 59 76 43
f 59 76 69
f 46 63 45
f 46 63 65
f 46 40 65
f 16 19 6
f 16 15 24
f 16 19 24
f 16 15 13
f 16 12 13
f 8 12 2
f 8 16 6
f 8 16 12
f 8 38 2
f 8 38 39
f 75 74 79
f 42 46 40
f 42 8 6
f 42 19 6
f 42 40 39
f 42 8 39
f 71 75 74
f 71 60 72
f 71 60 74
f 71 72 79
f 71 75 79
f 44 42 46
f 44 46 45
f 44 42 19
f 44 47 45
f 44 19 24
f 44 47 24
