v -0.048470151 0.019115305 -0.038417947
v -0.046581503 0.035337765 -0.040314328
v -0.046417918 0.036742873 -0.045933735
v -0.046572611 0.035414141 -0.040489685
v -0.051895536 0.024994886 -0.035045754
v -0.049058478 0.030145349 -0.035045754
v -0.040793229 0.034663882 -0.056821715
v -0.026469151 -0.027292265 -0.035878669
v -0.026515996 -0.027694650 -0.035045754
v -0.026673524 -0.029047716 -0.029601704
v -0.026817471 -0.030284148 -0.024157654
v -0.027202716 -0.033593193 0.019394267
v -0.026725329 -0.027262440 -0.035045754
v -0.029056424 -0.032471839 0.024838317
v -0.023539145 0.016212789 0.013950338
v -0.021775277 -0.034051195 -0.029601704
v -0.022069197 -0.036575802 -0.013269673
v -0.021354327 -0.030435469 -0.040489685
v -0.022922633 -0.033185948 -0.029601704
v -0.024221942 -0.033034679 -0.024157654
v -0.016838733 -0.038725700 -0.013269673
v -0.016866265 -0.038962193 -0.007825742
v -0.016827222 -0.038626827 -0.002381693
v -0.010977830 -0.035461001 -0.051377784
v -0.011443699 -0.039462563 -0.018713724
v -0.011500929 -0.039954141 -0.013269673
v -0.011473800 -0.039721109 -0.002381693
v -0.002949757 0.033495702 0.024838317
v -0.005501301 -0.035496838 -0.051377784
v -0.005715042 -0.037332747 -0.045933735
v -0.006088973 -0.040544607 -0.013269673
v -0.000061307 -0.035847507 -0.048453819
v -0.000316417 -0.038038764 -0.045933735
v -0.004778032 -0.035298377 -0.051377784
v 0.003437043 -0.036254793 -0.045933735
v 0.010158574 -0.042217780 0.013950338
v 0.010135159 -0.042418897 0.019394267
v 0.010125151 -0.042504862 0.024838317
v 0.010124079 -0.042514071 0.028446782
v 0.035263270 0.079264276 -0.007825742
v 0.036696523 0.044497907 -0.094929762
v 0.026923561 -0.039446421 0.013950338
v 0.027007518 -0.038725279 0.019394267
v 0.027189042 -0.037166093 0.024838317
v 0.041285567 0.083915256 0.008506288
v 0.041455720 0.085376784 0.021178115
v 0.039894015 0.085558601 0.013950338
v 0.040681083 0.085466966 0.019394267
v 0.042397950 0.046393324 -0.094929762
v 0.033652868 -0.028722096 0.019394267
v 0.046702076 0.083363384 0.030282367
v 0.027865816 -0.039098836 0.013950338
v 0.031197118 -0.034005884 0.013950338
v 0.029670581 -0.033828162 0.024838317
v 0.042730812 0.085228339 0.024838317
v 0.047610670 0.044091005 -0.094929762
v 0.046705805 0.036318723 -0.089485772
v 0.051762279 0.079751045 0.024838317
v 0.051928740 0.081180833 0.030282367
v 0.051980779 0.081627831 0.035726298
v 0.051695235 0.079175159 0.041170347
v 0.051641107 0.078710221 0.041982997
v 0.055909395 0.068295248 0.041170347
v 0.045833096 -0.002825211 -0.013269673
v 0.055265952 0.072807446 0.041170347
v 0.052134518 0.078652777 0.041170347
v 0.057026602 0.030814758 -0.062265765
v 0.056790154 0.028783798 -0.058281433
v 0.061570272 0.069842361 0.030282367
v 0.061197001 0.066636182 0.039620150
v 0.056399167 0.028829318 -0.067709751
v 0.052416481 0.007369889 -0.002381693
v 0.052994970 0.007302540 0.008506288
v 0.065053895 0.066187158 0.035726298
f 7 24 41
f 49 7 41
f 70 62 74
f 14 62 39
f 14 62 28
f 56 49 45
f 56 24 41
f 56 49 41
f 40 49 45
f 40 49 7
f 68 73 74
f 68 73 71
f 64 53 71
f 1 7 5
f 1 7 24
f 63 62 39
f 63 70 39
f 54 70 74
f 54 73 74
f 15 14 5
f 15 14 28
f 12 14 39
f 6 15 5
f 6 15 28
f 67 56 74
f 67 56 71
f 67 68 74
f 67 68 71
f 69 56 74
f 69 60 74
f 69 60 59
f 72 53 73
f 72 64 53
f 72 73 71
f 72 64 71
f 13 1 5
f 13 1 9
f 8 1 24
f 8 1 9
f 19 16 24
f 65 70 62
f 65 63 62
f 65 63 70
f 44 70 39
f 44 54 70
f 50 53 73
f 50 54 73
f 50 54 53
f 55 60 59
f 55 51 60
f 55 6 28
f 55 62 28
f 61 60 74
f 61 51 60
f 61 55 62
f 61 55 51
f 58 69 59
f 58 69 56
f 58 59 45
f 58 56 45
f 57 56 71
f 57 35 71
f 57 34 56
f 47 40 45
f 47 59 45
f 47 55 59
f 3 47 48
f 3 6 5
f 3 47 40
f 3 7 5
f 3 40 7
f 18 19 24
f 18 19 9
f 18 8 24
f 18 8 9
f 11 14 5
f 17 19 16
f 17 16 24
f 17 21 24
f 17 12 14
f 17 11 14
f 25 21 24
f 25 21 26
f 25 31 26
f 27 26 39
f 43 42 39
f 43 44 39
f 66 62 74
f 66 61 74
f 66 61 62
f 29 56 24
f 29 34 56
f 32 57 35
f 32 57 34
f 46 55 48
f 46 47 48
f 46 47 55
f 4 55 48
f 4 3 48
f 4 3 6
f 10 19 9
f 10 11 19
f 10 13 9
f 10 13 5
f 10 11 5
f 22 17 12
f 22 17 21
f 22 27 39
f 22 21 26
f 22 27 26
f 20 11 19
f 20 17 19
f 20 17 11
f 52 44 54
f 52 43 44
f 52 54 53
f 52 43 42
f 52 53 71
f 52 35 71
f 33 29 34
f 33 32 34
f 33 32 35
f 33 36 31
f 33 29 24
f 33 36 42
f 33 25 31
f 33 52 42
f 33 52 35
f 37 36 31
f 37 36 42
f 2 55 6
f 2 4 6
f 2 4 55
f 23 12 39
f 23 22 39
f 23 22 12
f 30 25 24
f 30 33 24
f 30 33 25
f 38 37 31
f 38 26 39
f 38 31 26
f 38 42 39
f 38 37 42
