v -0.034765944 -0.004403236 0.008688881
v -0.035026833 -0.006644106 0.012838318
v -0.034484670 -0.001987237 0.012838318
v -0.035083637 -0.004366249 0.012838318
v -0.029617924 -0.007261280 -0.003493713
v -0.031247128 -0.021255244 0.001170113
v -0.031312734 -0.021818755 0.001950337
v -0.030617578 -0.015847746 -0.001846479
v -0.032231562 -0.029710986 0.018282367
v -0.028099382 0.005782151 -0.002427862
v -0.032391470 -0.031084508 0.023726298
v -0.032154124 -0.029045850 0.050946310
v -0.026980069 0.015396441 0.023726298
v -0.026540196 0.019174712 0.045502380
v -0.030420352 0.000571602 -0.003493713
v -0.028989585 0.005885790 0.001950337
v -0.033733990 -0.026446478 0.029170347
v -0.034744672 -0.026328813 0.050946310
v -0.036597285 -0.020632368 0.050946310
v -0.030352985 0.011525310 0.045502380
v -0.027717935 0.016699292 0.040058330
v -0.028163156 0.016751125 0.045502380
v -0.027202716 -0.033593193 0.007394268
v -0.021015072 0.019555250 0.001950337
v -0.020410623 0.024747122 0.045502380
v -0.028424473 -0.032545414 0.007394268
v -0.031359076 -0.032203760 0.018282367
v -0.031451378 -0.032193016 0.023726298
v -0.029731391 -0.026912469 0.001950337
v -0.022456527 0.016086748 -0.003493713
v -0.023539145 0.016212789 0.001950337
v -0.026096199 0.016510487 0.023726298
v -0.024235662 0.021774670 0.045502380
v -0.015238858 0.022093039 -0.003493713
v -0.018184699 0.021070205 -0.003493713
v -0.016351694 -0.034542318 0.007394268
v -0.008099626 0.036338393 0.042198256
v -0.019179732 -0.039102465 0.050946310
v -0.012774902 -0.039848126 0.050946310
v -0.003255173 0.041255150 0.040058330
v 0.010011484 0.050672200 0.033614472
v 0.004866116 -0.040600371 0.012838318
v 0.010124079 -0.042514071 0.016446782
v 0.010075603 -0.042930458 0.018282367
v 0.015773892 -0.041062519 0.012838318
v 0.013070878 -0.042857140 0.018282367
v 0.021322098 -0.040482681 0.050946310
v 0.028864738 -0.022772793 -0.000889705
v 0.027189042 -0.037166093 0.012838318
v 0.025431080 -0.038815379 0.050946310
v 0.034272205 -0.023402341 0.002001359
v 0.035531305 -0.012587377 -0.002379582
v 0.043085892 0.052302375 0.060133055
v 0.043715440 0.057709843 0.057588294
v 0.043953735 0.059756670 0.056390360
v 0.029668095 -0.033827871 0.007394268
v 0.037014648 0.020124551 -0.003493713
v 0.051641107 0.078710221 0.029982997
v 0.047234263 0.040857892 0.060138658
v 0.042188019 -0.002486565 -0.003493713
v 0.038261149 -0.018385980 0.050946310
v 0.047827844 0.079154171 0.034614280
v 0.046346296 -0.013846479 0.002787187
v 0.049546398 0.013640635 -0.003493713
v 0.056106843 0.069991224 0.023726298
v 0.056474570 0.073149800 0.034614280
v 0.056419086 0.072673202 0.037074879
v 0.055789538 0.067265734 0.046096042
v 0.054530434 0.056450740 0.053927258
v 0.055846553 0.067755476 0.045502380
v 0.040499620 -0.018646589 0.001950337
v 0.052134518 0.078652777 0.029170347
v 0.053680051 0.051068984 0.056390360
v 0.052007314 -0.012298180 0.007394268
v 0.051753763 -0.014476027 0.011178448
v 0.051706992 -0.014877761 0.012838318
v 0.051577732 -0.015988028 0.018282367
v 0.061197001 0.066636182 0.027620150
v 0.059308354 0.050413724 0.044640020
v 0.050568189 -0.014338000 0.007394268
v 0.052994970 0.007302540 -0.003493713
v 0.050047312 0.013126503 -0.003493713
v 0.051071987 -0.008915893 0.045502380
v 0.056440435 0.067189954 0.045502380
v 0.060938522 0.017339287 0.007926061
v 0.053586293 -0.009208613 0.007394268
v 0.052064765 -0.014512234 0.012838318
v 0.052785702 -0.014596167 0.018282367
v 0.058744524 0.044998609 0.045502380
v 0.061395817 0.055651460 0.040058330
v 0.058936827 -0.004350773 0.012838318
v 0.060476508 -0.004530025 0.018282367
v 0.060288116 -0.004508093 0.034614280
f 38 23 44
f 47 49 50
f 18 53 19
f 59 47 50
f 59 18 53
f 85 78 90
f 62 55 40
f 39 38 44
f 39 47 44
f 39 59 38
f 39 59 47
f 12 59 38
f 12 59 18
f 11 18 19
f 89 93 90
f 83 93 50
f 73 59 53
f 73 89 93
f 73 83 93
f 73 83 59
f 15 8 5
f 48 8 5
f 43 23 44
f 43 42 23
f 77 93 50
f 77 49 50
f 80 75 74
f 37 33 40
f 37 55 40
f 54 33 53
f 54 55 33
f 41 35 40
f 41 62 40
f 41 62 35
f 72 62 35
f 27 38 23
f 28 12 18
f 28 11 18
f 28 12 38
f 28 27 38
f 28 27 11
f 61 59 50
f 61 83 50
f 61 83 59
f 79 89 90
f 79 73 90
f 79 73 89
f 17 11 19
f 17 2 19
f 1 15 8
f 1 6 8
f 1 2 7
f 1 6 7
f 14 22 21
f 14 33 53
f 14 53 19
f 14 22 19
f 20 22 19
f 45 43 42
f 36 42 23
f 36 45 42
f 91 85 81
f 91 75 74
f 56 45 49
f 56 80 75
f 56 36 48
f 56 36 45
f 71 56 80
f 25 55 33
f 25 37 33
f 25 37 55
f 69 54 55
f 69 73 53
f 69 54 53
f 69 73 90
f 65 64 57
f 65 72 78
f 65 82 64
f 65 82 81
f 65 85 81
f 65 85 78
f 29 6 7
f 29 6 8
f 29 36 23
f 29 48 8
f 29 36 48
f 9 27 11
f 9 2 7
f 9 29 7
f 9 29 27
f 9 17 11
f 9 17 2
f 4 1 2
f 4 2 19
f 4 20 19
f 24 35 40
f 24 33 40
f 24 30 35
f 24 30 31
f 24 14 33
f 24 14 32
f 16 30 31
f 52 60 5
f 52 48 5
f 52 60 81
f 52 71 81
f 52 71 48
f 46 43 44
f 46 45 43
f 46 47 44
f 46 45 49
f 46 47 49
f 92 91 85
f 92 93 90
f 92 85 90
f 92 91 75
f 86 74 81
f 86 91 81
f 86 91 74
f 63 71 81
f 63 71 80
f 63 74 81
f 63 80 74
f 51 56 48
f 51 71 48
f 51 71 56
f 84 78 90
f 84 69 90
f 34 65 57
f 34 72 35
f 34 65 72
f 26 27 23
f 26 29 23
f 26 29 27
f 3 4 1
f 3 20 22
f 3 4 20
f 3 1 15
f 3 16 15
f 10 30 15
f 10 16 15
f 10 16 30
f 88 77 93
f 88 92 93
f 67 84 78
f 68 62 55
f 68 69 55
f 68 84 69
f 13 3 16
f 13 16 31
f 13 24 32
f 13 24 31
f 13 14 21
f 13 14 32
f 13 22 21
f 13 3 22
f 76 56 75
f 76 77 49
f 76 56 49
f 87 92 75
f 87 88 92
f 87 76 75
f 87 88 77
f 87 76 77
f 66 72 78
f 66 67 78
f 66 67 72
f 58 72 62
f 58 67 62
f 58 67 72
f 70 67 84
f 70 68 84
f 70 67 62
f 70 68 62
f 34 15 5
f 34 82 81
f 34 30 35
f 34 64 57
f 34 60 5
f 34 82 64
f 34 60 81
f 34 30 15
