v 0.082434021 0.019744860 -0.053877678
v 0.082732283 -0.002514593 -0.050988346
v 0.082045756 0.024994886 -0.051895536
v 0.098377787 0.033065848 -0.041365243
v 0.114709757 0.015699113 -0.037906352
v 0.111817025 0.023263706 -0.037025668
v 0.109370850 0.028671173 -0.036396120
v 0.109265767 0.028833186 -0.036377259
v 0.114709757 0.006665627 -0.035687953
v -0.021390358 -0.030433461 -0.032315675
v -0.026834408 -0.029597579 -0.032218359
v -0.010502378 0.019174712 -0.026540196
v -0.015226047 0.016597115 -0.026840284
v -0.031810205 -0.026662711 -0.031876676
v -0.021390358 -0.026193591 -0.035906151
v -0.021390358 -0.020693762 -0.036069948
v -0.021390358 -0.015398617 -0.034475360
v -0.010502378 0.011525310 -0.030352985
v 0.099753462 -0.021884799 -0.025839603
v 0.098377787 -0.023040535 -0.025974154
v 0.082045756 -0.027694650 -0.026515996
v -0.026834408 -0.033716753 -0.027217101
v -0.020945469 0.015967559 -0.021432757
v -0.029450813 -0.032699760 -0.027098700
v -0.032278340 -0.031292140 -0.026934823
v -0.035011571 -0.027292265 -0.026469151
v -0.035218518 -0.021884799 -0.025839603
v -0.034735005 -0.016477302 -0.025210051
v -0.021390358 -0.032397632 -0.029693823
v -0.026834408 -0.032463141 -0.029131142
v -0.015946308 0.016549099 -0.026427863
v -0.032278340 -0.026695767 -0.031592730
v -0.032278340 -0.015978957 -0.029490555
v 0.100248896 -0.027921813 -0.021061683
v 0.098377787 -0.028889811 -0.021174379
v 0.082045756 -0.032281090 -0.021569198
v -0.032278340 -0.034736548 -0.021855067
v -0.034232419 -0.033329308 -0.021691235
v -0.036183041 -0.027921813 -0.021061683
v 0.098377787 -0.027789073 -0.022201849
v -0.032278340 -0.032958854 -0.024873253
v 0.105221473 -0.028551361 -0.015654216
v 0.103821717 -0.030472171 -0.015877841
v 0.098377787 -0.033200532 -0.016195482
v -0.021390358 -0.041286986 -0.017136922
v -0.032278340 -0.035467010 -0.016459350
v -0.034463208 -0.033958856 -0.016283767
v -0.036760967 -0.028551361 -0.015654216
v 0.103821717 -0.028316554 -0.017671086
v -0.021390358 -0.038939312 -0.020581109
v 0.101366006 -0.034588411 -0.010876241
v 0.098377787 -0.035461001 -0.010977830
v 0.092933737 -0.036041770 -0.011045444
v 0.106997274 -0.029180916 -0.010246689
v 0.103821717 -0.033349492 -0.010732003
v 0.098377787 -0.034159243 -0.014562567
v 0.099911533 -0.035217952 -0.005468833
v 0.098377787 -0.035496838 -0.005501301
v 0.103821717 -0.034251820 -0.005356354
v 0.092933737 -0.036254793 0.003437043
v 0.145836130 0.010931164 0.021827096
v -0.015946308 -0.037335481 0.012719580
v 0.150872543 0.037339017 0.030382250
v 0.147373751 0.045463804 0.031328153
v 0.146428004 0.010301623 0.027234504
v 0.152686074 0.031301994 0.035160229
v 0.145341888 0.009672068 0.032642029
v 0.141929761 0.044497907 0.036696523
v -0.015946308 -0.013388542 0.029957270
v -0.031900924 0.031301994 0.035160229
v -0.032278340 0.026091343 0.032840148
v -0.032278340 0.031361371 0.034650240
v 0.143886343 0.009042521 0.038049497
v -0.026739040 0.046894908 0.042456344
v -0.025133053 0.052302375 0.043085892
v -0.026834408 0.046920266 0.042238530
v 0.139008299 0.040857892 0.047234263
v -0.023884216 0.046265360 0.047863811
v -0.017295519 0.019227937 0.044716064
v -0.023452440 0.035450365 0.046604712
v -0.025138656 0.040857892 0.047234263
v 0.147373751 0.030511068 0.041953858
v 0.082045756 -0.007684368 0.040493868
v 0.137949780 0.007783419 0.048864491
v 0.141929761 0.035394963 0.047080599
v -0.021390358 0.035292860 0.047957599
v 0.130891815 0.007153871 0.054271959
v 0.136485770 0.007581792 0.050596349
v 0.136485770 0.013045947 0.050739236
v 0.131041721 0.007158675 0.054230694
v 0.114709757 0.028829318 0.056399167
v 0.125597730 0.012476200 0.055633042
f 68 64 75
f 71 62 48
f 23 31 75
f 12 31 75
f 12 3 75
f 4 64 75
f 4 3 75
f 4 3 1
f 4 5 1
f 63 64 66
f 61 5 9
f 61 42 9
f 61 65 66
f 61 63 66
f 61 63 5
f 69 71 62
f 69 79 87
f 83 60 87
f 83 60 62
f 83 69 87
f 83 69 62
f 47 62 48
f 53 36 56
f 27 28 48
f 18 3 1
f 13 12 3
f 13 18 3
f 13 12 31
f 13 18 17
f 8 4 64
f 77 68 75
f 77 68 64
f 77 64 66
f 92 91 86
f 92 79 87
f 92 86 79
f 92 77 91
f 45 53 36
f 45 53 60
f 45 60 62
f 2 5 9
f 2 15 1
f 2 5 1
f 72 23 75
f 72 23 28
f 72 28 48
f 72 71 48
f 78 91 86
f 78 81 86
f 78 77 75
f 78 77 91
f 80 81 71
f 80 69 79
f 80 69 71
f 80 86 79
f 80 81 86
f 84 73 66
f 84 82 66
f 38 47 48
f 39 27 48
f 39 27 26
f 39 38 48
f 39 38 26
f 33 27 28
f 33 23 31
f 33 23 28
f 33 13 31
f 33 13 17
f 6 4 5
f 6 63 5
f 6 63 64
f 85 92 77
f 85 82 66
f 85 77 66
f 10 36 21
f 10 2 15
f 10 2 21
f 35 2 21
f 35 36 21
f 76 72 75
f 70 81 71
f 70 72 71
f 70 72 81
f 52 53 60
f 52 53 56
f 52 51 56
f 88 84 82
f 88 85 82
f 59 57 60
f 59 88 60
f 59 88 84
f 59 84 73
f 59 52 57
f 59 52 51
f 46 47 62
f 46 45 62
f 16 33 17
f 16 15 1
f 16 18 1
f 16 18 17
f 32 27 26
f 32 33 27
f 32 38 26
f 7 8 4
f 7 6 4
f 7 8 64
f 7 6 64
f 50 45 36
f 44 36 56
f 44 35 36
f 74 72 81
f 74 76 72
f 74 78 81
f 74 78 75
f 74 76 75
f 58 57 60
f 58 52 60
f 58 52 57
f 90 60 87
f 90 88 60
f 90 92 87
f 90 85 92
f 67 59 65
f 67 59 73
f 67 65 66
f 67 73 66
f 55 59 51
f 55 51 56
f 55 61 65
f 55 59 65
f 14 16 33
f 14 32 33
f 14 16 15
f 29 10 36
f 29 50 36
f 43 44 35
f 43 42 9
f 43 44 56
f 43 55 56
f 34 43 35
f 34 19 9
f 89 88 85
f 89 90 85
f 89 90 88
f 54 61 42
f 54 55 61
f 54 43 42
f 54 43 55
f 30 29 50
f 30 50 45
f 30 29 10
f 40 35 2
f 40 34 2
f 40 34 35
f 20 34 2
f 20 34 19
f 20 2 9
f 20 19 9
f 49 43 9
f 49 34 9
f 49 34 43
f 37 46 45
f 37 38 47
f 37 46 47
f 11 10 15
f 11 30 10
f 11 14 15
f 11 14 32
f 22 30 45
f 22 37 45
f 25 11 32
f 25 11 30
f 25 32 38
f 41 22 37
f 41 37 38
f 41 25 38
f 24 25 30
f 24 41 25
f 24 22 30
f 24 41 22
