v -0.167692617 0.021601176 0.247702152
v -0.168701038 0.010756999 0.274922162
v -0.168259144 0.021667132 0.274922162
v -0.167024940 0.027004205 0.329362243
v -0.158628836 0.097276777 0.296698183
v -0.161882699 0.092174836 0.302142173
v -0.161953390 0.092183068 0.307586223
v -0.162979916 0.086821757 0.313030213
v -0.158878326 0.097305819 0.302142173
v -0.166412026 0.032413609 0.329362243
v -0.167042971 0.043448646 0.274922162
v -0.166551322 0.048872165 0.274922162
v -0.171762660 -0.071602203 0.307586223
v -0.171312749 -0.067737795 0.318474203
v -0.150300071 0.112749465 0.359929770
v -0.150012299 0.115221322 0.356582254
v -0.168602541 -0.005696750 0.329362243
v -0.154233068 0.085803434 0.356582254
v -0.152570903 0.107533023 0.356582254
v -0.151436269 0.112881742 0.356582254
v -0.144187897 0.118173011 0.362026244
v -0.147242665 0.117874280 0.313030213
v -0.148080587 0.117971830 0.356582254
v -0.145218268 0.117638595 0.362026244
v -0.159142002 -0.039682843 0.356582254
v -0.136595875 0.089230895 0.050206274
v -0.136481076 0.090216950 0.051718026
v -0.149816409 -0.024326207 -0.043785423
v -0.149186864 -0.018918740 -0.045340270
v -0.141401753 0.078828827 0.051718026
v -0.140114143 0.084159680 0.051718026
v -0.137479499 0.089333773 0.051718026
v -0.160388157 -0.094345488 0.356582254
v -0.151023909 -0.029666387 -0.040830046
v -0.148930818 0.013936132 -0.024498016
v -0.140294388 0.089661486 0.389246255
v -0.140011191 0.095109276 0.389246255
v -0.140002042 0.012896625 -0.034375995
v -0.129299700 0.104823746 0.388464183
v -0.155723140 -0.100369357 0.362026244
v -0.144037813 -0.068845160 0.390105098
v -0.123713225 0.105731800 0.389246255
v -0.150834098 -0.117380887 0.100714058
v -0.150862321 -0.100935265 0.073494047
v -0.145327568 -0.063214250 0.389246255
v -0.145423561 -0.057722252 0.389246255
v -0.145284861 -0.126633361 0.089826077
v -0.111643761 0.162325144 0.258590192
v -0.111678965 0.162022725 0.264034182
v -0.146581084 -0.123356789 0.084382027
v -0.120631829 0.038045369 -0.027195007
v -0.140609786 -0.133554250 0.111602038
v -0.137629658 -0.107956596 0.054467589
v -0.134481922 -0.080919199 0.390369445
v -0.123557225 0.032905132 -0.029942006
v -0.143341616 -0.118253179 0.073494047
v -0.139128476 -0.167906821 0.362026244
v -0.107863769 0.100639768 0.394690245
v -0.134171173 -0.172403514 0.362026244
v -0.123941675 -0.084537782 0.389246255
v -0.092819065 0.182788238 0.239605039
v -0.118347868 -0.083566792 0.389246255
v -0.093077540 0.133491367 0.361621112
v -0.081022732 0.189958841 0.231370121
v -0.122397713 -0.165429413 0.367470235
v -0.121665739 -0.159142107 0.370391697
v -0.112556405 -0.080897979 0.389246255
v -0.116970569 -0.082957909 0.389246255
v -0.088147715 0.081681937 0.002721995
v -0.076578483 0.133978546 0.051718026
v -0.063893028 0.195862889 0.227607042
v -0.068888508 0.152954474 0.068050057
v -0.069376238 0.152655125 0.068050057
v -0.063521951 0.151973546 0.064763159
v -0.063176543 0.154940426 0.068050057
v -0.061376374 0.124319896 0.372914225
v -0.052410226 0.153263211 0.062606007
v -0.046769079 0.154640824 0.062606007
v -0.046669941 0.155492365 0.063837796
v -0.041262474 0.154862821 0.062972575
v -0.040940095 0.157631889 0.068050057
v -0.035417926 0.157987565 0.068050057
v -0.046132889 0.078699023 -0.002721995
v -0.038800858 0.154576227 0.062606007
v -0.038490698 0.165501639 0.329362243
v -0.029948372 0.157890797 0.068050057
v -0.029817935 0.159011185 0.069926769
v -0.029679624 0.160199180 0.073494047
v -0.024280209 0.159500495 0.073494047
v -0.055031560 -0.151713341 0.062606007
v -0.055078570 -0.152117118 0.068050057
v -0.013887178 -0.127843753 0.008037359
v 0.018329831 -0.133578181 -0.002721995
v 0.028863924 -0.137250051 -0.002721995
v 0.044768438 -0.141869158 -0.002721995
v 0.083739109 0.145790651 0.075159222
v 0.083847262 0.146719635 0.078938037
v 0.050077043 -0.143347874 -0.002721995
v 0.066353373 -0.144773841 0.002721995
v 0.100137576 0.145413801 0.084382027
v 0.105493791 0.144344062 0.084382027
v 0.122748144 0.151318774 0.296698183
v 0.122587197 0.149936289 0.302142173
v 0.094092414 -0.141894788 0.013609976
v 0.101929650 -0.168731228 0.265863091
v 0.116355360 -0.138975739 0.318474203
v 0.121484384 -0.141996980 0.313030213
v 0.121883452 -0.138569206 0.029942006
v 0.127580762 -0.136709660 0.035385996
v 0.123176761 -0.143801004 0.307586223
v 0.133373886 -0.134026587 0.038946897
v 0.131244540 -0.152316540 0.089826077
v 0.130955458 -0.154799581 0.106158048
v 0.166264758 0.148487821 0.155154079
v 0.166241288 0.148286164 0.160598069
v 0.163612008 0.147453278 0.182374090
v 0.136651427 -0.152951062 0.100714058
v 0.136889756 -0.150903881 0.089826077
v 0.136715412 -0.152401403 0.095270067
v 0.142299190 -0.151516616 0.100714058
v 0.142232001 -0.152093738 0.106158048
v 0.144818366 -0.129878223 0.049716085
v 0.142300174 -0.151508152 0.100675911
v 0.136941791 -0.150884315 0.089826077
v 0.140027657 -0.151243567 0.095270067
v 0.180263638 0.127500311 0.302142173
v 0.179814652 0.123643830 0.306983441
v 0.179620892 0.121979527 0.307586223
v 0.142314330 -0.151509792 0.100714058
v 0.143460706 -0.151643261 0.106158048
v 0.156452000 -0.124105752 0.062606007
v 0.182528481 0.123327889 0.302142173
v 0.159926280 -0.141340226 0.155154079
v 0.159905374 -0.137115434 0.127934068
v 0.164296895 -0.137626708 0.155154079
v 0.174373969 -0.111396037 0.305843562
v 0.180163205 -0.108746894 0.302142173
v 0.180411041 -0.106618121 0.303930849
v 0.181040585 -0.101210654 0.306190819
v 0.177923933 -0.111809328 0.302142173
v 0.188336700 -0.085617743 0.069428474
v 0.187879667 -0.089543372 0.073494047
v 0.201557234 0.027939359 0.328724414
v 0.201401278 0.026599791 0.329362243
v 0.200927690 0.022531891 0.330406874
v 0.187501028 -0.085520454 0.068050057
v 0.182939112 -0.112393208 0.242258161
v 0.181379065 -0.112211585 0.285810202
v 0.181061640 -0.106693871 0.302142173
v 0.183037028 -0.101443090 0.302142173
v 0.202156141 -0.013993090 0.329362243
v 0.204446509 0.005679884 0.326919883
v 0.202557862 -0.010542577 0.330226868
v 0.190281630 -0.085844181 0.073494047
v 0.192139417 -0.086060464 0.078938037
v 0.205044806 0.027533328 0.323918194
v 0.203424290 0.022241231 0.329362243
v 0.203915209 0.033145599 0.323918194
v 0.205383793 -0.016352339 0.323918194
v 0.203597024 -0.010663558 0.329362243
v 0.196685940 -0.086589776 0.269478172
v 0.198438182 -0.081313021 0.269478172
v 0.197939202 -0.081254929 0.274922162
v 0.212743297 -0.017209146 0.276585728
v 0.203093141 -0.059931856 0.285810202
v 0.207146853 -0.043961458 0.285810202
v 0.203830138 -0.054536901 0.291254193
v 0.205302119 -0.049227450 0.291254193
v 0.269533902 0.093976609 0.008165985
f 83 78 169
f 51 83 169
f 88 97 71
f 101 114 169
f 100 97 71
f 100 114 71
f 100 101 114
f 100 96 97
f 100 96 169
f 100 101 169
f 156 158 169
f 156 158 157
f 132 126 169
f 132 158 169
f 69 83 78
f 69 51 83
f 38 35 29
f 26 35 32
f 26 35 51
f 26 27 32
f 89 96 97
f 89 88 97
f 144 128 58
f 143 158 157
f 143 144 157
f 34 1 13
f 34 35 29
f 34 35 1
f 105 107 59
f 2 1 13
f 2 3 13
f 2 3 1
f 37 41 58
f 22 48 32
f 17 3 13
f 81 88 71
f 61 48 32
f 61 27 32
f 31 35 32
f 31 30 35
f 55 35 51
f 55 38 35
f 55 38 29
f 55 29 169
f 55 51 169
f 84 78 169
f 84 86 169
f 115 116 126
f 115 126 169
f 115 114 169
f 115 114 71
f 103 85 71
f 145 144 157
f 145 144 58
f 146 141 169
f 122 111 169
f 122 146 169
f 122 146 141
f 129 131 155
f 129 122 131
f 142 131 155
f 142 122 141
f 142 122 131
f 28 34 29
f 140 148 105
f 54 41 58
f 57 43 13
f 57 54 41
f 57 66 59
f 57 54 66
f 23 22 48
f 36 41 46
f 36 37 41
f 87 81 88
f 87 86 169
f 87 89 88
f 87 96 169
f 87 89 96
f 64 85 71
f 64 72 71
f 70 69 51
f 73 26 51
f 73 70 51
f 73 70 72
f 73 26 27
f 73 61 27
f 73 64 61
f 73 64 72
f 74 70 69
f 74 70 72
f 102 116 126
f 102 103 126
f 102 115 116
f 102 115 71
f 102 103 71
f 127 128 58
f 127 103 126
f 127 132 126
f 127 132 158
f 127 143 158
f 127 144 128
f 127 143 144
f 76 103 85
f 76 42 58
f 76 127 58
f 76 127 103
f 65 107 59
f 65 66 59
f 47 59 52
f 47 57 59
f 47 57 43
f 98 28 34
f 98 28 29
f 98 29 169
f 123 129 122
f 123 129 120
f 154 155 169
f 154 142 155
f 154 141 169
f 154 142 141
f 110 105 107
f 110 140 107
f 110 140 105
f 159 156 169
f 161 155 169
f 6 31 30
f 6 30 35
f 6 31 32
f 60 54 66
f 45 41 46
f 14 17 13
f 33 45 46
f 33 14 17
f 33 45 41
f 33 57 13
f 33 14 13
f 49 61 48
f 49 23 48
f 49 23 61
f 63 76 85
f 63 76 42
f 39 37 58
f 39 42 58
f 39 63 42
f 11 3 1
f 8 6 7
f 18 36 37
f 80 84 86
f 80 84 78
f 80 79 78
f 82 79 81
f 82 87 81
f 82 87 86
f 82 80 86
f 82 80 79
f 75 74 72
f 75 79 78
f 75 72 71
f 75 79 81
f 75 81 71
f 106 65 107
f 106 65 66
f 44 43 13
f 44 34 13
f 90 47 52
f 90 59 52
f 90 113 105
f 121 113 105
f 117 121 113
f 134 135 155
f 133 148 105
f 133 135 148
f 125 122 111
f 125 123 122
f 125 123 120
f 152 156 157
f 152 159 156
f 137 140 148
f 137 161 148
f 163 137 149
f 163 137 161
f 147 135 148
f 147 161 148
f 147 135 155
f 147 161 155
f 5 22 32
f 5 6 32
f 20 6 7
f 20 6 22
f 20 8 7
f 62 66 68
f 62 60 66
f 62 54 68
f 62 60 54
f 40 57 41
f 40 33 41
f 40 33 57
f 21 39 63
f 21 63 85
f 21 23 61
f 21 64 85
f 21 64 61
f 4 8 10
f 4 8 11
f 4 18 17
f 4 17 3
f 4 11 3
f 12 8 6
f 12 8 11
f 12 6 35
f 12 35 1
f 12 11 1
f 25 33 46
f 25 36 46
f 25 18 36
f 25 33 17
f 25 18 17
f 77 75 78
f 77 75 74
f 77 69 78
f 77 74 69
f 67 66 68
f 67 106 66
f 67 54 58
f 67 54 68
f 108 125 124
f 108 111 169
f 108 104 169
f 53 90 34
f 91 105 59
f 91 90 59
f 91 90 105
f 119 112 104
f 119 117 113
f 119 112 113
f 119 125 120
f 119 121 120
f 119 117 121
f 99 112 104
f 99 98 169
f 99 104 169
f 99 112 113
f 99 90 98
f 99 90 113
f 130 134 135
f 130 129 155
f 130 134 155
f 130 129 120
f 130 121 120
f 130 133 135
f 130 121 105
f 130 133 105
f 164 159 169
f 164 166 169
f 164 166 159
f 138 137 149
f 138 151 159
f 138 137 140
f 150 138 159
f 150 138 149
f 168 166 159
f 168 165 169
f 168 166 169
f 162 161 169
f 162 163 161
f 162 165 169
f 162 163 165
f 9 6 22
f 9 5 22
f 9 5 6
f 16 23 22
f 16 20 22
f 16 23 15
f 16 20 15
f 19 8 10
f 19 20 8
f 19 4 10
f 19 4 18
f 19 18 37
f 19 20 15
f 19 37 15
f 24 39 37
f 24 21 39
f 24 37 15
f 24 23 15
f 24 21 23
f 153 67 106
f 153 151 106
f 153 67 58
f 153 145 58
f 153 145 157
f 109 125 111
f 109 108 111
f 109 108 125
f 56 53 90
f 56 53 34
f 92 90 34
f 92 93 34
f 92 93 90
f 94 93 90
f 94 93 34
f 118 119 104
f 118 108 124
f 118 108 104
f 118 125 124
f 118 119 125
f 136 151 106
f 136 138 140
f 136 140 107
f 136 106 107
f 167 168 159
f 167 150 159
f 167 168 165
f 167 150 149
f 167 163 165
f 167 163 149
f 160 151 159
f 160 153 151
f 160 152 159
f 160 153 157
f 160 152 157
f 50 90 47
f 50 56 90
f 50 56 34
f 50 44 34
f 50 44 43
f 50 47 43
f 95 90 98
f 95 94 90
f 95 98 34
f 95 94 34
f 139 138 151
f 139 136 151
f 139 136 138
