v -0.040994592 0.005454634 -0.045154743
v -0.041348286 0.009496780 -0.049381040
v -0.037267379 -0.000582388 -0.050950229
v -0.037179891 -0.001086812 -0.050202973
v -0.041296881 -0.000087014 -0.049391177
v -0.040374991 -0.000071436 -0.044024203
v -0.013952554 -0.006619402 0.042592309
v -0.013962182 -0.001211935 0.039289281
v -0.013958005 -0.001606831 0.039548110
v -0.029472208 0.019316014 -0.051722791
v -0.013736488 0.063900851 -0.027081460
v -0.008337798 0.065063395 -0.000401853
v -0.005363145 0.026563067 0.037853360
v -0.008618793 -0.007195938 0.044044189
v -0.014150446 0.063085802 -0.026999835
v -0.002844474 0.075300343 -0.007033912
v -0.010095117 0.068210378 -0.022250719
v -0.003716878 0.008664664 0.043077622
v -0.004864627 0.041310616 0.026657432
v -0.005633217 0.062824965 0.004613606
v -0.005394963 0.052085120 0.015664255
v 0.008989978 0.075534627 -0.003818579
v 0.010723841 -0.026619155 0.009789242
v 0.015183909 -0.029909424 0.006057718
v 0.010070247 0.032233551 -0.057273474
v 0.027056530 0.009490516 0.042558409
v 0.025939789 0.043635909 0.042778611
v 0.024675505 0.010901253 0.043027908
v 0.034436274 0.073123880 0.013359126
v 0.032123476 0.006773579 0.041559301
v 0.033184130 0.016059432 0.041350160
v 0.038695004 0.072552182 0.006970505
v 0.037545573 0.009374044 0.040490162
v 0.033597495 -0.028372902 0.013524518
v 0.045784958 0.059885532 0.022218999
v 0.045508578 0.046567362 0.028832195
v 0.040106472 -0.027685083 0.017789939
v 0.023219176 -0.000342430 -0.084307961
v 0.045506842 -0.027482931 0.016725084
v 0.029481029 0.002048405 -0.082320996
v 0.052144490 -0.025668386 0.020965012
v 0.052163053 -0.025618536 0.021029152
v 0.053813830 -0.020274123 0.026184723
v 0.050831452 -0.025462050 0.021223919
v 0.057465460 -0.026160875 0.019915812
v 0.043965284 0.017011769 -0.074530907
v 0.044907175 0.020640548 -0.071937941
v 0.055751711 -0.026045907 0.020253733
v 0.053554650 -0.026877632 -0.027816979
v 0.054248236 -0.027640427 -0.023840444
v 0.060258385 0.052638568 -0.041671921
v 0.048769291 0.010974756 -0.074865185
v 0.049668625 0.016382223 -0.073558457
v 0.053143047 -0.016692186 -0.064364612
v 0.068369590 0.058133338 -0.032173675
v 0.068732664 0.059012529 -0.030861450
v 0.069717064 0.060709931 -0.026890619
v 0.070669889 0.059831273 -0.021529624
v 0.059010267 -0.027432373 -0.024779432
v 0.051703498 0.010675348 -0.073278055
v 0.050660875 0.016279832 -0.073072471
v 0.068567745 0.042160515 -0.049887303
v 0.074486710 0.041530967 -0.047821298
v 0.070765451 0.041922878 -0.049292602
v 0.073871896 0.008456557 -0.059365854
v 0.079856187 0.046574850 -0.039987501
v 0.081498682 0.051985681 -0.034762498
v 0.083033502 0.051928524 -0.029516382
v 0.085490964 0.046656054 -0.007805571
v 0.085306719 0.046802890 -0.002220487
v 0.075860247 -0.019210385 -0.060962759
v 0.081145667 0.013234477 -0.053683218
v 0.090020344 0.007827010 -0.005421460
v 0.075131215 -0.019133607 -0.061251078
v 0.077731475 0.013567430 -0.056215052
v 0.082237646 -0.019839939 -0.056572124
v 0.091877639 -0.017544156 -0.009064909
v 0.086690359 0.007197455 -0.050261416
v 0.087790355 0.012604922 -0.047937047
v 0.094437614 0.012604922 -0.014225748
v 0.094240978 0.018012390 -0.018477183
v 0.094535530 0.014945701 -0.015137871
v 0.081751600 -0.019794233 -0.057007745
v 0.083455212 0.013013206 -0.051794793
v 0.092486441 0.012941322 -0.009184954
v 0.089573927 -0.020246580 -0.047452420
v 0.095380343 -0.015514462 -0.020853207
v 0.086342655 -0.020214049 -0.052364144
v 0.088693909 0.007035779 -0.047278892
v 0.088354237 0.012556845 -0.047211919
v 0.092935652 0.012263146 -0.037017662
v 0.094509393 0.012201373 -0.031779222
v 0.095376410 0.012223464 -0.026401307
v 0.095541000 0.012328910 -0.020884886
v 0.094586402 0.017797969 -0.026245533
v 0.094468169 0.017936977 -0.020673342
v 0.094745278 0.012548305 -0.015179230
v 0.094364114 -0.015185248 -0.031750575
v 0.095138483 -0.015152163 -0.026354393
f 10 11 2
f 15 12 2
f 15 11 2
f 15 11 12
f 38 10 2
f 38 10 11
f 8 12 2
f 28 27 14
f 16 11 12
f 16 29 27
f 16 29 22
f 25 38 11
f 20 16 12
f 20 16 27
f 13 8 9
f 13 7 9
f 13 8 12
f 30 28 33
f 31 33 27
f 31 28 27
f 31 28 33
f 35 29 27
f 17 16 11
f 17 51 11
f 95 91 67
f 95 68 67
f 95 96 94
f 95 68 69
f 95 96 69
f 82 96 94
f 47 51 11
f 47 25 11
f 47 38 46
f 47 25 38
f 71 75 83
f 5 38 2
f 18 13 7
f 18 7 14
f 18 13 27
f 18 27 14
f 19 13 12
f 19 13 27
f 26 28 14
f 26 30 14
f 26 30 28
f 55 51 67
f 92 95 91
f 70 68 69
f 70 58 68
f 70 35 29
f 70 96 69
f 57 16 22
f 57 68 67
f 57 58 68
f 97 82 94
f 40 71 38
f 40 71 52
f 40 38 46
f 60 71 52
f 60 61 75
f 60 61 52
f 53 47 46
f 53 40 46
f 53 61 52
f 53 40 52
f 63 61 75
f 63 53 61
f 63 84 79
f 1 5 2
f 1 7 9
f 1 8 2
f 1 8 9
f 3 4 38
f 3 5 38
f 3 5 4
f 78 84 79
f 78 76 83
f 78 75 83
f 21 20 12
f 21 19 12
f 21 20 27
f 21 19 27
f 43 30 14
f 43 30 33
f 24 7 14
f 24 5 4
f 93 95 94
f 93 92 95
f 36 70 33
f 36 33 27
f 36 35 27
f 36 70 35
f 81 82 96
f 81 70 96
f 81 70 82
f 85 70 82
f 32 57 58
f 32 70 29
f 32 70 58
f 32 29 22
f 32 57 22
f 56 57 16
f 56 17 16
f 56 17 51
f 56 55 51
f 56 55 67
f 56 57 67
f 77 43 45
f 90 89 91
f 90 78 79
f 90 78 89
f 90 91 67
f 74 71 38
f 65 71 75
f 65 60 75
f 65 60 71
f 72 63 75
f 72 63 84
f 72 78 75
f 72 78 84
f 66 63 67
f 66 63 79
f 66 90 67
f 66 90 79
f 62 53 47
f 62 47 51
f 62 51 67
f 6 1 7
f 6 1 5
f 6 24 5
f 73 70 33
f 73 43 33
f 73 85 70
f 73 77 43
f 73 77 85
f 59 76 83
f 59 71 83
f 37 24 14
f 80 97 82
f 80 85 82
f 80 77 97
f 80 77 85
f 98 92 91
f 98 93 92
f 64 63 53
f 64 62 53
f 64 63 67
f 64 62 67
f 23 24 7
f 23 6 7
f 23 6 24
f 88 59 76
f 88 78 76
f 88 78 89
f 86 77 45
f 86 59 45
f 86 88 59
f 86 98 91
f 86 89 91
f 86 88 89
f 49 74 71
f 49 59 71
f 44 37 14
f 39 59 24
f 39 59 45
f 39 37 45
f 54 49 74
f 54 74 38
f 54 49 24
f 54 4 38
f 54 24 4
f 50 59 24
f 50 49 24
f 50 49 59
f 41 44 37
f 34 37 24
f 34 39 24
f 34 39 37
f 87 93 94
f 87 86 77
f 87 77 97
f 87 97 94
f 48 37 45
f 48 41 37
f 48 43 45
f 42 44 14
f 42 41 44
f 42 43 14
f 42 48 43
f 42 48 41
f 99 86 98
f 99 87 86
f 99 98 93
f 99 87 93
